<svg xmlns="http://www.w3.org/2000/svg" width="639" height="312" viewBox="0 0 639 312">
<g>
<path d="M 393.39,95.12 L 396.04,95.33 L 400.91,96.08 L 403.27,96.51 L 407.58,97.69 L 409.67,98.34 L 413.44,99.97 L 415.26,100.84 L 418.51,102.93 L 420.06,104.03 L 422.80,106.58 L 424.11,107.91 L 426.35,110.93 L 429.18,116.00 L 429.58,116.89 L 430.18,118.65 L 430.45,119.56 L 430.82,121.62 L 430.98,122.72 L 431.16,125.41 L 431.20,126.13 L 431.24,127.76 L 431.28,130.50 L 431.29,133.11 L 430.84,138.34 L 430.53,140.96 L 429.45,146.20 L 428.83,148.82 L 427.12,154.05 L 426.19,156.66 L 423.88,161.85 L 422.64,164.44 L 419.73,169.57 L 418.19,172.13 L 414.69,177.18 L 412.86,179.70 L 408.77,184.65 L 402.00,191.95 L 400.26,193.68 L 396.70,196.95 L 394.91,198.55 L 391.23,201.54 L 389.38,203.01 L 385.60,205.72 L 383.69,207.04 L 379.80,209.48 L 377.84,210.66 L 373.83,212.82 L 371.82,213.86 L 367.71,215.74 L 365.64,216.64 L 361.43,218.24 L 355.00,220.31 L 352.70,220.97 L 347.54,222.02 L 344.92,222.49 L 339.66,223.12 L 338.37,223.25 L 335.90,223.42 L 334.69,223.48 L 332.45,223.52 L 331.36,223.52 L 329.44,223.41 L 328.52,223.34 L 327.00,223.09 L 325.69,222.82 L 323.33,221.99 L 322.20,221.54 L 320.20,220.36 L 319.26,219.73 L 317.65,218.23 L 316.90,217.45 L 315.70,215.67 L 315.15,214.75 L 314.38,212.73 L 314.05,211.70 L 313.73,209.46 L 313.63,208.32 L 313.78,205.92 L 314.55,202.14 L 314.88,201.03 L 315.98,198.73 L 316.60,197.58 L 318.21,195.27 L 319.07,194.12 L 321.13,191.85 L 322.20,190.73 L 324.62,188.57 L 325.87,187.51 L 328.58,185.52 L 329.96,184.55 L 332.89,182.78 L 334.38,181.94 L 337.46,180.47 L 342.15,178.67 L 342.27,178.63 L 342.66,178.22 L 342.88,177.96 L 343.47,177.13 L 343.78,176.67 L 344.53,175.48 L 344.93,174.84 L 345.82,173.34 L 346.28,172.55 L 347.28,170.77 L 347.79,169.86 L 348.88,167.86 L 352.31,161.27 L 353.67,158.56 L 356.16,153.69 L 357.37,151.35 L 359.57,147.19 L 360.63,145.19 L 362.54,141.72 L 363.46,140.07 L 365.08,137.27 L 365.86,135.95 L 367.22,133.81 L 367.86,132.82 L 368.95,131.33 L 369.47,130.66 L 370.31,129.79 L 371.29,129.18 L 371.63,129.12 L 372.16,129.13 L 372.39,129.17 L 372.69,129.41 L 372.81,129.56 L 372.87,130.04 L 372.87,130.32 L 372.69,131.09 L 372.58,131.50 L 372.15,132.57 L 371.91,133.15 L 371.23,134.54 L 370.85,135.29 L 369.91,137.04 L 368.19,140.11 L 367.85,140.68 L 367.07,142.07 L 366.66,142.80 L 365.75,144.45 L 364.81,146.16 L 362.69,150.09 L 361.60,152.10 L 359.38,156.28 L 356.23,162.30 L 349.09,176.11 L 353.80,175.33 L 355.75,175.01 L 359.07,174.65 L 360.63,174.52 L 363.07,174.54 L 363.62,174.57 L 364.54,174.70 L 364.96,174.77 L 365.61,174.99 L 365.90,175.11 L 366.27,175.42 L 366.50,175.98 L 366.50,176.26 L 365.97,176.77 L 365.61,177.03 L 364.26,177.54 L 363.47,177.81 L 361.17,178.36 L 360.52,178.51 L 359.04,178.81 L 356.50,179.29 L 346.50,181.12 L 340.07,194.56 L 339.47,195.81 L 338.40,198.00 L 337.88,199.05 L 336.96,200.87 L 336.51,201.73 L 335.72,203.19 L 335.34,203.88 L 334.66,205.02 L 334.34,205.55 L 333.76,206.38 L 333.49,206.76 L 333.01,207.30 L 331.82,208.00 L 331.47,208.00 L 330.92,207.88 L 330.68,207.79 L 330.37,207.46 L 330.24,207.26 L 330.17,206.68 L 330.16,206.35 L 330.34,205.47 L 330.46,204.98 L 330.90,203.75 L 331.16,203.08 L 331.88,201.45 L 332.27,200.59 L 333.27,198.52 L 335.12,194.87 L 335.82,193.50 L 337.06,190.96 L 337.65,189.74 L 338.58,187.68 L 339.00,186.73 L 339.51,185.37 L 339.61,185.09 L 339.71,184.69 L 339.71,184.38 L 339.59,184.26 L 339.03,184.27 L 338.71,184.31 L 337.81,184.63 L 337.33,184.82 L 336.17,185.39 L 335.57,185.70 L 334.24,186.48 L 332.88,187.29 L 329.96,189.34 L 325.95,192.65 L 324.89,193.64 L 323.08,195.64 L 322.22,196.65 L 320.82,198.66 L 320.17,199.67 L 319.19,201.67 L 318.76,202.66 L 318.20,204.61 L 317.98,205.58 L 317.86,207.47 L 317.85,208.40 L 318.16,210.19 L 318.37,211.07 L 319.13,212.74 L 320.77,215.07 L 321.67,216.07 L 323.93,217.55 L 325.15,218.21 L 328.16,219.01 L 328.97,219.16 L 330.75,219.36 L 331.67,219.44 L 333.68,219.47 L 334.72,219.47 L 336.99,219.34 L 340.70,218.99 L 344.05,218.58 L 350.66,217.21 L 353.95,216.43 L 360.40,214.31 L 363.60,213.16 L 369.85,210.33 L 372.94,208.83 L 378.96,205.31 L 381.93,203.46 L 387.67,199.28 L 390.50,197.10 L 395.91,192.27 L 398.58,189.78 L 403.64,184.33 L 410.79,175.50 L 412.06,173.78 L 414.41,170.22 L 415.55,168.42 L 417.64,164.74 L 418.65,162.88 L 420.46,159.12 L 421.32,157.24 L 422.83,153.45 L 423.54,151.56 L 424.73,147.78 L 425.29,145.90 L 426.14,142.19 L 426.53,140.34 L 427.04,136.74 L 427.38,131.50 L 427.40,130.50 L 427.40,128.79 L 427.40,127.97 L 427.36,126.55 L 427.30,125.19 L 427.01,123.05 L 426.82,122.02 L 426.18,120.09 L 424.69,116.78 L 423.82,115.01 L 421.70,111.89 L 420.58,110.40 L 417.91,107.81 L 416.51,106.58 L 413.26,104.48 L 407.68,101.85 L 406.27,101.31 L 403.85,100.58 L 402.61,100.26 L 399.71,99.87 L 398.90,99.79 L 397.02,99.68 L 396.02,99.63 L 393.64,99.57 L 392.37,99.54 L 389.37,99.52 L 384.00,99.51 L 381.67,99.51 L 377.58,99.55 L 375.61,99.59 L 372.11,99.72 L 370.41,99.81 L 367.30,100.06 L 365.78,100.20 L 362.88,100.60 L 361.44,100.82 L 358.57,101.39 L 357.12,101.70 L 354.09,102.47 L 352.54,102.89 L 349.16,103.89 L 343.50,105.68 L 339.83,106.88 L 332.65,109.73 L 329.10,111.23 L 322.25,114.62 L 318.88,116.37 L 312.48,120.20 L 309.34,122.16 L 303.51,126.34 L 300.68,128.46 L 295.53,132.90 L 293.06,135.14 L 288.72,139.75 L 286.67,142.07 L 283.27,146.76 L 282.48,147.93 L 281.10,150.27 L 279.34,153.78 L 278.61,155.43 L 277.67,159.00 L 277.28,160.80 L 277.03,164.48 L 277.00,166.31 L 277.45,169.84 L 278.94,174.67 L 279.46,175.82 L 280.10,177.78 L 280.22,178.21 L 280.32,178.86 L 280.25,179.42 L 279.85,179.82 L 278.99,180.05 L 278.55,180.07 L 277.63,179.56 L 277.17,179.21 L 276.23,177.97 L 274.82,175.34 L 274.41,174.39 L 273.81,172.69 L 273.56,171.85 L 273.25,170.10 L 273.13,169.18 L 273.07,167.05 L 273.20,163.06 L 273.28,161.73 L 273.60,159.22 L 273.79,157.99 L 274.36,155.61 L 274.68,154.44 L 275.53,152.13 L 276.00,150.98 L 277.17,148.69 L 277.81,147.54 L 279.34,145.19 L 280.15,144.00 L 282.08,141.53 L 283.09,140.28 L 285.44,137.62 L 289.49,133.37 L 292.42,130.39 L 298.88,124.88 L 302.19,122.20 L 309.32,117.31 L 312.96,114.94 L 320.67,110.72 L 324.58,108.69 L 332.74,105.17 L 336.87,103.51 L 345.38,100.74 L 349.66,99.46 L 358.41,97.49 L 362.80,96.61 L 371.67,95.49 L 385.00,94.81 L 387.94,94.80 M 439.67,189.11 L 439.98,189.18 L 440.43,189.44 L 440.62,189.60 L 440.86,190.03 L 441.00,190.89 L 441.00,191.26 L 440.80,191.91 L 440.67,192.22 L 440.26,192.76 L 439.82,193.25 L 438.57,193.80 L 437.93,193.99 L 436.68,193.81 L 436.40,193.71 L 435.91,193.35 L 435.69,193.14 L 435.38,192.55 L 435.17,192.01 L 435.14,191.09 L 435.18,190.65 L 435.63,189.97 L 435.90,189.66 L 436.78,189.25 L 438.56,189.00 L 438.99,189.00 M 516.30,189.41 L 516.69,189.67 L 516.96,190.43 L 517.00,190.84 L 516.56,191.73 L 515.07,192.96 L 514.46,193.29 L 513.65,193.69 L 513.29,193.85 L 512.78,193.91 L 512.54,193.90 L 512.09,193.63 L 511.85,193.45 L 511.22,192.82 L 510.82,192.42 L 510.63,191.54 L 510.64,191.10 L 511.16,190.30 L 511.49,189.92 L 512.56,189.37 L 514.62,189.00 L 515.35,189.00 M 564.39,123.15 L 564.60,123.25 L 564.82,123.62 L 564.90,123.84 L 564.86,124.45 L 564.81,124.80 L 564.50,125.68 L 564.31,126.16 L 563.71,127.35 L 563.38,127.98 L 562.49,129.48 L 562.01,130.27 L 560.82,132.11 L 558.68,135.29 L 555.00,140.66 L 548.06,151.55 L 546.40,154.22 L 543.31,159.37 L 541.81,161.90 L 539.12,166.63 L 537.84,168.92 L 535.67,173.04 L 535.16,174.03 L 534.26,175.85 L 533.83,176.74 L 533.09,178.35 L 532.74,179.13 L 532.17,180.51 L 531.91,181.16 L 531.54,182.28 L 531.37,182.80 L 531.19,183.64 L 531.17,184.55 L 531.23,184.85 L 531.81,184.87 L 532.00,184.82 L 532.52,184.56 L 532.80,184.40 L 533.50,183.92 L 533.88,183.65 L 534.80,182.93 L 535.28,182.54 L 536.42,181.57 L 537.01,181.06 L 538.38,179.84 L 540.72,177.71 L 541.98,176.55 L 544.34,174.48 L 545.49,173.48 L 547.66,171.74 L 548.71,170.90 L 550.68,169.48 L 551.63,168.81 L 553.41,167.71 L 554.27,167.20 L 555.85,166.42 L 556.62,166.07 L 558.01,165.61 L 558.69,165.42 L 559.90,165.28 L 561.51,165.41 L 562.38,165.63 L 563.56,166.55 L 564.05,167.08 L 564.50,168.65 L 564.62,169.51 L 564.33,171.74 L 563.06,175.85 L 562.49,177.28 L 561.61,180.42 L 561.42,181.17 L 561.16,182.50 L 561.00,184.08 L 561.00,184.81 L 561.07,185.77 L 561.14,186.18 L 561.51,186.59 L 561.75,186.75 L 562.62,186.75 L 564.75,186.43 L 565.46,186.30 L 567.07,185.91 L 567.91,185.69 L 569.76,185.11 L 571.65,184.50 L 575.97,182.78 L 578.20,181.86 L 582.97,179.63 L 590.30,175.82 L 591.37,175.22 L 593.22,174.24 L 594.10,173.78 L 595.59,173.05 L 596.29,172.72 L 597.46,172.24 L 598.00,172.03 L 598.87,171.80 L 599.27,171.72 L 599.88,171.73 L 600.15,171.76 L 600.53,172.00 L 600.70,172.15 L 600.89,172.61 L 601.00,173.54 L 601.00,173.67 L 600.70,174.04 L 600.50,174.24 L 599.84,174.76 L 599.47,175.03 L 598.49,175.67 L 597.96,176.01 L 596.71,176.75 L 595.41,177.51 L 592.17,179.25 L 590.49,180.13 L 586.76,181.99 L 584.88,182.91 L 581.03,184.70 L 579.12,185.58 L 575.51,187.13 L 573.76,187.86 L 570.75,189.00 L 570.05,189.25 L 568.83,189.64 L 567.30,190.04 L 565.99,190.31 L 563.75,190.59 L 562.70,190.69 L 560.95,190.59 L 560.13,190.50 L 558.85,190.01 L 558.27,189.71 L 557.45,188.81 L 557.09,188.30 L 556.71,186.96 L 556.58,186.24 L 556.63,184.44 L 556.70,183.48 L 557.16,181.20 L 558.30,177.21 L 558.62,176.21 L 559.17,174.35 L 559.42,173.46 L 559.79,171.95 L 559.95,171.25 L 560.10,170.26 L 560.05,169.53 L 559.87,169.42 L 559.29,169.42 L 558.97,169.46 L 558.13,169.76 L 557.68,169.95 L 556.61,170.52 L 556.04,170.84 L 554.75,171.67 L 554.08,172.11 L 552.60,173.19 L 551.83,173.75 L 550.19,175.05 L 544.74,179.72 L 543.19,181.12 L 540.50,183.49 L 539.22,184.61 L 537.02,186.43 L 535.98,187.27 L 534.21,188.58 L 533.37,189.17 L 531.98,189.99 L 531.32,190.34 L 530.24,190.70 L 529.73,190.83 L 528.91,190.77 L 528.52,190.69 L 527.88,190.24 L 527.58,189.97 L 527.08,189.16 L 526.78,188.59 L 526.62,186.92 L 526.62,186.00 L 527.07,183.65 L 527.37,182.39 L 528.42,179.36 L 529.03,177.76 L 530.68,174.05 L 531.58,172.11 L 533.83,167.74 L 535.02,165.48 L 537.86,160.45 L 539.35,157.85 L 542.78,152.17 L 548.58,142.93 L 549.96,140.78 L 552.31,137.14 L 553.43,135.42 L 555.31,132.56 L 556.20,131.22 L 557.67,129.07 L 558.36,128.07 L 559.50,126.52 L 560.03,125.81 L 560.90,124.77 L 561.31,124.31 L 561.98,123.70 L 562.30,123.43 L 562.83,123.15 L 563.57,123.00 L 563.91,123.00 M 469.50,167.29 L 470.51,167.47 L 472.63,168.02 L 473.67,168.31 L 475.47,168.98 L 477.27,169.96 L 477.38,170.06 L 477.37,170.68 L 477.33,171.05 L 477.06,172.11 L 476.89,172.69 L 476.40,174.06 L 475.45,176.32 L 474.74,177.88 L 473.72,180.98 L 473.51,181.70 L 473.26,182.92 L 473.18,184.24 L 473.24,184.69 L 473.56,185.37 L 473.76,185.66 L 474.39,186.02 L 474.74,186.15 L 475.74,186.16 L 476.30,186.12 L 477.73,185.78 L 478.51,185.56 L 480.44,184.84 L 481.47,184.43 L 483.96,183.32 L 485.28,182.71 L 488.39,181.19 L 493.82,178.42 L 495.78,177.40 L 499.45,175.54 L 501.21,174.65 L 504.20,173.18 L 504.89,172.84 L 506.09,172.27 L 506.66,172.00 L 507.57,171.59 L 507.99,171.40 L 508.59,171.15 L 509.07,171.00 L 509.32,171.00 L 509.73,171.54 L 510.00,172.84 L 510.00,173.17 L 509.42,173.99 L 509.03,174.44 L 507.60,175.55 L 506.77,176.15 L 504.42,177.61 L 503.77,178.00 L 502.28,178.85 L 499.75,180.25 L 497.74,181.33 L 494.15,183.23 L 492.42,184.13 L 489.34,185.67 L 487.86,186.39 L 485.24,187.58 L 483.99,188.13 L 481.79,189.00 L 480.74,189.39 L 478.92,189.95 L 478.04,190.19 L 476.54,190.46 L 475.82,190.56 L 474.59,190.56 L 474.01,190.52 L 473.00,190.27 L 472.41,190.07 L 471.38,189.36 L 470.89,188.95 L 470.11,187.89 L 469.76,187.33 L 469.29,186.01 L 469.00,183.84 L 469.00,181.06 L 463.27,185.08 L 462.08,185.91 L 460.21,187.10 L 459.33,187.62 L 457.86,188.28 L 457.15,188.55 L 455.78,188.79 L 453.52,188.80 L 452.52,188.72 L 451.20,188.55 L 450.63,188.44 L 449.97,187.97 L 449.70,187.66 L 449.44,186.59 L 449.20,183.98 L 449.14,182.99 L 449.17,181.46 L 449.22,180.75 L 449.58,179.51 L 449.82,178.89 L 450.65,177.59 L 452.56,175.20 L 453.60,173.99 L 455.94,171.88 L 457.13,170.88 L 459.64,169.29 L 460.89,168.56 L 463.37,167.60 L 466.81,167.00 L 467.55,167.00 M 466.12,171.29 L 465.14,171.40 L 463.58,171.73 L 462.85,171.93 L 461.57,172.56 L 460.93,172.94 L 459.61,174.06 L 457.25,176.50 L 456.62,177.20 L 455.52,178.58 L 455.01,179.27 L 454.18,180.56 L 453.81,181.18 L 453.31,182.28 L 453.00,183.60 L 453.00,184.34 L 453.27,185.28 L 453.45,185.66 L 454.15,185.88 L 454.57,185.89 L 455.80,185.38 L 456.49,185.04 L 458.35,183.81 L 460.00,182.66 L 463.25,180.12 L 464.83,178.85 L 467.55,176.42 L 468.18,175.85 L 469.25,174.79 L 469.74,174.28 L 470.51,173.41 L 470.84,173.00 L 471.24,172.38 L 471.36,171.77 L 471.27,171.63 L 470.76,171.42 L 470.45,171.32 L 469.58,171.21 Z" fill="rgba(0,0,0,1)"/>
<path d="M 75.97,224.00 L 77.28,225.31 L 80.13,227.96 L 81.56,229.27 L 84.40,231.71 L 85.79,232.88 L 88.29,234.83 L 88.88,235.28 L 89.01,235.37 L 87.70,234.49 L 85.08,232.47 L 83.71,231.30 L 80.93,228.86 L 79.53,227.53 L 76.73,224.82 L 75.36,223.40 L 72.66,220.54 L 72.09,219.90 M 72.93,232.23 L 71.60,231.00 L 71.60,231.00 M 68.84,228.19 L 68.66,228.00 L 68.52,227.85 M 137.30,219.46 L 135.85,220.16 L 135.21,220.62 L 134.02,221.62 L 133.63,222.16 L 133.00,223.25 L 133.00,223.75 L 133.66,224.94 L 134.63,225.72 L 135.25,225.97 L 136.53,226.34 L 137.34,226.41 L 138.96,226.45 L 137.50,226.68 L 136.81,226.75 L 135.64,226.84 L 135.08,226.88 L 134.16,226.93 L 133.28,226.96 L 132.11,226.84 L 131.60,226.75 L 130.94,226.34 L 130.64,226.10 L 130.19,225.36 L 129.76,224.56 L 129.60,223.20 L 129.64,222.56 L 130.41,221.52 L 130.91,221.03 L 132.62,220.30 L 136.25,219.53 L 138.02,219.30 L 138.27,219.25 M 150.09,223.89 L 148.01,224.62 L 147.54,224.74 L 150.16,223.86 M 156.24,221.33 L 154.22,222.31 L 153.28,222.67 L 154.56,222.09 L 158.06,220.39 M 160.24,219.26 L 160.24,219.26 L 162.16,218.05 M 145.42,217.72 L 143.69,218.22 L 142.02,218.66 L 141.31,218.79 L 139.98,219.00 L 139.57,219.00 L 141.47,218.63 L 143.18,218.25 L 146.49,217.28 L 147.13,217.07 M 60.04,217.40 L 59.74,216.98 L 59.46,216.54 M 63.84,209.22 L 64.90,210.89 L 66.93,213.69 L 65.73,212.12 L 64.86,210.85 L 63.27,208.39 L 62.70,207.31 L 62.69,207.29 M 168.71,203.52 L 166.73,205.42 L 164.75,207.26 L 163.75,208.09 L 161.74,209.69 L 160.76,210.37 L 158.34,211.89 L 156.52,212.91 L 155.54,213.41 L 155.25,213.55 L 155.87,213.23 L 157.36,212.40 L 160.24,210.53 L 161.65,209.56 L 164.38,207.38 L 165.72,206.26 L 168.30,203.79 L 171.19,200.64 M 49.80,195.43 L 51.38,200.36 L 52.29,202.67 L 54.19,207.20 L 55.27,209.34 L 57.11,212.78 L 56.64,212.00 L 54.84,208.57 L 53.97,206.85 L 52.44,203.31 L 51.72,201.53 L 50.47,197.88 L 49.73,195.20 M 212.54,199.37 L 212.45,199.60 L 212.59,199.24 M 58.17,197.69 L 57.91,197.10 L 57.43,195.70 M 128.08,195.00 L 128.04,195.00 L 133.32,194.58 M 133.50,194.57 L 133.49,194.57 L 134.14,194.50 M 134.79,194.43 L 134.78,194.43 L 135.63,194.30 M 117.36,148.99 L 117.60,149.10 L 118.32,149.27 L 118.72,149.36 L 119.81,149.50 L 120.40,149.56 L 121.93,149.67 L 122.76,149.73 L 124.81,149.84 L 128.55,150.00 L 130.15,150.07 L 132.88,150.21 L 134.17,150.29 L 136.35,150.49 L 137.38,150.60 L 139.13,150.90 L 139.96,151.06 L 141.38,151.48 L 142.74,151.94 L 144.98,153.41 L 145.53,153.84 L 146.66,154.87 L 148.48,156.74 L 148.84,157.12 L 149.61,158.23 L 150.00,158.84 L 150.77,160.26 L 152.63,164.85 L 152.97,165.99 L 153.39,167.78 L 153.57,168.62 L 153.68,170.07 L 153.70,170.79 L 153.52,172.24 L 152.91,174.81 L 152.59,175.96 L 151.31,178.53 L 150.59,179.84 L 148.75,182.43 L 147.79,183.69 L 145.69,185.88 L 142.59,188.29 L 142.44,188.37 L 141.92,188.54 L 141.63,188.62 L 140.83,188.79 L 139.97,188.96 L 137.59,189.28 L 136.31,189.43 L 133.32,189.70 L 128.50,189.99 L 127.06,190.05 L 124.68,190.16 L 123.56,190.21 L 121.76,190.32 L 120.93,190.38 L 119.63,190.51 L 119.03,190.58 L 118.14,190.74 L 117.74,190.83 L 117.18,191.06 L 116.93,191.18 L 116.62,191.48 L 116.18,192.75 L 116.10,193.30 L 116.16,193.90 L 116.00,193.48 L 116.00,193.03 L 116.23,192.09 L 116.60,191.44 L 116.88,191.12 L 118.26,189.85 L 119.25,189.32 L 122.50,187.60 L 119.50,187.04 L 116.50,186.48 L 116.48,185.36 L 116.56,185.90 L 116.70,186.37 L 116.80,186.46 L 117.77,186.63 L 118.36,186.70 L 120.15,186.82 L 121.12,186.87 L 123.49,186.92 L 127.45,186.92 L 128.58,186.91 L 130.49,186.86 L 131.40,186.84 L 132.93,186.77 L 133.66,186.73 L 134.89,186.61 L 135.48,186.55 L 136.48,186.38 L 137.43,186.19 L 138.97,185.58 L 139.73,185.23 L 141.31,184.21 L 142.48,183.42 L 144.64,181.30 L 145.67,180.17 L 147.40,177.61 L 148.20,176.31 L 149.30,173.67 L 150.00,170.00 L 150.00,169.54 L 149.80,168.37 L 149.67,167.75 L 149.25,166.38 L 147.46,162.34 L 146.62,160.90 L 144.59,158.61 L 143.51,157.56 L 140.96,156.02 L 139.62,155.33 L 136.48,154.50 L 131.04,154.00 L 125.00,154.00 L 124.83,165.94 L 124.78,168.68 L 124.76,169.99 L 124.71,172.28 L 124.69,173.35 L 124.65,174.94 L 124.60,176.25 L 124.57,176.59 L 125.19,177.23 L 126.66,177.79 L 126.61,177.78 L 125.19,177.70 L 124.61,177.93 L 124.51,178.17 L 124.42,178.76 L 124.55,179.19 L 124.95,180.14 L 125.34,180.75 L 125.73,181.15 L 126.09,181.31 L 126.90,181.60 L 127.42,181.70 L 129.55,181.96 L 128.55,182.00 L 121.00,182.00 L 121.00,154.47 L 122.02,154.56 L 123.10,154.50 L 123.48,154.39 L 124.14,154.13 L 124.31,153.94 L 124.55,153.53 L 124.52,153.29 L 124.35,152.78 L 124.11,152.51 L 123.54,151.95 L 123.10,151.66 L 122.13,151.10 L 121.50,150.84 L 120.14,150.33 L 119.31,150.11 L 117.21,149.06 L 117.03,148.81 M 56.64,193.13 L 56.81,193.73 L 56.17,191.68 L 55.80,190.06 M 180.02,186.62 L 178.77,189.57 L 178.09,190.86 L 179.63,187.47 L 180.33,185.74 M 182.59,174.92 L 182.38,176.59 L 181.86,179.94 L 181.47,181.62 L 180.59,184.96 L 180.54,185.11 L 181.64,180.72 L 182.68,173.00 L 182.74,172.16 M 47.18,184.53 L 47.14,184.35 L 46.54,181.24 L 46.47,180.84 M 217.39,179.57 L 217.24,180.49 L 217.51,178.38 M 50.75,170.43 L 51.26,170.75 L 52.05,172.03 L 52.24,172.42 L 52.58,173.40 L 52.74,173.93 L 53.05,175.24 L 53.21,175.93 L 53.50,177.58 L 53.91,180.17 L 53.83,179.73 L 53.42,177.85 L 53.20,177.07 L 52.77,175.61 L 52.54,175.03 L 52.06,173.97 L 51.80,173.58 L 51.27,172.90 L 50.98,172.69 L 50.37,172.35 L 50.03,172.30 L 49.34,172.28 L 48.95,172.38 L 48.14,172.66 L 47.69,172.90 L 46.43,173.71 L 45.92,174.30 L 45.82,174.70 L 45.77,175.00 L 45.75,174.43 L 45.75,173.59 L 45.95,172.33 L 46.08,171.76 L 46.54,170.96 L 46.80,170.62 L 47.53,170.22 L 48.91,170.00 L 49.63,170.00 M 145.00,170.49 L 145.00,171.47 L 144.75,173.24 L 144.59,174.09 L 144.01,175.60 L 143.68,176.33 L 142.76,177.59 L 142.26,178.19 L 140.99,179.19 L 140.31,179.67 L 139.74,179.94 L 141.55,178.62 L 142.93,177.01 L 143.44,176.09 L 144.33,174.18 L 144.59,173.16 L 144.98,171.08 L 144.98,170.29 M 217.85,174.05 L 217.77,175.90 L 217.55,178.03 L 217.69,176.07 L 217.87,172.38 M 128.86,176.28 L 128.76,176.94 L 128.69,177.17 L 128.31,177.83 L 127.98,177.90 L 127.35,177.89 L 128.02,177.83 L 128.33,177.73 L 128.71,177.00 L 128.78,176.75 L 128.87,176.25 M 127.24,177.89 L 127.20,177.89 L 127.09,177.87 M 193.52,149.77 L 194.10,151.63 L 194.32,152.49 L 194.70,154.17 L 194.80,154.93 L 195.19,158.77 L 195.36,161.60 L 195.41,163.11 L 195.49,169.31 L 195.38,172.39 L 195.37,172.69 L 195.41,170.50 L 195.41,168.67 L 195.38,165.48 L 195.35,163.95 L 195.25,161.26 L 195.19,159.97 L 195.01,157.69 L 194.91,156.59 L 194.64,154.60 L 194.33,152.67 L 193.50,149.71 M 217.58,162.86 L 217.93,166.61 L 217.89,170.63 L 217.88,169.70 L 217.77,165.44 L 217.58,163.30 L 217.36,161.19 M 182.65,166.64 L 182.66,166.89 L 182.63,166.35 M 134.91,158.20 L 134.10,158.43 L 133.57,158.81 L 132.42,159.73 L 131.65,160.45 L 130.21,161.99 L 129.60,163.04 L 129.42,163.72 L 129.21,164.85 L 129.21,164.14 L 129.21,163.22 L 129.18,161.74 L 129.12,160.25 L 129.08,159.76 L 129.14,159.08 L 129.21,158.77 L 129.59,158.39 L 129.83,158.23 L 130.65,158.08 L 132.51,158.00 L 133.44,158.00 M 216.62,155.38 L 216.90,157.54 L 216.79,156.89 L 216.11,153.16 M 117.60,154.00 L 116.00,154.00 L 116.00,156.76 L 115.95,153.74 M 178.86,150.92 L 179.45,152.42 L 179.46,152.46 L 178.38,149.90 M 192.88,147.87 L 193.23,148.89 L 192.03,145.90 M 170.72,128.73 L 172.08,130.04 L 174.63,132.90 L 175.87,134.36 L 178.17,137.55 L 179.29,139.18 L 181.35,142.69 L 182.35,144.49 L 184.18,148.33 L 184.18,148.34 L 182.35,144.49 L 181.35,142.69 L 179.29,139.18 L 178.17,137.55 L 175.87,134.37 L 174.63,132.90 L 172.08,130.04 L 170.72,128.73 L 168.97,127.15 M 116.50,148.06 L 116.50,147.97 L 116.64,148.25 M 174.23,142.46 L 175.10,143.81 L 176.76,146.57 L 176.76,146.59 L 174.23,142.55 L 173.40,141.34 M 116.74,146.41 L 116.74,146.40 L 116.89,146.26 M 118.79,145.55 L 119.02,145.50 L 119.41,145.47 M 213.84,144.32 L 214.13,145.44 L 213.70,144.10 L 212.89,141.76 M 123.17,145.22 L 123.17,145.22 L 124.00,145.18 M 168.01,135.05 L 169.14,136.22 L 171.31,138.61 L 172.31,139.87 L 172.33,139.90 L 169.20,136.33 L 167.80,134.86 M 209.67,133.68 L 210.13,134.82 L 209.60,133.57 L 209.23,132.83 M 164.35,131.83 L 165.59,132.88 L 166.36,133.57 L 163.46,131.18 M 183.06,130.56 L 184.15,132.00 L 184.63,132.73 L 183.24,130.87 L 182.43,129.85 M 204.21,123.68 L 207.92,130.30 L 208.16,130.77 L 204.08,123.54 L 202.99,121.94 M 179.26,126.36 L 180.10,127.27 L 179.07,126.19 M 152.92,125.13 L 155.41,126.24 L 151.59,124.65 M 187.54,124.47 L 187.58,124.52 L 186.15,122.91 M 184.46,121.12 L 185.53,122.22 L 185.66,122.36 L 184.63,121.30 L 182.19,118.92 M 138.30,113.33 L 139.98,113.53 L 140.86,113.65 L 142.82,114.06 L 143.83,114.30 L 144.47,114.47 L 141.68,114.34 L 139.60,114.63 L 138.75,114.94 L 137.20,115.64 L 136.74,116.10 L 136.35,116.58 L 136.25,116.84 L 136.12,117.37 L 136.18,117.65 L 136.77,119.01 L 137.61,119.78 L 138.42,120.18 L 139.32,120.58 L 139.90,120.80 L 141.15,121.26 L 141.93,121.51 L 142.56,121.72 L 141.73,121.51 L 140.29,121.20 L 138.88,121.00 L 138.25,121.00 L 137.11,120.81 L 136.56,120.69 L 135.60,120.29 L 135.15,120.07 L 134.40,119.51 L 134.06,119.21 L 133.56,118.53 L 133.34,118.18 L 133.10,117.42 L 133.02,117.04 L 133.08,116.25 L 133.15,115.86 L 133.53,115.09 L 134.51,113.99 L 134.80,113.75 L 135.73,113.47 L 136.24,113.36 L 137.58,113.32 M 177.70,114.88 L 180.00,116.78 L 180.19,116.97 L 178.03,115.16 L 176.59,113.98 M 196.28,113.22 L 198.32,115.66 L 195.48,112.36 M 139.88,99.68 L 141.64,99.73 L 145.16,100.09 L 145.97,100.19 L 147.36,100.43 L 148.88,100.82 L 149.24,100.95 L 150.35,101.33 L 150.96,101.53 L 152.42,102.02 L 154.87,102.82 L 152.80,102.31 L 150.91,101.98 L 147.09,101.41 L 145.27,101.28 L 142.87,101.13 L 141.52,101.06 L 140.96,101.05 L 139.00,101.04 L 138.37,101.12 L 137.32,101.34 L 137.02,101.55 L 136.54,102.04 L 136.40,102.41 L 136.42,104.11 L 137.18,105.12 L 137.96,105.57 L 138.80,106.01 L 139.32,106.21 L 140.43,106.62 L 141.09,106.82 L 142.49,107.20 L 143.29,107.38 L 144.97,107.74 L 145.92,107.91 L 151.08,109.18 L 154.60,110.35 L 156.37,111.09 L 159.91,112.65 L 161.66,113.57 L 162.59,114.08 L 159.17,112.44 L 156.76,111.36 L 151.66,109.58 L 143.63,107.47 L 142.37,107.21 L 140.31,106.77 L 139.34,106.56 L 137.80,106.21 L 137.09,106.04 L 136.01,105.72 L 135.51,105.57 L 134.79,105.26 L 134.47,105.10 L 134.05,104.75 L 133.87,104.57 L 133.67,104.15 L 133.50,102.43 L 133.50,99.50 M 174.30,112.22 L 175.41,113.03 L 175.64,113.22 L 174.69,112.51 L 173.71,111.80 M 172.10,110.66 L 172.25,110.77 L 171.59,110.34 M 191.08,107.94 L 192.44,109.19 L 193.75,110.56 L 192.71,109.53 L 188.81,105.92 M 171.06,110.02 L 171.27,110.14 L 170.96,109.96 M 169.04,108.82 L 169.07,108.84 L 168.97,108.78 M 162.55,105.69 L 162.74,105.86 L 162.49,105.66 M 175.60,96.29 L 176.35,96.68 L 178.30,97.94 L 179.36,98.65 L 182.02,100.60 L 182.73,101.13 L 184.30,102.33 L 185.28,103.09 L 180.78,99.71 L 179.27,98.65 L 178.59,98.19 L 177.27,97.32 L 176.69,96.97 L 175.60,96.31 L 175.27,96.13 M 170.00,94.24 L 170.69,94.54 L 172.15,95.07 L 173.18,95.38 L 173.00,95.45 L 173.00,95.60 L 172.63,95.77 L 172.09,95.53 L 171.75,95.26 L 170.17,94.36 L 169.12,93.88 M 142.34,93.00 L 143.84,93.12 L 145.10,93.31 L 145.84,93.45 L 149.06,94.14 L 150.91,94.63 L 152.68,95.13 L 150.69,94.58 L 148.83,94.10 L 145.55,93.43 L 144.79,93.29 L 143.46,93.11 L 141.84,93.00 M 141.00,85.64 L 142.79,85.68 L 146.38,86.12 L 147.30,86.27 L 149.24,86.69 L 150.24,86.93 L 152.38,87.53 L 153.49,87.86 L 155.91,88.67 L 157.17,89.10 L 159.95,90.15 L 161.39,90.70 L 164.60,91.99 L 166.50,92.78 L 165.30,92.30 L 164.08,91.85 L 161.57,90.93 L 160.27,90.49 L 157.68,89.61 L 156.44,89.21 L 154.00,88.46 L 152.92,88.15 L 150.87,87.60 L 150.07,87.42 L 148.65,87.15 L 148.25,87.15 L 145.42,86.97 L 143.69,86.72 L 143.20,86.56 L 141.17,86.49 L 139.95,86.96 L 139.48,87.39 L 138.64,88.35 L 138.45,88.94 L 138.24,90.17 L 138.44,90.83 L 138.93,91.86 L 139.38,92.36 L 139.68,92.53 L 140.35,92.81 L 140.79,92.89 L 141.74,93.00 L 140.29,93.00 L 137.82,92.71 L 136.69,92.51 L 135.05,91.82 L 134.33,91.43 L 133.51,90.34 L 133.18,88.25 L 133.26,87.56 L 133.49,86.67 L 133.65,86.28 L 134.41,85.86 L 134.65,85.78 L 135.32,85.68 L 135.70,85.64 L 136.67,85.61 L 137.20,85.59 L 138.53,85.60 M 201.47,219.61 L 202.74,217.80 L 205.19,214.16 L 206.31,212.29 L 208.45,208.52 L 209.40,206.60 L 211.06,203.06 L 211.05,203.10 L 210.27,204.94 L 208.52,208.49 L 207.62,210.24 L 205.60,213.64 L 204.56,215.32 L 202.26,218.60 L 201.07,220.23 L 198.47,223.43 L 194.20,228.18 L 198.70,223.11 M 116.65,146.78 L 116.50,147.50 L 116.50,147.43 Z" fill="rgba(41,50,180,1)"/>
<path d="M 139.42,254.64 L 135.85,254.78 L 139.81,254.59 M 50.03,172.30 L 50.37,172.35 L 50.98,172.69 L 51.27,172.90 L 51.80,173.58 L 52.06,173.97 L 52.54,175.03 L 52.77,175.61 L 53.20,177.07 L 53.42,177.85 L 53.83,179.73 L 54.43,183.05 L 54.64,184.30 L 55.06,186.56 L 55.27,187.66 L 55.72,189.69 L 56.17,191.68 L 57.30,195.30 L 57.91,197.10 L 59.52,200.84 L 59.96,201.82 L 60.97,203.90 L 62.70,207.31 L 63.27,208.39 L 64.86,210.85 L 65.73,212.12 L 67.82,214.86 L 68.92,216.24 L 71.39,219.11 L 72.66,220.54 L 75.36,223.40 L 76.73,224.82 L 79.53,227.53 L 80.93,228.86 L 83.71,231.30 L 85.08,232.47 L 87.70,234.49 L 91.30,236.90 L 92.14,237.40 L 94.28,238.48 L 95.41,239.02 L 97.99,240.16 L 100.65,241.30 L 106.57,243.50 L 108.05,244.02 L 110.94,244.98 L 112.36,245.43 L 115.02,246.20 L 116.30,246.56 L 118.56,247.09 L 121.30,247.55 L 123.47,247.76 L 127.08,248.10 L 128.77,248.26 L 131.53,248.50 L 132.81,248.61 L 134.82,248.76 L 135.75,248.82 L 137.14,248.89 L 137.52,248.90 L 136.87,249.00 L 135.68,249.00 L 134.02,249.10 L 132.68,249.26 L 131.94,249.38 L 128.78,249.94 L 127.17,250.32 L 123.98,251.10 L 122.67,251.51 L 121.42,251.92 L 120.92,252.12 L 120.02,252.50 L 119.73,252.67 L 119.36,253.28 L 119.38,253.81 L 119.54,254.07 L 119.70,254.20 L 119.75,254.21 L 117.54,253.90 L 115.97,253.66 L 113.00,253.03 L 111.26,252.63 L 107.43,251.54 L 105.50,250.97 L 101.70,249.67 L 99.86,249.02 L 96.62,247.70 L 95.88,247.38 L 94.58,246.77 L 93.00,245.92 L 92.79,245.80 L 91.98,245.34 L 91.52,245.09 L 90.32,244.43 L 85.98,242.11 L 85.22,241.71 L 83.27,240.45 L 82.24,239.76 L 79.95,238.08 L 78.79,237.21 L 76.45,235.31 L 73.19,232.47 L 71.23,230.66 L 67.70,227.01 L 66.00,225.17 L 62.92,221.41 L 61.44,219.50 L 58.80,215.55 L 57.53,213.55 L 55.27,209.34 L 54.19,207.20 L 52.29,202.67 L 51.38,200.36 L 49.80,195.43 L 49.05,192.91 L 47.75,187.52 L 46.09,178.83 L 45.91,177.76 L 45.74,176.27 L 45.69,175.60 L 45.82,174.70 L 45.92,174.30 L 46.43,173.71 L 47.69,172.90 L 48.14,172.66 L 48.95,172.38 L 49.34,172.28 M 168.15,247.21 L 167.44,247.50 L 169.73,246.45 M 189.55,232.78 L 188.00,234.23 L 184.86,236.86 L 183.29,238.14 L 180.07,240.46 L 178.45,241.58 L 175.12,243.61 L 173.43,244.59 L 171.73,245.45 L 173.37,244.53 L 178.29,241.60 L 180.67,239.93 L 185.35,236.44 L 187.61,234.48 L 191.02,231.37 M 116.10,239.58 L 117.61,239.83 L 120.78,240.28 L 122.52,240.43 L 126.09,240.68 L 127.97,240.74 L 128.19,240.74 L 126.54,240.75 L 125.53,240.75 L 123.77,240.70 L 122.92,240.66 L 121.40,240.54 L 119.91,240.40 L 117.17,239.86 L 115.76,239.54 L 114.56,239.19 M 161.65,235.11 L 159.08,236.22 L 156.56,237.27 L 154.36,237.91 L 161.87,235.00 M 84.44,215.43 L 84.97,215.63 L 86.34,216.34 L 87.06,216.73 L 88.70,217.77 L 91.26,219.58 L 92.70,220.67 L 95.79,222.70 L 97.36,223.69 L 100.68,225.51 L 102.35,226.39 L 105.83,227.98 L 107.58,228.74 L 111.15,230.07 L 112.95,230.70 L 116.56,231.74 L 118.37,232.23 L 120.35,232.64 L 120.17,232.62 L 119.94,232.64 L 119.59,232.73 L 119.56,232.85 L 119.61,233.13 L 119.77,233.35 L 120.43,234.75 L 120.55,235.68 L 120.47,236.06 L 120.21,236.76 L 119.95,236.95 L 119.36,237.21 L 118.95,237.10 L 117.64,236.84 L 116.46,236.68 L 115.77,236.60 L 112.81,236.32 L 111.32,236.23 L 109.85,236.15 L 109.20,236.13 L 107.95,236.10 L 107.45,236.10 L 106.57,236.12 L 106.32,236.16 L 106.08,236.22 L 104.23,235.42 L 101.30,234.12 L 95.46,231.07 L 94.04,230.29 L 91.37,228.71 L 90.07,227.92 L 87.74,226.37 L 86.63,225.61 L 84.78,224.17 L 82.67,222.21 L 82.12,221.60 L 81.49,220.14 L 81.25,219.40 L 81.22,217.95 L 81.28,217.25 L 81.83,216.13 L 83.26,215.18 L 83.50,215.14 M 123.75,233.31 L 127.26,233.73 L 131.46,233.94 L 129.64,233.89 L 127.17,233.77 L 126.01,233.64 L 123.75,233.31 L 123.68,233.30 M 140.45,233.17 L 139.76,233.25 L 142.85,232.66 M 146.27,231.94 L 145.42,232.12 L 147.21,231.65 M 190.17,212.07 L 189.13,213.42 L 186.81,216.10 L 185.62,217.44 L 183.10,220.04 L 181.82,221.33 L 179.17,223.76 L 177.84,224.95 L 175.15,227.13 L 173.81,228.17 L 171.18,230.00 L 169.47,231.02 L 169.56,230.97 L 174.12,227.92 L 176.33,226.12 L 180.76,222.30 L 183.03,220.03 L 187.84,214.86 L 190.38,211.80 M 136.23,220.13 L 136.09,220.57 L 135.85,221.55 L 135.74,222.25 L 135.72,224.77 L 135.86,225.44 L 135.97,225.69 L 136.22,226.13 L 136.38,226.23 L 136.67,226.35 L 136.53,226.34 L 135.25,225.97 L 134.63,225.72 L 133.66,224.94 L 133.00,223.75 L 133.00,223.25 L 133.63,222.16 L 134.02,221.62 L 135.21,220.62 L 135.85,220.16 L 136.42,219.88 M 154.56,222.09 L 151.95,223.27 L 146.84,224.97 L 146.50,225.07 L 147.04,224.90 L 152.23,223.08 L 154.84,221.91 L 157.13,220.84 M 157.59,220.62 L 158.66,220.06 L 161.07,218.74 L 162.16,218.05 L 159.76,219.56 M 149.30,216.25 L 149.16,216.30 L 149.37,216.22 M 155.43,213.48 L 151.36,215.43 L 149.65,216.11 L 151.49,215.36 L 155.54,213.41 L 155.58,213.39 M 193.06,208.08 L 192.19,209.39 L 191.40,210.43 L 191.95,209.67 L 193.16,207.92 M 111.49,199.74 L 112.97,200.58 L 116.06,202.23 L 117.75,202.99 L 120.74,204.26 L 118.63,203.42 L 117.26,202.85 L 114.79,201.64 L 113.59,201.03 L 111.41,199.69 L 110.36,199.01 L 109.79,198.56 M 113.18,140.13 L 112.86,140.66 L 112.47,141.13 L 111.55,142.19 L 110.89,142.88 L 109.46,144.37 L 108.59,145.23 L 105.48,148.50 L 103.81,150.48 L 103.14,151.44 L 101.88,153.35 L 101.36,154.35 L 100.39,156.38 L 99.97,157.50 L 98.42,162.62 L 97.79,166.04 L 97.66,167.74 L 97.54,171.13 L 97.67,172.80 L 98.05,176.12 L 98.43,177.74 L 99.31,180.94 L 99.93,182.49 L 101.30,185.54 L 102.16,187.00 L 104.00,189.86 L 105.10,191.20 L 107.41,193.83 L 108.74,195.04 L 110.85,197.04 L 111.91,198.12 L 112.27,198.53 L 112.87,199.25 L 113.01,199.48 L 113.18,199.84 L 113.10,199.88 L 112.84,199.88 L 112.56,199.73 L 111.90,199.35 L 111.42,199.01 L 110.36,198.24 L 109.68,197.71 L 108.25,196.54 L 107.39,195.81 L 103.96,192.87 L 103.52,192.32 L 102.79,191.34 L 101.44,189.19 L 99.53,185.64 L 98.70,183.95 L 97.44,180.54 L 96.88,178.84 L 96.16,175.43 L 95.86,173.72 L 95.66,170.33 L 95.63,168.64 L 95.95,165.29 L 96.18,163.63 L 97.02,160.36 L 97.50,158.74 L 98.86,155.57 L 99.60,154.00 L 101.47,150.96 L 104.85,146.57 L 105.82,145.47 L 107.63,143.61 L 108.53,142.73 L 110.22,141.28 L 110.95,140.69 L 111.29,140.70 L 112.32,140.37 L 112.88,140.06 M 107.84,197.02 L 107.53,196.76 L 107.41,196.64 M 116.45,194.37 L 117.43,194.70 L 117.74,194.76 L 118.59,194.86 L 119.05,194.90 L 120.23,194.95 L 120.87,194.97 L 122.45,194.99 L 125.32,195.00 L 116.38,195.00 L 116.37,194.27 M 128.18,195.00 L 128.08,195.00 L 133.33,194.58 M 133.55,194.56 L 133.52,194.57 L 134.14,194.50 M 134.82,194.43 L 134.80,194.43 L 135.59,194.31 M 141.16,193.06 L 139.88,193.44 L 141.16,193.06 M 203.40,178.46 L 203.29,179.86 L 202.99,182.42 L 202.67,184.92 L 201.61,189.43 L 200.99,191.67 L 200.46,193.02 L 201.57,189.29 L 202.02,187.23 L 202.83,183.04 L 203.10,180.84 L 203.51,176.89 M 144.78,191.37 L 143.59,191.97 L 142.97,192.25 L 144.72,191.38 L 145.06,191.19 M 116.22,170.11 L 116.50,186.48 L 119.50,187.04 L 122.50,187.60 L 119.25,189.32 L 118.26,189.85 L 116.88,191.12 L 116.60,191.44 L 116.34,191.89 L 116.13,174.50 L 116.09,169.92 L 116.08,167.12 L 116.09,165.86 L 116.11,163.42 L 116.11,163.31 M 148.11,189.10 L 147.23,189.74 L 148.65,188.60 M 155.59,179.64 L 154.95,180.82 L 153.57,183.14 L 152.76,184.23 L 151.06,186.33 L 150.70,186.68 L 152.48,184.56 L 153.54,183.19 L 155.22,180.17 L 155.99,178.63 M 124.92,178.34 L 125.22,178.52 L 125.87,178.91 L 126.29,179.15 L 127.20,179.64 L 127.75,179.93 L 129.91,180.99 L 130.87,181.31 L 132.74,181.81 L 133.47,181.85 L 131.22,181.97 L 129.81,181.99 L 127.42,181.70 L 126.90,181.60 L 126.09,181.31 L 125.73,181.15 L 125.34,180.75 L 124.95,180.14 L 124.55,179.19 L 124.42,178.76 L 124.51,178.17 L 124.55,178.07 M 157.04,175.89 L 156.59,177.15 L 156.00,178.62 L 157.08,175.37 L 157.48,173.92 M 128.29,177.85 L 127.94,177.91 L 127.65,177.90 L 127.98,177.90 L 128.30,177.84 M 127.12,177.87 L 127.12,177.87 L 126.88,177.83 M 128.98,174.45 L 128.96,174.98 L 128.91,175.96 L 128.87,176.32 L 128.76,176.98 L 128.68,177.20 L 128.41,177.65 L 128.69,177.17 L 128.76,176.94 L 128.86,176.28 L 128.91,175.91 L 128.96,174.94 L 128.98,174.41 L 128.99,173.06 L 129.00,170.57 L 128.99,173.09 M 157.63,173.29 L 157.55,173.62 L 157.72,172.21 M 157.99,167.26 L 157.99,167.78 L 157.89,166.62 M 156.93,161.70 L 157.36,163.52 L 157.49,164.31 L 156.55,160.89 M 125.67,144.97 L 128.94,145.17 L 129.10,145.19 L 124.00,145.18 L 123.17,145.22 L 121.77,145.29 L 121.12,145.33 L 120.03,145.41 L 119.02,145.50 L 117.76,145.77 L 117.24,145.93 L 116.74,146.40 L 116.50,147.43 L 116.50,148.06 L 117.21,149.06 L 119.31,150.11 L 120.14,150.33 L 121.50,150.84 L 122.13,151.10 L 123.10,151.66 L 123.54,151.95 L 124.11,152.51 L 124.35,152.78 L 124.52,153.29 L 124.55,153.53 L 124.31,153.94 L 124.14,154.13 L 123.48,154.39 L 123.10,154.50 L 122.02,154.56 L 119.91,154.37 L 117.01,153.91 L 117.22,153.77 L 117.34,153.40 L 117.34,153.10 L 117.30,152.44 L 117.22,152.00 L 117.03,151.06 L 116.87,150.49 L 116.36,147.72 L 116.32,146.94 L 116.35,146.65 L 116.42,146.12 L 116.51,145.99 L 117.07,145.55 L 117.69,145.32 L 118.10,145.23 L 120.03,144.95 L 121.32,144.91 L 124.09,144.89 M 143.25,147.57 L 144.33,147.95 L 145.36,148.33 L 145.77,148.52 L 146.53,148.92 L 146.80,149.12 L 148.53,150.53 L 147.54,149.83 L 144.93,148.47 L 143.57,147.83 L 141.48,147.14 M 171.56,138.91 L 171.83,139.26 L 171.50,138.85 M 141.94,121.51 L 142.79,121.73 L 144.59,122.23 L 145.61,122.53 L 147.71,123.15 L 148.79,123.49 L 153.54,125.27 L 156.57,126.69 L 158.00,127.50 L 160.82,129.19 L 162.14,130.14 L 164.74,132.09 L 165.96,133.15 L 168.33,135.34 L 169.43,136.51 L 170.34,137.54 L 169.14,136.22 L 168.01,135.05 L 165.59,132.88 L 164.35,131.83 L 161.70,129.90 L 160.34,128.97 L 157.47,127.30 L 156.00,126.51 L 152.92,125.13 L 148.07,123.40 L 146.78,123.02 L 144.62,122.37 L 143.61,122.05 L 141.93,121.51 L 141.82,121.48 M 166.79,116.52 L 170.15,118.72 L 171.75,119.92 L 174.90,122.38 L 176.37,123.68 L 179.24,126.34 L 180.54,127.73 L 183.05,130.55 L 183.06,130.56 L 180.56,127.75 L 179.26,126.36 L 176.40,123.71 L 174.93,122.41 L 171.79,119.95 L 170.19,118.75 L 166.83,116.55 L 166.06,116.06 M 187.62,124.57 L 190.23,127.82 L 187.58,124.52 M 185.68,122.38 L 186.15,122.91 L 185.66,122.36 M 141.18,114.48 L 141.33,114.73 L 141.19,115.96 L 140.52,117.03 L 139.98,117.52 L 138.63,118.96 L 138.13,119.75 L 138.09,120.01 L 137.61,119.78 L 136.77,119.01 L 136.18,117.65 L 136.12,117.37 L 136.25,116.84 L 136.35,116.58 L 136.74,116.10 L 137.20,115.64 L 138.75,114.94 L 139.60,114.63 L 141.21,114.41 M 180.28,117.05 L 182.19,118.92 L 180.19,116.97 M 165.09,115.45 L 165.11,115.46 L 164.44,115.09 M 175.79,113.33 L 176.59,113.98 L 175.64,113.22 M 172.51,110.93 L 173.71,111.80 L 172.25,110.77 M 171.48,110.27 L 171.59,110.34 L 171.27,110.14 M 169.46,109.03 L 170.96,109.96 L 169.07,108.84 M 163.00,106.08 L 163.14,106.26 L 164.09,106.77 L 166.00,107.50 L 166.76,107.74 L 168.54,108.57 L 168.97,108.78 L 168.14,108.39 L 166.39,107.63 L 165.65,107.45 L 163.78,106.78 L 163.00,106.29 L 163.00,106.10 L 162.85,105.96 M 145.73,107.88 L 145.73,107.88 L 144.97,107.74 L 144.95,107.74 M 140.96,101.05 L 141.52,101.06 L 142.87,101.13 L 145.27,101.28 L 147.09,101.41 L 150.91,101.98 L 152.80,102.31 L 156.33,103.17 L 157.17,103.40 L 158.69,103.88 L 159.41,104.12 L 160.65,104.62 L 161.23,104.87 L 162.13,105.36 L 162.44,105.62 L 161.93,105.33 L 161.46,105.12 L 160.42,104.67 L 159.79,104.43 L 158.47,103.95 L 157.75,103.72 L 154.79,102.88 L 153.12,102.57 L 152.30,102.54 L 150.61,102.55 L 149.61,102.67 L 147.47,102.99 L 146.08,103.26 L 143.56,103.83 L 142.06,104.24 L 141.44,104.45 L 140.32,104.87 L 139.95,105.06 L 139.36,105.43 L 139.31,105.57 L 139.67,106.09 L 140.40,106.49 L 140.97,106.69 L 142.24,107.10 L 143.04,107.30 L 144.37,107.61 L 143.29,107.38 L 142.49,107.20 L 141.09,106.82 L 140.43,106.62 L 139.32,106.21 L 138.80,106.01 L 137.96,105.57 L 137.18,105.12 L 136.42,104.11 L 136.40,102.41 L 136.54,102.04 L 137.02,101.55 L 137.32,101.34 L 138.37,101.12 L 139.00,101.04 M 121.45,204.54 L 123.00,205.08 L 121.45,204.54 M 148.79,115.75 L 147.92,115.45 L 146.23,114.90 L 145.49,114.68 L 144.75,114.49 L 144.99,114.50 L 145.47,114.59 L 147.00,115.06 L 147.84,115.33 L 149.89,116.11 L 156.74,119.09 L 150.68,116.46 Z" fill="rgba(36,53,202,1)"/>
<path d="M 135.10,136.19 L 138.28,136.64 L 139.84,137.06 L 142.93,138.03 L 144.42,138.70 L 147.39,140.18 L 148.82,141.10 L 151.63,143.08 L 152.97,144.25 L 155.60,146.72 L 156.84,148.14 L 160.40,152.92 L 162.16,156.15 L 162.77,157.88 L 163.81,161.45 L 164.09,163.44 L 164.49,167.60 L 164.49,170.00 L 164.47,172.54 L 164.43,174.00 L 164.40,174.65 L 164.19,177.02 L 163.99,178.03 L 163.50,179.97 L 163.10,180.96 L 162.21,183.02 L 161.57,184.28 L 158.30,189.44 L 155.58,192.75 L 154.04,194.25 L 150.88,197.10 L 149.23,198.27 L 145.91,200.39 L 144.30,201.09 L 138.71,202.74 L 134.68,203.25 L 132.57,203.22 L 128.31,202.95 L 126.15,202.52 L 121.83,201.48 L 119.71,200.66 L 117.12,199.73 L 115.65,199.26 L 115.09,199.11 L 114.09,198.87 L 113.82,198.86 L 113.44,198.90 L 113.52,199.03 L 113.84,199.69 L 113.86,199.97 L 113.79,200.02 L 113.58,200.07 L 113.39,200.02 L 112.99,199.88 L 113.10,199.88 L 113.18,199.84 L 113.01,199.48 L 112.87,199.25 L 112.27,198.53 L 111.91,198.12 L 110.85,197.04 L 108.74,195.04 L 107.41,193.83 L 105.10,191.20 L 104.00,189.86 L 102.16,187.00 L 101.30,185.54 L 99.93,182.49 L 99.31,180.94 L 98.43,177.74 L 98.05,176.12 L 97.67,172.80 L 97.54,171.13 L 97.66,167.74 L 97.79,166.04 L 98.42,162.62 L 99.97,157.50 L 100.39,156.38 L 101.36,154.35 L 101.88,153.35 L 103.14,151.44 L 103.81,150.48 L 105.48,148.50 L 108.59,145.23 L 109.46,144.37 L 110.89,142.88 L 111.29,142.46 L 111.20,142.81 L 111.51,142.80 L 111.86,142.59 L 112.50,141.76 L 112.56,141.09 L 112.53,141.05 L 112.86,140.66 L 113.14,140.20 L 114.11,140.20 L 115.16,140.01 L 115.83,139.84 L 118.80,138.97 L 120.43,138.33 L 125.35,136.81 L 128.63,136.21 L 130.26,136.10 L 133.50,136.03 M 108.86,197.04 L 108.53,196.79 L 108.25,196.54 M 122.22,143.16 L 120.53,143.28 L 119.88,143.39 L 118.72,143.65 L 118.40,143.84 L 117.88,144.38 L 118.20,144.65 L 118.73,144.74 L 119.34,144.83 L 119.75,144.86 L 120.64,144.93 L 120.66,144.93 L 120.03,144.95 L 118.10,145.23 L 117.69,145.32 L 117.07,145.55 L 116.51,145.99 L 116.42,146.12 L 116.35,146.65 L 116.32,146.94 L 116.36,147.72 L 116.87,150.49 L 117.03,151.06 L 117.22,152.00 L 117.30,152.44 L 117.34,153.10 L 117.34,153.40 L 117.22,153.77 L 116.86,154.00 L 116.78,154.00 L 116.64,154.35 L 116.58,154.58 L 116.46,155.39 L 116.41,155.85 L 116.31,157.09 L 116.27,157.76 L 116.20,159.41 L 116.17,160.29 L 116.13,162.35 L 116.11,163.42 L 116.09,165.86 L 116.08,167.12 L 116.09,169.92 L 116.13,174.50 L 116.38,195.00 L 128.18,195.00 L 133.55,194.56 L 134.14,194.50 L 133.41,194.58 L 127.84,195.05 L 125.07,195.07 L 121.03,195.16 L 119.04,195.26 L 118.41,195.34 L 117.38,195.52 L 117.23,195.63 L 117.17,195.87 L 117.50,196.01 L 118.17,196.20 L 118.72,196.27 L 119.98,196.39 L 120.78,196.43 L 122.48,196.48 L 123.45,196.48 L 125.46,196.46 L 126.53,196.43 L 130.92,196.24 L 133.01,196.07 L 135.06,195.88 L 135.99,195.77 L 137.76,195.53 L 138.50,195.39 L 140.33,194.82 L 141.78,194.19 L 142.59,193.77 L 145.98,191.83 L 147.72,190.65 L 151.15,188.17 L 152.58,186.93 L 153.94,185.71 L 154.49,185.14 L 155.50,184.03 L 155.83,183.54 L 158.44,178.45 L 159.56,174.77 L 159.80,172.92 L 160.05,169.26 L 159.84,167.56 L 159.56,165.90 L 159.33,165.12 L 158.82,163.62 L 158.47,162.95 L 157.25,160.87 L 156.90,160.38 L 156.76,160.23 L 156.51,160.00 L 156.44,160.00 L 156.39,160.54 L 155.36,158.35 L 154.91,157.53 L 153.81,155.94 L 153.24,155.16 L 151.88,153.62 L 151.17,152.86 L 149.55,151.36 L 146.80,149.12 L 146.53,148.92 L 145.77,148.52 L 145.36,148.33 L 144.33,147.95 L 143.25,147.57 L 140.48,146.89 L 139.44,146.66 L 139.92,146.74 L 141.30,146.89 L 141.62,146.82 L 141.88,146.72 L 141.91,146.63 L 141.89,146.44 L 141.76,146.31 L 141.43,146.03 L 141.14,145.87 L 140.47,145.51 L 140.00,145.30 L 137.89,144.61 L 136.11,144.21 L 135.09,144.03 L 130.74,143.43 L 128.48,143.27 L 126.23,143.15 L 125.18,143.13 L 123.12,143.12 M 153.60,183.12 L 152.79,184.20 L 151.09,186.31 L 150.13,187.26 L 148.14,189.09 L 147.05,189.88 L 144.81,191.37 L 143.61,191.96 L 141.16,193.06 L 141.16,193.06 L 143.59,191.97 L 144.78,191.37 L 147.02,189.89 L 148.11,189.10 L 150.10,187.28 L 151.06,186.33 L 152.76,184.23 L 153.57,183.14 L 154.44,181.68 M 133.94,158.67 L 134.14,158.94 L 134.69,159.51 L 135.18,159.81 L 136.28,160.42 L 137.02,160.70 L 139.26,162.22 L 140.62,163.78 L 141.18,164.74 L 142.18,166.76 L 142.50,167.83 L 143.00,170.01 L 143.00,171.07 L 142.73,172.42 L 142.29,173.39 L 141.97,173.89 L 140.44,175.90 L 139.42,176.80 L 137.28,178.51 L 136.17,179.08 L 135.06,179.60 L 134.53,179.75 L 133.48,180.00 L 129.82,180.00 L 130.53,171.25 L 130.88,167.75 L 131.17,165.61 L 131.32,164.70 L 131.64,163.02 L 131.80,162.43 L 132.10,161.42 L 132.24,161.25 L 132.73,160.31 L 132.53,160.00 L 132.16,160.00 L 132.10,160.03 L 132.42,159.73 L 133.57,158.81 L 133.98,158.52 M 128.29,177.86 L 127.94,177.91 L 127.25,177.88 L 127.94,177.91 L 128.29,177.85 M 127.12,177.87 L 126.50,177.76 L 127.12,177.87 M 128.99,173.40 L 128.98,174.67 L 128.96,175.17 L 128.91,176.08 L 128.86,176.43 L 128.76,177.04 L 128.68,177.25 L 128.31,177.83 L 128.68,177.20 L 128.76,176.98 L 128.87,176.32 L 128.91,175.96 L 128.96,174.98 L 128.98,174.45 L 128.99,173.09 L 129.00,170.57 L 129.00,171.05 M 142.93,177.01 L 142.77,177.20 L 143.04,176.82 M 144.98,171.08 L 144.97,171.10 L 144.98,170.96 M 129.81,162.83 L 129.34,164.92 L 129.21,166.30 L 129.00,169.18 L 129.01,168.22 L 129.03,167.52 L 129.07,166.35 L 129.13,165.25 L 129.42,163.72 L 129.60,163.04 L 129.90,162.53 M 144.87,167.91 L 144.91,168.56 L 144.69,167.16 M 139.03,159.52 L 140.03,160.03 L 141.65,161.44 L 142.40,162.19 L 143.52,163.96 L 144.01,164.88 L 144.63,166.89 L 144.69,167.14 L 144.45,166.35 L 143.89,164.75 L 143.48,163.97 L 141.91,161.89 L 140.47,160.54 L 139.65,159.96 L 138.76,159.39 M 157.37,163.10 L 157.60,164.20 L 157.69,164.86 L 157.86,166.50 L 157.36,163.52 L 157.02,162.10 M 129.19,145.18 L 131.55,145.31 L 132.59,145.40 L 134.56,145.58 L 135.32,145.68 L 136.66,145.89 L 137.00,146.00 L 138.93,146.55 L 135.75,146.01 L 134.09,145.75 L 130.65,145.35 L 128.99,145.18 M 112.68,139.23 L 111.70,139.71 L 111.36,139.92 L 110.79,140.30 L 110.68,140.45 L 110.61,140.69 L 110.35,140.69 L 110.29,140.62 L 110.55,140.36 L 110.74,140.21 L 111.43,139.82 L 111.82,139.61 L 112.86,139.15 L 114.14,138.63 M 112.81,140.10 L 112.32,140.36 L 112.30,140.17 L 112.71,140.07 M 115.89,137.96 L 114.65,138.42 L 114.69,138.41 L 115.90,137.95 Z" fill="rgba(54,71,216,1)"/>
<path d="M 131.31,254.99 L 129.77,254.99 L 126.92,254.92 L 125.55,254.87 L 125.54,254.87 L 126.92,254.91 L 128.50,254.91 L 131.77,254.89 L 133.47,254.85 L 136.47,254.75 M 140.48,254.56 L 137.59,254.70 L 138.49,254.65 L 141.13,254.49 M 119.43,253.88 L 119.38,253.81 L 119.36,253.28 L 119.73,252.67 L 119.38,253.30 M 164.08,91.85 L 165.30,92.30 L 167.49,93.18 L 168.52,93.60 L 170.17,94.36 L 171.75,95.26 L 172.09,95.53 L 172.63,95.77 L 173.00,95.60 L 173.00,95.45 L 173.25,95.36 L 173.42,95.35 L 173.98,95.52 L 174.30,95.64 L 175.15,96.07 L 175.60,96.31 L 176.69,96.97 L 177.27,97.32 L 178.59,98.19 L 179.27,98.65 L 180.78,99.71 L 185.87,103.53 L 188.27,105.41 L 192.71,109.53 L 194.86,111.64 L 198.79,116.20 L 200.68,118.54 L 204.08,123.54 L 208.58,131.50 L 209.60,133.57 L 211.39,137.76 L 212.24,139.86 L 213.70,144.10 L 214.38,146.22 L 215.50,150.48 L 216.01,152.61 L 216.79,156.89 L 217.14,159.03 L 217.58,163.30 L 217.77,165.44 L 217.88,169.70 L 217.90,171.83 L 217.69,176.07 L 217.54,178.18 L 217.00,182.38 L 216.69,184.47 L 215.82,188.60 L 215.35,190.66 L 214.16,194.73 L 213.53,196.75 L 212.02,200.73 L 211.23,202.71 L 209.40,206.60 L 208.45,208.52 L 206.31,212.29 L 205.19,214.16 L 202.74,217.80 L 201.47,219.61 L 198.70,223.11 L 194.20,228.18 L 192.06,230.42 L 187.61,234.48 L 185.35,236.44 L 180.67,239.93 L 178.29,241.60 L 173.37,244.53 L 170.87,245.93 L 165.71,248.29 L 163.09,249.41 L 157.67,251.22 L 154.94,252.05 L 149.27,253.31 L 147.58,253.64 L 147.98,253.50 L 148.10,253.41 L 149.23,252.80 L 150.48,252.26 L 151.29,251.95 L 153.01,251.31 L 153.98,250.98 L 155.97,250.31 L 157.00,249.99 L 166.21,246.44 L 172.11,243.48 L 174.93,241.71 L 180.47,237.98 L 183.09,235.83 L 188.22,231.36 L 190.62,228.85 L 196.15,222.45 L 197.70,220.42 L 198.34,219.51 L 199.53,217.77 L 199.96,217.07 L 200.69,215.78 L 200.85,215.37 L 201.02,214.71 L 200.86,214.66 L 200.67,214.67 L 200.50,214.75 L 200.12,214.98 L 199.86,215.18 L 199.29,215.65 L 198.93,215.98 L 198.16,216.71 L 197.69,217.18 L 194.57,220.18 L 192.30,222.26 L 191.11,223.31 L 186.18,227.53 L 183.69,229.50 L 181.22,231.43 L 180.02,232.33 L 177.66,234.06 L 176.56,234.84 L 174.42,236.30 L 173.46,236.91 L 171.62,238.04 L 170.85,238.44 L 169.22,239.21 L 169.30,239.15 L 170.15,238.62 L 172.08,237.28 L 174.09,235.88 L 178.56,232.46 L 180.79,230.71 L 184.92,227.24 L 185.88,226.41 L 187.55,224.88 L 189.53,222.89 L 191.49,220.77 L 195.00,216.27 L 196.70,213.98 L 199.71,209.13 L 201.16,206.65 L 203.70,201.38 L 207.01,192.98 L 207.42,191.76 L 208.08,189.25 L 208.38,187.96 L 208.85,185.07 L 209.06,183.54 L 209.38,179.95 L 209.45,179.00 L 209.57,176.91 L 209.73,173.46 L 209.81,171.60 L 209.84,168.12 L 209.83,166.41 L 209.70,163.19 L 209.53,160.01 L 208.65,154.17 L 208.11,151.29 L 206.44,145.69 L 202.93,137.04 L 201.98,134.99 L 199.65,130.93 L 198.43,128.91 L 195.62,124.96 L 194.16,123.01 L 190.95,119.25 L 189.30,117.40 L 185.76,113.90 L 183.96,112.19 L 180.16,109.01 L 178.24,107.47 L 174.26,104.70 L 172.25,103.37 L 168.17,101.06 L 162.00,98.20 L 160.36,97.56 L 157.07,96.45 L 157.65,96.64 L 162.45,98.25 L 165.00,99.18 L 171.85,102.22 L 176.18,104.72 L 178.31,106.27 L 182.58,109.59 L 184.78,111.63 L 187.01,113.74 L 188.15,114.90 L 190.47,117.30 L 191.68,118.61 L 194.58,121.79 L 196.23,123.62 L 196.92,124.42 L 198.24,125.94 L 198.79,126.61 L 199.83,127.89 L 200.26,128.48 L 201.81,130.67 L 202.39,131.70 L 203.46,133.79 L 203.98,135.00 L 204.98,137.35 L 205.66,138.95 L 205.89,139.50 L 206.39,140.67 L 206.85,141.75 L 207.13,142.38 L 208.32,145.12 L 208.92,146.50 L 210.47,150.77 L 210.84,152.08 L 210.96,152.63 L 211.14,153.66 L 211.15,154.00 L 211.26,155.31 L 211.41,156.41 L 211.52,157.03 L 212.03,159.62 L 212.34,160.81 L 213.47,165.12 L 214.28,162.01 L 214.46,159.80 L 214.33,157.87 L 214.16,156.71 L 213.74,154.30 L 213.44,152.95 L 212.77,150.20 L 212.36,148.74 L 210.50,142.73 L 209.35,139.75 L 208.16,136.80 L 207.54,135.40 L 206.26,132.66 L 205.60,131.42 L 201.34,124.06 L 198.35,119.51 L 196.77,117.40 L 193.56,113.31 L 191.86,111.43 L 188.40,107.77 L 186.57,106.10 L 182.84,102.86 L 180.87,101.40 L 176.85,98.56 L 174.73,97.28 L 170.40,94.83 L 168.12,93.73 L 163.46,91.64 L 161.91,91.06 M 153.19,244.83 L 151.83,245.19 L 149.18,245.87 L 147.98,246.14 L 145.69,246.62 L 144.75,246.77 L 143.00,247.00 L 142.81,247.00 L 144.27,246.79 L 145.09,246.66 L 147.17,246.23 L 148.27,246.00 L 150.75,245.41 L 152.02,245.10 L 154.19,244.54 M 320.66,245.00 L 320.53,245.00 L 319.92,244.85 M 322.04,244.83 L 321.34,244.95 L 322.22,244.70 M 332.28,244.91 L 332.00,244.84 L 331.73,244.73 L 331.61,244.58 M 334.04,244.83 L 334.01,244.84 L 334.08,244.80 M 319.12,244.62 L 319.10,244.61 L 319.07,244.58 M 323.64,230.48 L 324.59,231.10 L 325.02,231.49 L 325.62,232.73 L 326.00,235.18 L 326.00,236.03 L 326.28,237.11 L 326.37,237.32 L 326.60,237.53 L 327.00,237.50 L 327.14,237.42 L 327.39,237.03 L 327.51,236.80 L 327.71,236.20 L 328.00,233.94 L 328.00,233.30 L 328.10,232.40 L 328.17,232.00 L 328.50,231.50 L 328.70,231.30 L 329.37,231.10 L 330.88,231.00 L 331.71,231.00 L 332.92,231.39 L 333.46,231.66 L 334.17,232.80 L 334.32,233.14 L 334.55,234.01 L 334.66,234.48 L 334.80,235.63 L 334.87,236.24 L 334.94,237.69 L 334.99,240.25 L 334.99,241.27 L 334.93,242.56 L 334.92,242.25 L 334.72,240.67 L 334.60,240.47 L 334.54,240.48 L 334.41,240.58 L 334.34,240.75 L 333.57,241.63 L 332.81,242.00 L 332.42,242.00 L 331.42,242.44 L 331.01,243.08 L 330.85,241.25 L 330.82,240.50 L 330.76,239.51 L 330.73,239.10 L 330.65,238.79 L 330.61,238.71 L 330.50,239.05 L 330.28,240.25 L 330.20,240.82 L 329.96,241.64 L 329.82,242.00 L 329.40,242.47 L 329.16,242.68 L 328.46,242.89 L 327.00,243.00 L 326.37,243.00 L 325.48,242.89 L 325.09,242.80 L 324.56,242.43 L 324.33,242.20 L 324.03,241.45 L 323.72,239.75 L 323.64,239.05 L 323.51,238.20 L 323.45,237.87 L 323.36,237.81 L 323.32,237.88 L 323.26,238.64 L 323.16,240.75 L 323.13,241.62 L 323.00,242.88 L 322.92,243.45 L 322.90,243.51 L 322.61,242.76 L 322.21,242.34 L 321.23,241.51 L 320.50,241.18 L 319.20,240.65 L 318.61,240.51 L 318.52,240.54 L 318.70,237.64 L 318.81,236.58 L 319.07,234.91 L 319.22,234.14 L 319.58,232.96 L 319.78,232.43 L 320.28,231.67 L 321.21,230.89 L 321.86,230.54 L 323.07,230.44 M 349.58,242.39 L 349.58,242.39 L 349.58,242.37 M 353.75,233.35 L 354.00,235.50 L 354.08,236.40 L 354.29,237.87 L 354.40,238.54 L 354.65,239.54 L 354.79,239.99 L 355.07,240.54 L 355.21,240.75 L 355.51,240.84 L 355.65,240.83 L 355.94,240.47 L 356.07,240.26 L 356.02,240.41 L 355.83,240.77 L 355.42,241.42 L 355.19,241.63 L 354.70,241.99 L 354.43,242.05 L 353.86,242.10 L 353.55,242.01 L 352.90,241.76 L 352.55,241.52 L 351.83,240.97 L 351.43,240.58 L 350.34,238.57 L 350.08,236.99 L 350.17,236.24 L 350.48,234.82 L 350.84,234.35 L 351.22,233.92 L 351.45,233.80 L 351.96,233.62 L 352.25,233.64 L 353.52,233.26 L 353.69,233.01 M 107.77,237.07 L 108.45,237.30 L 109.92,237.79 L 110.78,238.06 L 112.57,238.60 L 113.53,238.87 L 115.65,239.41 L 116.91,239.63 L 119.55,240.06 L 121.00,240.23 L 125.26,240.62 L 122.52,240.43 L 120.78,240.28 L 117.61,239.83 L 116.10,239.58 L 113.53,238.93 L 112.57,238.65 L 110.78,238.09 L 109.92,237.82 L 108.45,237.32 L 107.77,237.08 L 106.78,236.70 L 106.03,236.32 L 106.78,236.70 M 356.34,239.46 L 356.31,239.56 L 356.35,239.42 M 168.14,108.39 L 169.04,108.82 L 171.06,110.02 L 172.10,110.66 L 174.30,112.22 L 175.41,113.03 L 177.70,114.88 L 180.00,116.78 L 184.46,121.12 L 185.53,122.22 L 187.54,124.47 L 190.23,127.82 L 191.49,129.52 L 193.74,132.97 L 194.82,134.71 L 196.70,138.23 L 197.60,140.01 L 199.14,143.63 L 199.86,145.46 L 201.05,149.21 L 201.60,151.11 L 202.45,155.00 L 202.83,156.97 L 203.34,161.04 L 203.56,163.10 L 203.75,167.36 L 203.67,174.00 L 203.56,176.36 L 203.10,180.84 L 202.83,183.04 L 202.02,187.23 L 201.57,189.29 L 200.40,193.24 L 199.76,195.18 L 198.20,198.93 L 197.37,200.79 L 195.39,204.39 L 194.35,206.17 L 191.95,209.67 L 190.70,211.42 L 187.84,214.86 L 183.03,220.03 L 180.76,222.30 L 176.33,226.12 L 174.12,227.92 L 169.56,230.97 L 167.23,232.41 L 162.22,234.86 L 153.88,238.10 L 152.68,238.50 L 149.78,239.17 L 149.18,239.29 L 151.26,238.69 L 154.28,237.59 L 155.84,236.91 L 159.00,235.47 L 160.62,234.65 L 163.86,232.92 L 165.48,231.96 L 171.97,227.90 L 175.05,225.60 L 178.08,223.27 L 179.52,222.05 L 182.34,219.60 L 183.65,218.34 L 186.19,215.38 L 188.00,212.82 L 188.92,211.32 L 190.79,208.16 L 191.71,206.42 L 193.55,202.86 L 194.42,200.98 L 197.80,193.30 L 199.11,189.56 L 200.34,185.86 L 200.82,184.13 L 201.68,180.75 L 201.94,179.25 L 202.28,176.13 L 202.37,173.71 L 202.35,172.38 L 202.12,166.77 L 201.80,163.82 L 201.02,157.91 L 200.46,155.22 L 199.88,152.60 L 199.55,151.43 L 198.88,149.18 L 198.52,148.24 L 197.03,144.42 L 196.15,142.21 L 195.76,141.25 L 195.01,139.43 L 194.69,138.65 L 194.06,137.19 L 193.78,136.57 L 193.25,135.42 L 193.01,134.95 L 192.56,134.07 L 192.36,133.72 L 191.60,132.53 L 191.27,132.18 L 190.37,131.00 L 190.00,130.25 L 190.00,130.02 L 189.78,129.25 L 189.42,128.58 L 189.15,128.18 L 187.82,126.39 L 186.87,125.29 L 184.79,123.00 L 183.56,121.75 L 181.01,119.20 L 179.65,117.93 L 176.88,115.39 L 175.52,114.21 L 172.82,111.93 L 171.59,110.97 L 169.23,109.21 L 168.26,108.61 L 167.34,108.06 L 167.13,107.95 M 381.65,236.30 L 381.94,236.49 L 382.49,236.92 L 382.68,237.19 L 383.00,237.76 L 383.00,238.06 L 382.89,238.55 L 382.72,238.72 L 382.32,239.00 L 382.06,239.00 L 381.19,238.68 L 380.67,238.22 L 380.49,237.94 L 380.17,237.34 L 380.13,237.05 L 380.15,236.51 L 380.33,236.33 L 381.05,236.13 M 349.00,235.10 L 349.00,235.07 L 349.06,233.40 M 349.09,232.94 L 349.12,232.41 L 349.12,232.40 M 349.49,230.77 L 349.35,231.25 L 349.15,232.24 L 349.31,231.30 L 349.42,230.82 L 349.77,230.29 L 349.92,230.23 M 137.90,226.62 L 139.39,226.61 L 140.32,226.48 L 142.29,226.16 L 143.40,225.90 L 145.72,225.30 L 146.96,224.92 L 147.69,224.67 L 147.04,224.90 L 145.79,225.29 L 143.46,225.91 L 142.34,226.18 L 140.36,226.51 L 139.43,226.63 L 137.93,226.64 L 137.26,226.59 L 136.38,226.23 L 137.24,226.58 M 179.69,212.57 L 178.72,213.74 L 178.33,214.24 L 177.62,215.17 L 177.41,215.50 L 176.21,216.77 L 174.92,217.84 L 174.09,218.45 L 172.32,219.72 L 171.29,220.40 L 169.18,221.78 L 168.04,222.48 L 166.69,223.28 L 168.15,222.41 L 169.28,221.70 L 171.40,220.31 L 172.42,219.62 L 174.19,218.33 L 175.03,217.71 L 176.32,216.61 L 177.55,215.28 L 177.78,214.93 L 178.45,214.04 L 178.80,213.58 L 179.63,212.59 L 181.14,210.96 M 190.76,143.02 L 192.60,146.92 L 193.25,148.61 L 193.85,150.26 L 194.06,150.97 L 194.43,152.33 L 194.50,152.86 L 194.78,154.36 L 195.07,155.71 L 195.25,156.49 L 196.06,159.85 L 196.50,161.50 L 197.53,167.09 L 197.68,168.89 L 197.69,169.72 L 197.66,171.32 L 197.58,172.00 L 197.12,175.70 L 196.84,177.96 L 196.71,178.99 L 196.20,182.84 L 195.96,184.42 L 195.50,187.37 L 195.27,188.56 L 194.80,190.78 L 194.55,191.67 L 194.04,193.33 L 193.74,194.00 L 193.13,195.28 L 192.77,195.83 L 191.16,197.87 L 190.02,198.98 L 187.89,201.47 L 187.39,202.22 L 187.24,202.54 L 187.00,203.12 L 187.00,203.30 L 186.68,204.17 L 186.18,205.00 L 185.82,205.51 L 184.09,207.73 L 183.34,208.52 L 183.63,208.17 L 184.11,207.53 L 185.14,206.00 L 186.17,204.40 L 188.30,200.42 L 189.35,198.36 L 191.29,193.90 L 193.65,187.33 L 193.88,186.57 L 194.27,184.59 L 194.46,183.53 L 194.77,181.05 L 194.92,179.75 L 195.14,176.91 L 195.25,175.45 L 195.38,172.39 L 195.49,169.31 L 195.41,163.11 L 195.36,161.60 L 195.19,158.77 L 194.80,154.93 L 194.70,154.17 L 194.32,152.49 L 194.10,151.63 L 193.52,149.77 L 192.88,147.87 L 191.10,143.77 L 190.72,142.94 M 211.64,187.00 L 210.07,191.20 L 209.02,194.33 L 208.57,195.83 L 207.73,198.71 L 207.46,199.83 L 207.22,200.88 L 207.15,201.28 L 207.04,201.99 L 207.05,202.19 L 207.15,202.77 L 207.30,202.74 L 207.66,202.48 L 207.90,202.11 L 208.43,201.20 L 208.74,200.57 L 209.37,199.19 L 209.70,198.39 L 211.03,194.93 L 211.56,193.19 L 212.06,191.48 L 212.24,190.72 L 212.54,189.25 L 212.59,188.68 L 213.08,183.50 M 186.97,155.36 L 187.48,157.50 L 187.72,158.62 L 188.07,161.15 L 188.23,162.45 L 188.42,165.25 L 188.50,166.67 L 188.53,169.62 L 188.52,172.57 L 188.03,178.40 L 187.87,179.80 L 187.42,182.44 L 186.58,186.00 L 186.16,187.43 L 184.98,190.39 L 184.35,191.88 L 182.78,194.91 L 181.96,196.43 L 180.07,199.45 L 179.09,200.96 L 178.53,201.73 L 180.13,199.26 L 180.82,198.01 L 182.10,195.55 L 182.58,194.37 L 183.42,192.06 L 183.66,191.00 L 184.25,188.43 L 184.72,186.50 L 184.98,185.50 L 185.49,183.51 L 185.73,182.57 L 186.22,180.76 L 186.44,180.00 L 187.14,176.95 L 187.51,174.73 L 187.64,173.56 L 188.05,168.71 L 188.05,166.28 L 187.93,161.48 L 187.67,159.36 L 187.38,157.31 L 187.18,156.40 L 186.83,154.97 M 184.18,148.34 L 184.79,149.85 L 184.05,148.05 M 182.35,144.49 L 183.48,146.85 L 182.17,144.16 M 181.35,142.69 L 181.79,143.47 L 181.16,142.36 M 179.29,139.18 L 181.07,142.21 L 179.09,138.89 M 178.17,137.55 L 178.79,138.45 L 177.98,137.29 M 175.87,134.37 L 177.83,137.09 L 175.71,134.17 M 174.63,132.90 L 174.90,133.22 L 174.57,132.83 M 172.08,130.04 L 173.74,131.90 L 171.98,129.94 M 167.93,126.20 L 169.08,127.25 L 167.87,126.15 M 163.39,122.83 L 164.30,123.49 L 163.36,122.81 M 158.48,119.93 L 159.61,120.58 L 158.46,119.92 M 164.20,106.93 L 163.87,106.82 L 163.78,106.78 M 163.77,106.77 L 163.38,106.57 L 163.23,106.46 L 163.17,106.39 M 160.42,104.67 L 161.46,105.12 L 161.93,105.33 L 162.59,105.70 L 163.00,106.10 L 163.00,106.13 L 162.59,105.72 L 161.93,105.34 L 161.46,105.13 L 160.42,104.67 L 159.79,104.43 L 158.47,103.95 L 159.79,104.43 M 150.17,94.42 L 151.15,94.69 L 152.21,94.99 L 150.91,94.63 L 149.34,94.21 M 143.90,93.11 L 145.17,93.30 L 145.92,93.44 L 147.48,93.76 L 148.35,93.97 L 148.93,94.11 L 145.84,93.45 L 145.10,93.31 L 143.84,93.12 L 142.34,93.00 M 148.65,87.15 L 148.65,87.15 L 148.25,87.15 M 349.89,243.27 L 350.03,243.63 L 350.03,243.63 M 357.94,230.13 L 357.77,230.56 L 357.45,231.58 L 357.33,232.38 L 357.11,234.20 L 357.00,235.49 L 356.73,237.70 L 356.49,238.95 L 356.36,239.40 L 356.49,238.95 L 356.72,237.68 L 357.00,235.27 L 357.11,234.04 L 357.33,232.29 L 357.45,231.51 L 357.77,230.53 L 357.95,230.12 L 358.45,229.71 L 359.50,229.50 L 358.44,229.71 Z" fill="rgba(66,63,186,1)"/>
<path d="M 201.02,214.71 L 200.85,215.37 L 200.69,215.78 L 199.96,217.07 L 199.53,217.77 L 198.34,219.51 L 197.70,220.42 L 196.15,222.45 L 190.62,228.85 L 188.22,231.36 L 183.09,235.83 L 180.47,237.98 L 174.93,241.71 L 172.11,243.48 L 166.21,246.44 L 157.00,249.99 L 155.97,250.31 L 153.98,250.98 L 153.01,251.31 L 151.29,251.95 L 150.48,252.26 L 149.23,252.80 L 148.10,253.41 L 147.98,253.50 L 147.48,253.67 L 147.19,253.76 L 146.37,253.91 L 145.49,254.07 L 142.98,254.33 L 141.63,254.46 L 138.49,254.65 L 136.87,254.74 L 133.47,254.85 L 131.77,254.89 L 128.50,254.91 L 126.92,254.91 L 124.15,254.83 L 122.87,254.78 L 120.99,254.59 L 120.60,254.53 L 120.04,254.40 L 119.81,254.33 L 119.60,254.16 L 119.43,253.88 L 119.38,253.30 L 119.73,252.67 L 120.02,252.50 L 120.92,252.12 L 121.42,251.92 L 122.67,251.51 L 123.98,251.10 L 127.17,250.32 L 128.78,249.94 L 131.94,249.38 L 132.68,249.26 L 134.02,249.10 L 135.68,249.00 L 136.87,249.00 L 138.73,248.71 L 139.12,248.62 L 139.66,248.39 L 140.00,248.00 L 140.00,247.72 L 140.70,247.29 L 142.39,247.00 L 143.00,247.00 L 144.75,246.77 L 145.69,246.62 L 147.98,246.14 L 149.18,245.87 L 151.83,245.19 L 153.19,244.83 L 156.03,244.00 L 158.88,243.14 L 164.37,241.22 L 165.66,240.74 L 167.97,239.79 L 170.85,238.44 L 171.62,238.04 L 173.46,236.91 L 174.42,236.30 L 176.56,234.84 L 177.66,234.06 L 180.02,232.33 L 181.22,231.43 L 183.69,229.50 L 186.18,227.53 L 191.11,223.31 L 192.30,222.26 L 194.57,220.18 L 197.69,217.18 L 198.16,216.71 L 198.93,215.98 L 199.29,215.65 L 199.86,215.18 L 200.12,214.98 L 200.50,214.75 L 200.67,214.67 L 200.86,214.66 M 153.12,102.57 L 154.79,102.88 L 157.75,103.72 L 158.47,103.95 L 159.79,104.43 L 160.42,104.67 L 161.46,105.13 L 161.93,105.34 L 162.59,105.72 L 163.00,106.13 L 163.00,106.23 L 163.23,106.46 L 163.38,106.57 L 163.87,106.82 L 165.95,107.49 L 166.23,107.55 L 166.96,107.87 L 167.34,108.06 L 168.26,108.61 L 169.23,109.21 L 171.59,110.97 L 172.82,111.93 L 175.52,114.21 L 176.88,115.39 L 179.65,117.93 L 181.01,119.20 L 183.56,121.75 L 184.79,123.00 L 186.87,125.29 L 187.82,126.39 L 189.15,128.18 L 189.42,128.58 L 189.78,129.25 L 190.00,130.02 L 190.00,130.25 L 190.37,131.00 L 191.27,132.18 L 191.60,132.53 L 192.36,133.72 L 192.56,134.07 L 193.01,134.95 L 193.25,135.42 L 193.78,136.57 L 194.06,137.19 L 194.69,138.65 L 195.01,139.43 L 195.76,141.25 L 196.15,142.21 L 197.03,144.42 L 198.52,148.24 L 198.88,149.18 L 199.55,151.43 L 199.88,152.60 L 200.46,155.22 L 201.02,157.91 L 201.80,163.82 L 202.12,166.77 L 202.35,172.38 L 202.37,173.71 L 202.28,176.13 L 201.94,179.25 L 201.68,180.75 L 200.82,184.13 L 200.34,185.86 L 199.11,189.56 L 197.80,193.30 L 194.42,200.98 L 193.55,202.86 L 191.71,206.42 L 190.79,208.16 L 188.92,211.32 L 188.00,212.82 L 186.19,215.38 L 183.65,218.34 L 182.34,219.60 L 179.52,222.05 L 178.08,223.27 L 175.05,225.60 L 171.97,227.90 L 165.48,231.96 L 163.86,232.92 L 160.62,234.65 L 159.00,235.47 L 155.84,236.91 L 154.28,237.59 L 151.26,238.69 L 147.00,239.92 L 146.04,240.14 L 143.68,240.47 L 142.44,240.62 L 139.64,240.81 L 136.76,240.97 L 130.34,240.90 L 127.13,240.80 L 121.00,240.23 L 119.55,240.06 L 116.91,239.63 L 115.65,239.41 L 113.53,238.87 L 112.57,238.60 L 110.78,238.06 L 109.92,237.79 L 108.45,237.30 L 107.77,237.07 L 106.78,236.70 L 106.03,236.32 L 105.96,236.25 L 106.32,236.16 L 106.57,236.12 L 107.45,236.10 L 107.95,236.10 L 109.20,236.13 L 109.85,236.15 L 111.32,236.23 L 112.81,236.32 L 115.77,236.60 L 116.46,236.68 L 117.64,236.84 L 118.95,237.10 L 119.36,237.21 L 119.95,236.95 L 120.21,236.76 L 120.47,236.06 L 120.55,235.68 L 120.43,234.75 L 119.77,233.35 L 119.61,233.13 L 119.56,232.85 L 119.59,232.73 L 119.94,232.64 L 120.17,232.62 L 120.97,232.72 L 122.71,233.07 L 123.75,233.31 L 126.01,233.64 L 127.17,233.77 L 129.64,233.89 L 132.16,233.96 L 137.66,233.50 L 140.45,233.17 L 146.27,231.94 L 155.00,229.27 L 155.83,228.96 L 157.81,228.08 L 158.83,227.60 L 161.07,226.46 L 163.34,225.26 L 168.04,222.48 L 169.18,221.78 L 171.29,220.40 L 172.32,219.72 L 174.09,218.45 L 174.92,217.84 L 176.21,216.77 L 177.41,215.50 L 177.62,215.17 L 178.33,214.24 L 178.72,213.74 L 179.69,212.57 L 182.99,208.89 L 184.09,207.73 L 185.82,205.51 L 186.18,205.00 L 186.68,204.17 L 187.00,203.30 L 187.00,203.12 L 187.24,202.54 L 187.39,202.22 L 187.89,201.47 L 190.02,198.98 L 191.16,197.87 L 192.77,195.83 L 193.13,195.28 L 193.74,194.00 L 194.04,193.33 L 194.55,191.67 L 194.80,190.78 L 195.27,188.56 L 195.50,187.37 L 195.96,184.42 L 196.20,182.84 L 196.71,178.99 L 196.84,177.96 L 197.12,175.70 L 197.58,172.00 L 197.66,171.32 L 197.69,169.72 L 197.68,168.89 L 197.53,167.09 L 196.50,161.50 L 196.06,159.85 L 195.25,156.49 L 195.07,155.71 L 194.78,154.36 L 194.50,152.86 L 194.43,152.33 L 194.06,150.97 L 193.85,150.26 L 193.25,148.61 L 192.60,146.92 L 190.76,143.02 L 189.78,141.05 L 187.55,137.14 L 184.15,132.00 L 183.05,130.55 L 180.54,127.73 L 179.24,126.34 L 176.37,123.68 L 174.90,122.38 L 171.75,119.92 L 170.15,118.72 L 166.79,116.52 L 165.09,115.45 L 161.60,113.54 L 159.84,112.63 L 156.28,111.06 L 154.50,110.33 L 150.95,109.15 L 145.73,107.88 L 144.75,107.70 L 143.04,107.30 L 142.24,107.10 L 140.97,106.69 L 140.40,106.49 L 139.67,106.09 L 139.31,105.57 L 139.36,105.43 L 139.95,105.06 L 140.32,104.87 L 141.44,104.45 L 142.06,104.24 L 143.56,103.83 L 146.08,103.26 L 147.47,102.99 L 149.61,102.67 L 150.61,102.55 L 152.30,102.54 M 142.44,114.02 L 143.50,114.20 L 144.07,114.31 L 145.49,114.68 L 146.23,114.90 L 147.92,115.45 L 148.79,115.75 L 150.68,116.46 L 156.74,119.09 L 158.46,119.92 L 161.72,121.80 L 163.31,122.77 L 166.32,124.95 L 167.79,126.08 L 170.55,128.58 L 171.91,129.86 L 174.43,132.67 L 175.66,134.11 L 177.95,137.24 L 179.07,138.85 L 181.13,142.31 L 182.13,144.09 L 183.98,147.88 L 186.50,153.97 L 186.76,154.67 L 187.18,156.40 L 187.38,157.31 L 187.67,159.36 L 187.93,161.48 L 188.05,166.28 L 188.05,168.71 L 187.64,173.56 L 187.51,174.73 L 187.14,176.95 L 186.44,180.00 L 186.22,180.76 L 185.73,182.57 L 185.49,183.51 L 184.98,185.50 L 184.72,186.50 L 184.25,188.43 L 183.66,191.00 L 183.42,192.06 L 182.58,194.37 L 182.10,195.55 L 180.82,198.01 L 180.13,199.26 L 178.48,201.80 L 177.62,203.07 L 175.67,205.60 L 174.67,206.86 L 172.49,209.29 L 171.38,210.49 L 169.04,212.74 L 167.86,213.83 L 165.42,215.82 L 161.74,218.40 L 160.71,219.04 L 158.38,220.29 L 157.19,220.90 L 154.66,222.05 L 152.10,223.17 L 146.96,224.92 L 145.72,225.30 L 143.40,225.90 L 142.29,226.16 L 140.32,226.48 L 139.39,226.61 L 137.90,226.62 L 137.24,226.58 L 136.38,226.23 L 136.22,226.13 L 135.97,225.69 L 135.86,225.44 L 135.72,224.77 L 135.74,222.25 L 135.85,221.55 L 136.09,220.57 L 136.23,220.13 L 136.65,219.58 L 136.88,219.35 L 137.58,219.12 L 139.07,219.00 L 139.62,219.00 L 141.02,218.80 L 141.76,218.67 L 143.47,218.24 L 145.24,217.76 L 149.30,216.25 L 151.36,215.43 L 155.43,213.48 L 160.76,210.37 L 161.74,209.69 L 163.75,208.09 L 164.75,207.26 L 166.73,205.42 L 168.71,203.52 L 172.38,199.26 L 174.13,197.10 L 177.03,192.73 L 177.68,191.65 L 178.77,189.57 L 180.02,186.62 L 180.59,184.98 L 181.45,181.68 L 181.84,180.03 L 182.35,176.72 L 182.56,175.07 L 182.74,171.77 L 182.78,170.12 L 182.63,166.86 L 182.52,165.24 L 182.05,162.03 L 181.78,160.43 L 181.00,157.30 L 180.58,155.75 L 179.51,152.72 L 178.94,151.23 L 177.59,148.32 L 176.88,146.89 L 175.26,144.13 L 174.42,142.77 L 172.53,140.18 L 171.56,138.91 L 169.43,136.51 L 168.33,135.34 L 165.96,133.15 L 164.74,132.09 L 162.14,130.14 L 160.82,129.19 L 158.00,127.50 L 156.57,126.69 L 153.54,125.27 L 148.79,123.49 L 147.71,123.15 L 145.61,122.53 L 144.59,122.23 L 142.79,121.73 L 141.94,121.51 L 140.63,121.20 L 139.45,121.00 L 138.94,121.00 L 138.35,120.75 L 138.13,120.59 L 138.08,120.05 L 138.13,119.75 L 138.63,118.96 L 139.98,117.52 L 140.52,117.03 L 141.19,115.96 L 141.33,114.73 L 141.18,114.48 L 141.31,114.19 L 141.43,114.07 L 142.07,114.02 M 134.37,134.52 L 135.32,134.53 L 136.93,134.58 L 138.47,134.65 L 140.81,134.97 L 141.92,135.17 L 143.95,135.85 L 147.46,137.43 L 149.30,138.33 L 152.74,140.60 L 154.41,141.81 L 157.45,144.64 L 158.91,146.12 L 161.48,149.41 L 164.69,154.78 L 165.31,156.04 L 166.18,158.11 L 166.56,159.12 L 167.03,161.14 L 167.22,162.20 L 167.41,164.79 L 167.44,165.51 L 167.48,167.15 L 167.50,170.00 L 167.50,171.41 L 167.41,173.94 L 167.34,175.17 L 167.09,177.38 L 166.95,178.46 L 166.51,180.45 L 166.26,181.42 L 165.61,183.26 L 165.25,184.17 L 164.34,185.95 L 163.85,186.84 L 162.65,188.63 L 162.02,189.54 L 160.50,191.44 L 157.83,194.49 L 156.96,195.45 L 155.21,197.15 L 154.34,197.97 L 152.56,199.41 L 150.78,200.79 L 147.00,202.80 L 145.05,203.70 L 140.79,204.83 L 139.69,205.07 L 137.35,205.39 L 133.61,205.66 L 131.38,205.74 L 127.15,205.61 L 126.19,205.55 L 124.61,205.39 L 123.90,205.30 L 123.00,205.08 L 121.20,204.46 L 117.75,202.99 L 116.06,202.23 L 112.97,200.58 L 111.49,199.74 L 108.96,198.00 L 106.00,195.41 L 102.50,191.62 L 107.39,195.81 L 108.53,196.79 L 110.47,198.28 L 111.36,198.94 L 112.68,199.72 L 112.97,199.87 L 113.39,200.02 L 113.58,200.07 L 113.79,200.02 L 113.86,199.97 L 113.84,199.69 L 113.52,199.03 L 113.44,198.90 L 113.82,198.86 L 114.09,198.87 L 115.09,199.11 L 115.65,199.26 L 117.12,199.73 L 119.71,200.66 L 121.83,201.48 L 126.15,202.52 L 128.31,202.95 L 132.57,203.22 L 134.68,203.25 L 138.71,202.74 L 144.30,201.09 L 145.91,200.39 L 149.23,198.27 L 150.88,197.10 L 154.04,194.25 L 155.58,192.75 L 158.30,189.44 L 161.57,184.28 L 162.21,183.02 L 163.10,180.96 L 163.50,179.97 L 163.99,178.03 L 164.19,177.02 L 164.40,174.65 L 164.43,174.00 L 164.47,172.54 L 164.49,170.00 L 164.49,167.60 L 164.09,163.44 L 163.81,161.45 L 162.77,157.88 L 162.16,156.15 L 160.40,152.92 L 156.84,148.14 L 155.60,146.72 L 152.97,144.25 L 151.63,143.08 L 148.82,141.10 L 147.39,140.18 L 144.42,138.70 L 142.93,138.03 L 139.84,137.06 L 138.28,136.64 L 135.10,136.19 L 133.50,136.03 L 130.26,136.10 L 128.63,136.21 L 125.35,136.81 L 120.43,138.33 L 118.80,138.97 L 115.83,139.84 L 115.16,140.01 L 114.11,140.20 L 113.10,140.20 L 112.71,140.07 L 112.30,140.17 L 112.38,140.80 L 112.56,141.09 L 112.50,141.76 L 111.86,142.59 L 111.51,142.80 L 111.20,142.81 L 111.35,142.24 L 111.53,141.95 L 111.45,141.36 L 110.77,140.76 L 110.60,140.70 L 110.68,140.45 L 110.79,140.30 L 111.36,139.92 L 111.70,139.71 L 112.68,139.23 L 114.52,138.47 L 115.89,137.96 L 118.25,136.84 L 118.76,136.58 L 119.54,136.11 L 120.21,135.55 L 120.32,135.40 L 121.26,135.13 L 121.83,135.00 L 123.59,134.79 L 124.56,134.70 L 126.99,134.58 L 131.21,134.50 L 132.38,134.50 M 212.59,188.68 L 212.54,189.25 L 212.24,190.72 L 212.06,191.48 L 211.56,193.19 L 211.03,194.93 L 209.70,198.39 L 209.37,199.19 L 208.74,200.57 L 208.43,201.20 L 207.90,202.11 L 207.66,202.48 L 207.30,202.74 L 207.15,202.77 L 207.05,202.19 L 207.04,201.99 L 207.15,201.28 L 207.22,200.88 L 207.46,199.83 L 207.73,198.71 L 208.57,195.83 L 209.02,194.33 L 210.07,191.20 L 211.64,187.00 L 213.08,183.50 M 156.76,160.23 L 156.90,160.38 L 157.25,160.87 L 158.47,162.95 L 158.82,163.62 L 159.33,165.12 L 159.56,165.90 L 159.84,167.56 L 160.05,169.26 L 159.80,172.92 L 159.56,174.77 L 158.44,178.45 L 155.83,183.54 L 155.50,184.03 L 154.49,185.14 L 153.94,185.71 L 152.58,186.93 L 151.15,188.17 L 147.72,190.65 L 145.98,191.83 L 142.59,193.77 L 141.78,194.19 L 140.33,194.82 L 138.50,195.39 L 137.76,195.53 L 135.99,195.77 L 135.06,195.88 L 133.01,196.07 L 130.92,196.24 L 126.53,196.43 L 125.46,196.46 L 123.45,196.48 L 122.48,196.48 L 120.78,196.43 L 119.98,196.39 L 118.72,196.27 L 118.17,196.20 L 117.50,196.01 L 117.17,195.87 L 117.23,195.63 L 117.38,195.52 L 118.41,195.34 L 119.04,195.26 L 121.03,195.16 L 125.07,195.07 L 127.84,195.05 L 133.41,194.58 L 134.73,194.44 L 137.06,194.07 L 139.88,193.44 L 141.16,193.06 L 143.61,191.96 L 144.81,191.37 L 147.05,189.88 L 148.14,189.09 L 150.13,187.26 L 151.09,186.31 L 152.79,184.20 L 153.60,183.12 L 154.96,180.78 L 155.60,179.59 L 156.60,177.08 L 157.05,175.81 L 157.63,173.19 L 157.99,169.18 L 157.99,167.72 L 157.69,164.86 L 157.60,164.20 L 157.37,163.10 L 156.96,161.93 L 156.68,161.40 L 156.38,160.57 L 156.44,160.00 L 156.51,160.00 M 137.20,158.55 L 137.99,158.90 L 139.65,159.96 L 140.47,160.54 L 141.91,161.89 L 143.48,163.97 L 143.89,164.75 L 144.45,166.35 L 144.69,167.15 L 144.94,168.77 L 145.02,169.58 L 144.97,171.17 L 144.91,171.96 L 144.56,173.48 L 144.36,174.23 L 143.74,175.64 L 143.39,176.32 L 142.50,177.58 L 142.03,178.18 L 140.89,179.24 L 138.90,180.55 L 137.97,181.03 L 136.22,181.60 L 135.35,181.82 L 133.62,181.86 L 132.74,181.81 L 130.87,181.31 L 129.91,180.99 L 127.75,179.93 L 127.20,179.64 L 126.29,179.15 L 125.87,178.91 L 125.22,178.52 L 124.92,178.34 L 124.52,178.05 L 124.35,177.92 L 124.19,177.73 L 124.09,177.56 L 124.63,177.49 L 126.50,177.76 L 127.12,177.87 L 127.94,177.91 L 128.29,177.86 L 128.68,177.25 L 128.76,177.04 L 128.86,176.43 L 128.91,176.08 L 128.96,175.17 L 128.98,174.67 L 128.99,173.40 L 129.00,171.05 L 129.00,169.26 L 129.21,166.30 L 129.34,164.92 L 129.81,162.83 L 130.08,161.90 L 130.80,160.72 L 132.16,160.00 L 132.53,160.00 L 132.73,160.31 L 132.24,161.25 L 132.10,161.42 L 131.80,162.43 L 131.64,163.02 L 131.32,164.70 L 131.17,165.61 L 130.88,167.75 L 130.53,171.25 L 129.82,180.00 L 133.48,180.00 L 134.53,179.75 L 135.06,179.60 L 136.17,179.08 L 137.28,178.51 L 139.42,176.80 L 140.44,175.90 L 141.97,173.89 L 142.29,173.39 L 142.73,172.42 L 143.00,171.07 L 143.00,170.01 L 142.50,167.83 L 142.18,166.76 L 141.18,164.74 L 140.62,163.78 L 139.26,162.22 L 137.02,160.70 L 136.28,160.42 L 135.18,159.81 L 134.69,159.51 L 134.14,158.94 L 133.94,158.67 L 134.05,158.27 L 135.05,158.00 L 135.66,158.00 M 143.20,86.56 L 143.69,86.72 L 145.42,86.97 L 148.25,87.15 L 148.70,87.15 L 150.26,87.44 L 151.13,87.62 L 153.34,88.20 L 154.49,88.53 L 157.05,89.34 L 161.00,90.72 L 163.46,91.64 L 168.12,93.73 L 170.40,94.83 L 174.73,97.28 L 176.85,98.56 L 180.87,101.40 L 182.84,102.86 L 186.57,106.10 L 188.40,107.77 L 191.86,111.43 L 193.56,113.31 L 196.77,117.40 L 198.35,119.51 L 201.34,124.06 L 205.60,131.42 L 206.26,132.66 L 207.54,135.40 L 208.16,136.80 L 209.35,139.75 L 210.50,142.73 L 212.36,148.74 L 212.77,150.20 L 213.44,152.95 L 213.74,154.30 L 214.16,156.71 L 214.33,157.87 L 214.46,159.80 L 214.28,162.01 L 213.47,165.12 L 212.34,160.81 L 212.03,159.62 L 211.52,157.03 L 211.41,156.41 L 211.26,155.31 L 211.15,154.00 L 211.14,153.66 L 210.96,152.63 L 210.84,152.08 L 210.47,150.77 L 208.92,146.50 L 208.32,145.12 L 207.13,142.38 L 206.85,141.75 L 206.39,140.67 L 205.89,139.50 L 205.66,138.95 L 204.98,137.35 L 203.98,135.00 L 203.46,133.79 L 202.39,131.70 L 201.81,130.67 L 200.26,128.48 L 199.83,127.89 L 198.79,126.61 L 198.24,125.94 L 196.92,124.42 L 196.23,123.62 L 194.58,121.79 L 191.68,118.61 L 190.47,117.30 L 188.15,114.90 L 187.01,113.74 L 184.78,111.63 L 182.58,109.59 L 178.31,106.27 L 176.18,104.72 L 171.85,102.22 L 165.00,99.18 L 162.45,98.25 L 157.65,96.64 L 155.32,95.88 L 151.15,94.69 L 150.17,94.42 L 148.35,93.97 L 147.48,93.76 L 145.92,93.44 L 145.17,93.30 L 143.90,93.11 L 142.34,93.00 L 141.74,93.00 L 140.79,92.89 L 140.35,92.81 L 139.68,92.53 L 139.38,92.36 L 138.93,91.86 L 138.44,90.83 L 138.24,90.17 L 138.45,88.94 L 138.64,88.35 L 139.48,87.39 L 139.95,86.96 L 141.17,86.49 M 125.18,143.13 L 126.23,143.15 L 128.48,143.27 L 130.74,143.43 L 135.09,144.03 L 136.11,144.21 L 137.89,144.61 L 140.00,145.30 L 140.47,145.51 L 141.14,145.87 L 141.43,146.03 L 141.76,146.31 L 141.89,146.44 L 141.91,146.63 L 141.88,146.72 L 141.62,146.82 L 141.30,146.89 L 139.92,146.74 L 139.14,146.61 L 137.00,146.00 L 136.66,145.89 L 135.32,145.68 L 134.56,145.58 L 132.59,145.40 L 131.55,145.31 L 129.19,145.18 L 125.50,145.07 L 124.62,145.06 L 123.10,145.02 L 122.39,145.00 L 121.19,144.96 L 120.64,144.93 L 119.75,144.86 L 119.34,144.83 L 118.73,144.74 L 118.20,144.65 L 117.88,144.38 L 118.40,143.84 L 118.72,143.65 L 119.88,143.39 L 120.53,143.28 L 122.22,143.16 L 123.12,143.12 Z" fill="rgba(58,62,200,1)"/>
<path d="M 318.67,244.33 L 318.48,244.15 L 318.20,243.33 L 318.00,241.85 L 318.00,241.46 L 318.09,240.95 L 318.15,240.73 L 318.44,240.56 L 318.61,240.51 L 319.20,240.65 L 320.50,241.18 L 321.23,241.51 L 322.21,242.34 L 322.61,242.76 L 322.93,243.59 L 323.00,243.98 L 322.60,244.59 L 321.17,245.00 L 320.66,245.00 L 319.68,244.80 L 319.22,244.68 M 331.00,243.50 L 331.00,243.09 L 331.42,242.44 L 332.42,242.00 L 332.81,242.00 L 333.57,241.63 L 334.34,240.75 L 334.41,240.58 L 334.54,240.48 L 334.60,240.47 L 334.72,240.67 L 334.92,242.25 L 334.94,242.78 L 334.86,243.57 L 334.80,243.93 L 334.56,244.42 L 334.41,244.63 L 333.96,244.87 L 333.00,245.00 L 332.44,245.00 L 331.58,244.56 L 331.22,244.29 M 350.20,243.80 L 350.03,243.63 L 349.73,242.85 L 349.58,242.40 L 349.35,241.16 L 349.24,240.50 L 349.09,238.94 L 349.00,236.42 L 349.00,235.10 L 349.07,233.20 L 349.12,232.36 L 349.35,231.25 L 349.49,230.77 L 349.94,230.21 L 350.94,229.73 L 351.52,229.58 L 352.39,229.51 L 352.78,229.51 L 353.33,229.79 L 353.57,229.97 L 353.84,230.62 L 354.00,232.06 L 354.00,232.57 L 353.52,233.26 L 352.25,233.64 L 351.96,233.62 L 351.45,233.80 L 351.22,233.92 L 350.84,234.35 L 350.48,234.82 L 350.17,236.24 L 350.08,236.99 L 350.34,238.57 L 351.43,240.58 L 351.83,240.97 L 352.55,241.52 L 352.90,241.76 L 353.55,242.01 L 353.86,242.10 L 354.43,242.05 L 354.70,241.99 L 355.19,241.63 L 355.42,241.42 L 355.83,240.77 L 356.02,240.41 L 356.34,239.46 L 356.49,238.95 L 356.73,237.70 L 357.00,235.49 L 357.11,234.20 L 357.33,232.38 L 357.45,231.58 L 357.77,230.56 L 357.94,230.13 L 358.44,229.71 L 359.50,229.50 L 359.93,229.50 L 360.55,229.69 L 360.82,229.84 L 361.20,230.46 L 361.36,230.84 L 361.58,232.08 L 361.81,234.84 L 361.86,235.74 L 361.85,237.35 L 361.83,238.12 L 361.66,239.48 L 361.56,240.12 L 361.24,241.23 L 361.06,241.75 L 360.57,242.63 L 360.30,243.04 L 359.64,243.69 L 359.28,243.99 L 358.43,244.43 L 357.99,244.62 L 356.95,244.86 L 355.18,245.00 L 354.14,245.00 L 352.16,244.65 L 351.71,244.54 L 350.96,244.27 L 350.63,244.12 M 376.12,244.10 L 375.54,243.73 L 375.16,242.98 L 375.08,242.61 L 375.54,242.00 L 375.86,241.72 L 376.96,241.42 L 379.10,241.52 L 379.60,241.63 L 380.39,241.73 L 380.76,241.76 L 381.29,241.72 L 381.52,241.68 L 381.79,241.50 L 381.89,241.39 L 381.89,241.09 L 381.86,240.93 L 381.60,240.53 L 381.44,240.32 L 380.93,239.83 L 378.43,238.09 L 377.77,237.70 L 376.77,236.99 L 376.32,236.64 L 375.72,235.96 L 375.47,235.62 L 375.22,234.92 L 375.18,233.78 L 375.29,233.04 L 376.15,231.72 L 376.67,231.10 L 378.12,230.14 L 378.90,229.72 L 380.66,229.28 L 383.32,229.37 L 383.79,229.48 L 384.54,229.79 L 384.89,229.95 L 385.39,230.31 L 385.82,230.68 L 385.95,231.49 L 385.89,231.89 L 385.05,232.58 L 382.75,233.23 L 379.50,233.59 L 382.48,234.86 L 383.39,235.25 L 384.80,236.18 L 385.44,236.67 L 386.32,237.75 L 386.70,238.30 L 387.08,239.43 L 387.21,240.00 L 387.09,241.10 L 386.98,241.63 L 386.40,242.61 L 386.05,243.08 L 385.02,243.86 L 384.45,244.21 L 382.98,244.69 L 380.32,244.98 L 379.54,244.98 L 377.92,244.72 L 377.16,244.56 M 383.00,238.06 L 383.00,237.76 L 382.68,237.19 L 382.49,236.92 L 381.94,236.49 L 381.65,236.30 L 381.05,236.13 L 380.33,236.33 L 380.15,236.51 L 380.13,237.05 L 380.17,237.34 L 380.49,237.94 L 380.67,238.22 L 381.19,238.68 L 382.06,239.00 L 382.32,239.00 L 382.72,238.72 L 382.89,238.55 M 399.21,237.25 L 399.24,236.38 L 399.31,234.91 L 399.34,234.22 L 399.42,233.09 L 399.47,232.56 L 399.57,231.73 L 399.63,231.34 L 399.78,230.76 L 399.93,230.22 L 400.42,229.73 L 401.50,229.50 L 401.95,229.50 L 402.58,229.73 L 402.86,229.91 L 403.22,230.76 L 403.30,231.02 L 403.43,231.73 L 403.48,232.11 L 403.58,233.09 L 403.62,233.62 L 403.69,234.91 L 403.79,237.25 L 403.83,238.22 L 403.88,239.81 L 403.91,240.55 L 403.92,241.73 L 403.92,242.27 L 403.88,243.10 L 403.84,243.48 L 403.72,244.03 L 403.58,244.51 L 402.99,244.88 L 401.50,245.00 L 400.85,245.00 L 400.01,244.88 L 399.65,244.76 L 399.28,244.03 L 399.20,243.79 L 399.12,243.10 L 399.09,242.73 L 399.08,241.73 L 399.08,241.18 L 399.12,239.81 L 399.14,239.06 M 417.60,243.11 L 417.29,242.76 L 416.82,241.97 L 416.62,241.55 L 416.35,240.54 L 416.23,240.00 L 416.14,238.70 L 416.19,236.36 L 416.26,235.31 L 416.45,233.77 L 416.57,233.09 L 416.95,232.11 L 417.18,231.67 L 417.88,231.02 L 419.42,230.12 L 420.43,229.64 L 422.25,229.28 L 424.92,229.64 L 425.77,229.94 L 426.79,230.58 L 427.20,230.90 L 427.33,231.54 L 427.29,231.84 L 426.54,232.38 L 424.44,233.01 L 423.79,233.12 L 422.89,233.39 L 422.49,233.55 L 422.00,234.02 L 421.79,234.30 L 421.59,235.15 L 421.50,237.01 L 421.50,237.75 L 421.59,238.82 L 421.66,239.29 L 421.95,239.93 L 422.13,240.20 L 422.71,240.53 L 424.00,240.83 L 424.86,240.95 L 426.18,241.36 L 426.77,241.59 L 427.49,242.16 L 427.77,242.45 L 427.80,243.09 L 426.99,244.03 L 426.36,244.42 L 424.72,244.84 L 423.86,244.99 L 422.03,244.92 L 421.13,244.83 L 419.48,244.33 L 418.71,244.02 M 454.07,243.59 L 453.69,243.12 L 453.50,242.35 L 453.50,241.99 L 454.00,241.50 L 454.32,241.29 L 455.39,241.15 L 457.50,241.41 L 457.98,241.53 L 458.76,241.63 L 459.13,241.66 L 459.67,241.60 L 459.92,241.56 L 460.22,241.36 L 460.35,241.26 L 460.41,240.96 L 460.42,240.65 L 459.70,239.84 L 457.54,238.58 L 456.80,238.27 L 455.74,237.71 L 455.27,237.43 L 454.66,236.81 L 454.40,236.48 L 454.14,235.65 L 454.00,234.03 L 454.00,233.07 L 454.63,231.52 L 455.03,230.81 L 456.32,229.83 L 457.03,229.42 L 458.78,229.12 L 461.72,229.57 L 462.54,229.86 L 463.55,230.51 L 463.95,230.83 L 464.12,231.47 L 464.10,231.78 L 463.44,232.29 L 461.53,232.82 L 460.81,232.91 L 459.81,233.31 L 459.39,233.53 L 459.06,234.04 L 458.98,234.29 L 459.37,234.71 L 460.85,235.00 L 461.39,235.00 L 462.56,235.50 L 463.15,235.82 L 464.23,236.77 L 464.74,237.28 L 465.50,238.45 L 466.00,240.17 L 466.00,240.68 L 465.60,241.62 L 465.34,242.07 L 464.52,242.88 L 464.07,243.26 L 462.94,243.90 L 462.36,244.20 L 461.06,244.63 L 460.40,244.82 L 459.04,245.02 L 458.37,245.08 L 457.08,245.01 L 456.46,244.93 L 455.37,244.55 L 454.86,244.32 M 481.48,243.98 L 481.31,243.69 L 481.23,242.38 L 481.50,240.00 L 481.71,239.07 L 481.79,237.33 L 481.78,236.50 L 481.47,235.10 L 481.28,234.46 L 480.64,233.57 L 479.36,233.00 L 478.93,233.00 L 478.38,232.53 L 478.18,231.37 L 478.23,231.08 L 478.79,230.61 L 479.12,230.40 L 480.12,230.07 L 481.19,229.77 L 483.99,229.60 L 485.38,229.58 L 487.86,229.98 L 488.39,230.12 L 489.19,230.50 L 489.80,231.24 L 489.88,231.65 L 489.41,232.46 L 488.05,233.28 L 487.61,233.39 L 486.99,233.75 L 486.71,233.98 L 486.37,234.72 L 486.22,235.15 L 486.07,236.49 L 486.00,239.41 L 486.00,240.62 L 485.93,242.34 L 485.88,243.09 L 485.66,244.03 L 485.53,244.42 L 485.08,244.81 L 484.06,245.00 L 483.53,245.00 L 482.50,244.70 L 482.04,244.51 M 504.22,243.75 L 504.08,243.58 L 503.77,242.82 L 503.61,242.38 L 503.29,241.20 L 502.49,236.84 L 502.33,235.56 L 502.18,233.76 L 502.13,232.97 L 502.24,231.91 L 502.34,231.44 L 502.79,230.82 L 503.91,230.05 L 504.54,229.71 L 505.43,229.48 L 505.82,229.45 L 506.35,230.02 L 506.47,230.23 L 506.65,230.83 L 506.74,231.16 L 506.88,232.05 L 506.95,232.53 L 507.06,233.73 L 507.22,235.92 L 507.27,236.77 L 507.46,238.14 L 507.56,238.76 L 507.82,239.68 L 507.95,240.08 L 508.26,240.56 L 508.41,240.74 L 508.74,240.79 L 508.90,240.75 L 509.21,240.37 L 509.36,240.12 L 509.64,239.31 L 509.77,238.85 L 509.98,237.62 L 510.20,235.32 L 510.23,234.63 L 510.30,233.50 L 510.34,232.97 L 510.43,232.11 L 510.52,231.30 L 510.83,230.36 L 511.01,229.98 L 511.61,229.64 L 513.00,229.50 L 513.58,229.50 L 514.38,229.64 L 514.73,229.75 L 515.17,230.31 L 515.35,230.67 L 515.57,231.92 L 515.81,234.84 L 515.86,235.75 L 515.85,237.36 L 515.83,238.14 L 515.67,239.49 L 515.56,240.14 L 515.24,241.25 L 515.06,241.77 L 514.56,242.64 L 514.29,243.05 L 513.62,243.70 L 513.26,244.00 L 512.40,244.43 L 511.95,244.63 L 510.90,244.86 L 509.10,245.00 L 508.04,245.00 L 506.08,244.63 L 505.63,244.52 L 504.92,244.24 L 504.60,244.09 M 529.00,237.63 L 529.00,230.00 L 533.81,230.00 L 535.29,230.00 L 537.58,230.30 L 538.62,230.51 L 540.16,231.30 L 540.84,231.77 L 541.76,233.16 L 542.62,236.03 L 542.72,236.69 L 542.77,237.89 L 542.77,238.48 L 542.59,239.53 L 542.47,240.04 L 542.06,240.94 L 541.83,241.38 L 541.19,242.14 L 540.84,242.50 L 539.97,243.11 L 539.50,243.40 L 538.40,243.87 L 537.81,244.09 L 536.47,244.42 L 534.19,244.76 L 529.00,245.25 L 529.00,237.63 M 537.59,238.49 L 537.75,237.88 L 537.68,236.60 L 537.60,235.97 L 537.15,234.83 L 536.89,234.29 L 536.16,233.51 L 534.88,233.00 L 534.76,233.00 L 534.54,233.32 L 534.43,233.52 L 534.26,234.17 L 534.00,237.00 L 534.00,237.58 L 534.11,238.56 L 534.18,239.03 L 534.41,239.77 L 534.54,240.11 L 534.86,240.61 L 535.03,240.82 L 535.40,241.05 L 535.59,241.13 L 535.99,241.07 L 536.19,241.01 L 536.59,240.67 L 536.78,240.46 L 537.14,239.81 L 537.31,239.45 M 555.00,237.68 L 555.00,236.18 L 555.07,233.95 L 555.12,232.95 L 555.33,231.57 L 555.45,230.97 L 555.83,230.22 L 556.64,229.58 L 557.09,229.41 L 557.88,229.22 L 558.53,229.23 L 558.57,229.26 L 558.66,229.92 L 558.71,230.34 L 558.81,231.62 L 558.87,232.33 L 558.98,234.07 L 559.14,237.00 L 559.18,237.89 L 559.25,239.37 L 559.27,240.07 L 559.29,241.19 L 559.29,241.71 L 559.26,242.53 L 559.23,242.91 L 559.13,243.47 L 559.00,243.99 L 558.50,244.47 L 557.25,244.82 L 556.71,244.90 L 555.99,244.84 L 555.67,244.75 L 555.31,244.05 L 555.24,243.82 L 555.14,243.17 L 555.10,242.81 L 555.05,241.86 L 555.03,241.34 L 555.01,240.05 L 555.00,239.36 M 573.73,243.25 L 573.28,242.75 L 572.59,241.58 L 572.29,240.98 L 571.88,239.66 L 571.54,238.33 L 571.64,235.56 L 571.73,234.89 L 572.10,233.61 L 572.31,233.00 L 572.91,231.89 L 573.24,231.37 L 574.06,230.52 L 575.54,229.62 L 576.49,229.26 L 578.31,229.13 L 579.20,229.15 L 580.86,229.68 L 581.66,230.02 L 583.05,231.07 L 583.71,231.64 L 584.76,233.07 L 585.23,233.82 L 585.84,235.48 L 586.08,236.32 L 586.16,238.08 L 586.13,238.95 L 585.60,240.66 L 584.00,243.00 L 583.37,243.63 L 581.64,244.44 L 580.73,244.76 L 578.73,244.97 L 577.74,244.99 L 575.90,244.58 L 575.03,244.29 M 581.00,237.96 L 581.00,237.24 L 580.80,235.98 L 580.68,235.38 L 580.26,234.41 L 580.03,233.96 L 579.44,233.37 L 578.39,233.00 L 578.21,233.00 L 577.89,233.30 L 577.74,233.50 L 577.48,234.11 L 577.24,234.79 L 576.99,236.67 L 576.90,237.62 L 577.01,239.46 L 577.06,239.89 L 577.25,240.59 L 577.66,241.32 L 577.91,241.58 L 578.61,241.51 L 578.97,241.40 L 579.71,240.78 L 580.06,240.42 L 580.62,239.48 L 580.85,238.99 Z" fill="rgba(92,49,139,1)"/>
</g>
</svg>