<svg xmlns="http://www.w3.org/2000/svg" width="499" height="498" viewBox="0 0 499 498">
<g>
<path d="M 169.02,385.02 L 170.00,385.35 L 170.52,385.48 L 170.92,385.55 L 171.78,385.67 L 172.30,385.72 L 172.46,385.73 L 171.47,385.68 L 170.83,385.62 L 170.00,385.42 L 168.92,385.01 L 167.79,384.49 M 195.66,379.20 L 192.50,380.16 L 187.60,381.45 L 186.17,381.75 L 185.60,381.85 L 184.56,381.99 L 184.25,381.99 L 182.89,382.18 L 182.28,382.46 L 182.14,382.67 L 181.96,383.13 L 182.05,383.41 L 182.34,384.00 L 182.67,384.33 L 183.33,384.78 L 183.86,384.88 L 184.65,384.95 L 180.08,385.42 L 179.05,385.52 L 179.45,385.31 L 179.55,385.15 L 179.63,384.81 L 179.53,384.63 L 179.21,384.25 L 178.91,384.06 L 178.21,383.69 L 177.72,383.51 L 176.67,383.17 L 176.01,383.03 L 174.61,382.76 L 173.79,382.66 L 172.45,382.35 L 172.91,382.38 L 173.50,382.40 L 174.88,382.41 L 177.33,382.39 L 179.41,382.36 L 183.58,381.94 L 185.67,381.66 L 189.84,380.76 L 191.91,380.26 L 196.04,378.92 L 197.90,378.27 M 166.39,383.81 L 166.36,383.79 L 166.12,383.63 M 192.73,383.41 L 191.98,383.63 L 191.97,383.63 L 192.74,383.41 M 164.51,382.50 L 164.45,382.46 L 164.14,382.13 M 163.52,381.47 L 163.48,381.42 L 163.20,380.99 M 202.24,379.95 L 201.45,380.24 L 205.19,378.53 M 164.58,377.66 L 166.46,379.91 L 165.32,379.05 L 164.81,378.38 L 164.35,377.70 L 164.21,377.35 L 164.00,376.67 L 164.00,376.49 M 161.96,378.96 L 161.68,378.42 L 161.58,378.04 M 225.43,364.80 L 219.99,369.27 L 217.22,371.42 L 211.37,375.19 L 208.40,376.98 L 206.10,378.09 L 208.43,376.80 L 213.49,373.81 L 215.95,372.11 L 220.80,368.59 L 223.11,366.66 L 227.21,363.06 M 204.81,375.28 L 201.78,376.65 L 198.87,377.86 L 202.14,376.45 L 204.15,375.53 L 208.02,373.44 M 163.68,372.12 L 163.47,373.16 L 163.59,375.04 L 163.69,375.67 L 163.56,375.39 L 162.91,375.00 L 162.50,375.00 L 161.44,375.26 L 161.08,375.72 L 161.07,376.10 L 161.08,376.18 L 161.02,375.94 L 160.78,374.69 L 160.83,372.13 L 160.94,370.85 L 161.06,370.43 L 161.08,371.19 L 161.29,371.51 L 161.87,372.00 L 162.39,372.00 L 163.56,371.25 L 164.18,370.26 M 175.87,372.41 L 175.69,372.70 L 175.40,373.11 L 175.10,373.44 L 174.78,373.63 L 174.30,373.78 L 174.09,373.82 L 173.81,373.66 L 173.70,373.54 L 173.64,373.20 L 173.81,373.44 L 173.97,373.54 L 174.28,373.67 L 174.46,373.63 L 174.85,373.47 L 175.07,373.26 L 175.54,372.77 L 175.82,372.38 L 176.35,371.62 M 213.47,370.22 L 210.61,371.96 L 210.20,372.20 L 213.86,369.82 L 215.61,368.63 M 168.11,363.80 L 167.39,364.65 L 166.17,366.33 L 164.81,368.71 L 164.35,369.76 L 164.43,369.44 L 165.39,367.32 L 166.47,365.70 L 167.18,364.84 L 168.68,363.09 L 169.53,362.22 L 170.19,361.56 M 174.86,368.62 L 175.08,368.08 L 175.78,366.53 L 177.03,363.94 L 175.49,367.18 M 228.84,357.14 L 226.45,359.51 L 221.52,364.13 L 218.87,366.21 L 216.02,368.33 L 219.37,365.75 L 221.17,364.31 L 224.60,361.23 L 226.28,359.66 L 229.48,356.32 L 230.19,355.54 M 164.34,363.25 L 163.40,364.65 L 163.49,364.48 L 164.26,363.23 L 164.96,362.38 M 180.45,364.07 L 180.38,364.19 L 180.50,363.96 M 165.17,362.12 L 166.23,360.83 L 166.30,360.75 M 286.69,359.23 L 287.59,359.25 L 288.64,359.20 L 288.64,359.20 L 288.12,359.28 L 287.23,359.28 L 286.36,359.24 L 285.86,359.03 M 287.00,348.74 L 286.45,349.76 L 285.59,351.93 L 285.41,352.44 L 285.16,353.34 L 285.00,354.37 L 285.00,354.77 L 285.30,355.33 L 285.49,355.58 L 286.17,355.84 L 286.56,355.93 L 287.37,355.90 L 285.18,356.32 L 283.87,356.81 L 283.60,357.09 L 283.40,357.37 L 283.40,357.42 L 283.05,357.03 L 282.18,354.73 L 281.98,352.96 L 282.07,353.00 L 282.08,353.20 L 282.28,353.81 L 282.55,353.51 L 282.74,353.00 L 283.20,352.21 L 283.68,351.54 L 283.99,351.16 L 285.39,349.58 L 286.17,348.85 L 287.89,346.92 M 278.06,355.07 L 277.03,355.90 L 275.80,356.55 L 277.27,355.59 L 278.25,354.83 L 279.32,354.06 M 266.64,356.51 L 266.52,356.33 L 266.47,355.99 M 178.48,355.27 L 178.75,355.14 L 178.81,355.12 M 180.52,355.19 L 180.52,355.19 L 180.32,354.98 L 179.56,354.99 L 180.27,354.93 M 173.22,355.01 L 174.20,354.38 L 175.25,353.84 M 179.29,355.01 L 179.30,355.01 L 179.30,355.01 M 266.41,353.75 L 266.31,354.92 L 266.31,354.89 L 266.28,354.14 L 266.46,353.42 M 310.61,348.79 L 309.99,349.19 L 308.48,350.10 L 307.68,350.56 L 305.82,351.58 L 302.62,353.24 L 301.75,353.68 L 303.13,352.95 L 305.66,351.60 L 306.82,350.96 L 309.06,349.69 L 309.99,349.13 L 311.24,348.36 M 266.65,352.63 L 266.69,352.47 L 266.96,351.61 L 267.09,351.36 M 233.22,351.98 L 232.98,352.26 L 233.53,351.59 M 134.22,348.83 L 134.38,349.14 L 134.46,349.64 L 134.46,349.87 L 134.22,350.30 L 133.48,351.02 L 133.42,351.07 L 134.10,350.36 L 134.34,349.89 L 134.34,349.61 L 134.27,349.02 L 134.18,348.76 M 130.07,347.61 L 130.50,348.65 L 131.07,349.96 L 131.31,350.40 L 131.65,350.95 L 131.40,350.73 L 130.89,349.90 L 130.64,349.45 L 130.20,348.26 L 130.00,347.63 L 129.80,346.76 M 304.05,348.82 L 302.82,349.51 L 301.10,350.41 L 302.82,349.50 L 304.23,348.71 L 305.34,348.13 M 235.33,349.35 L 234.69,350.15 L 235.38,349.27 M 314.13,345.28 L 313.96,345.78 L 313.83,346.04 L 313.64,346.27 L 313.99,345.61 L 314.11,345.14 M 313.78,344.45 L 313.96,344.63 L 314.05,344.89 L 313.86,344.66 L 313.63,344.63 L 313.07,344.65 L 312.65,344.76 L 311.71,345.05 L 311.10,345.30 L 310.67,345.49 L 311.29,345.21 L 312.71,344.65 L 313.02,344.54 L 313.44,344.43 M 288.01,343.24 L 288.31,343.42 L 288.73,343.75 L 289.00,344.20 L 289.00,344.31 L 288.84,344.81 L 288.84,344.82 L 288.84,344.78 L 288.52,343.79 L 287.99,343.37 L 286.96,342.73 M 132.77,333.35 L 132.34,335.18 L 131.97,338.91 L 131.87,340.74 L 132.19,344.00 L 132.29,344.62 L 131.73,343.23 L 131.58,342.75 L 130.91,341.51 L 130.32,341.00 L 130.03,341.00 L 129.28,341.57 L 129.26,339.42 L 129.32,339.55 L 129.53,339.59 L 130.00,339.55 L 130.36,339.41 L 131.54,338.21 L 132.00,336.88 L 132.00,336.09 L 132.51,333.09 L 133.33,330.81 L 133.73,330.03 M 275.20,342.40 L 274.22,343.05 L 274.53,342.83 L 275.41,342.27 L 275.71,342.14 M 283.58,341.56 L 284.79,341.94 L 283.19,341.48 M 277.62,341.43 L 276.34,341.87 L 277.20,341.49 L 277.75,341.39 M 281.06,341.08 L 280.88,341.05 L 280.05,341.07 L 279.00,341.16 L 279.83,341.00 L 280.61,341.00 M 189.68,338.56 L 189.66,338.59 L 190.74,336.42 L 190.75,336.41 M 246.59,336.69 L 245.79,338.34 L 247.74,334.12 M 250.57,327.00 L 249.46,330.30 L 247.91,333.75 L 249.41,330.08 L 250.02,328.33 L 251.10,325.05 M 130.69,330.32 L 130.84,329.81 L 131.07,329.32 M 136.64,320.02 L 134.11,323.54 L 133.11,325.29 L 131.74,327.88 L 132.63,325.98 L 133.14,325.02 L 134.35,323.09 L 134.99,322.13 L 136.47,320.16 L 137.25,319.16 L 137.69,318.65 M 251.47,323.69 L 251.17,324.80 L 251.47,323.60 L 251.60,323.04 M 250.37,308.98 L 250.40,310.73 L 250.28,311.57 L 250.36,314.22 L 250.97,315.56 L 251.57,316.06 L 252.42,316.62 L 252.10,320.01 L 251.94,321.28 L 251.89,321.54 L 252.00,320.67 L 252.00,320.26 L 251.90,318.94 L 251.74,318.37 L 251.63,318.23 L 251.36,318.07 L 251.19,318.13 L 250.84,318.35 L 250.63,318.59 L 250.20,319.17 L 249.96,319.59 L 249.47,320.52 L 249.21,321.10 L 248.68,322.35 L 248.40,323.09 L 248.12,323.88 L 248.85,321.04 L 249.97,314.62 L 250.17,312.93 L 250.27,309.86 L 250.26,309.17 L 250.19,308.09 M 149.32,311.17 L 147.21,313.00 L 143.19,317.02 L 141.99,318.28 L 142.72,317.49 L 145.32,314.76 L 146.71,313.45 L 149.55,310.87 L 151.03,309.67 L 152.59,308.46 M 200.64,317.82 L 201.06,317.09 L 201.06,317.09 M 138.91,317.24 L 139.01,317.12 L 139.12,317.00 M 204.23,312.25 L 203.79,312.87 L 202.83,314.24 L 202.26,315.14 L 201.33,316.65 L 202.26,315.15 L 202.83,314.24 L 203.79,312.87 L 204.23,312.25 L 204.93,311.47 L 205.68,311.00 L 204.93,311.47 M 143.89,312.02 L 144.22,311.69 L 144.72,311.26 M 249.35,305.69 L 249.53,306.09 L 249.86,306.81 L 249.96,307.01 L 250.13,307.80 L 249.95,307.00 L 249.85,306.79 L 249.52,306.08 L 249.34,305.68 L 248.90,304.68 L 247.43,301.19 L 248.91,304.68 M 154.04,307.34 L 154.04,307.34 L 155.57,306.30 M 250.34,299.50 L 250.70,300.16 L 251.29,301.87 L 251.56,302.78 L 251.97,304.89 L 252.16,305.98 L 252.28,307.18 L 251.82,304.26 L 250.65,300.53 L 249.80,298.87 L 248.52,296.67 M 246.11,293.60 L 246.45,294.00 L 245.56,293.09 M 178.45,291.13 L 175.34,292.31 L 175.60,292.20 L 178.82,290.89 L 181.55,289.99 M 205.84,284.57 L 203.76,284.85 L 195.33,286.21 L 191.08,287.27 L 183.29,289.42 L 185.46,288.71 L 188.80,287.70 L 195.57,286.14 L 198.96,285.44 L 205.76,284.55 L 206.62,284.50 M 234.73,286.61 L 235.89,287.09 L 234.42,286.52 M 227.98,284.96 L 229.79,285.27 L 231.01,285.59 L 227.89,284.94 M 222.23,284.25 L 224.25,284.41 L 225.06,284.53 L 224.15,284.43 L 220.73,284.17 Z" fill="rgba(0,0,0,1)"/>
<path d="M 229.33,403.00 L 229.30,403.00 L 229.20,402.98 M 191.03,391.16 L 191.30,391.29 L 191.64,391.81 L 191.78,392.14 L 191.93,393.18 L 192.00,395.50 L 192.00,396.21 L 192.08,397.38 L 192.13,397.92 L 192.28,398.74 L 192.37,399.11 L 192.59,399.58 L 192.70,399.77 L 192.94,399.89 L 193.07,399.91 L 193.32,399.67 L 193.44,399.50 L 193.68,398.91 L 193.79,398.56 L 193.98,397.61 L 194.19,395.76 L 194.25,394.99 L 194.43,393.77 L 194.53,393.22 L 194.83,392.40 L 194.99,392.04 L 195.42,391.57 L 196.25,391.19 L 196.62,391.12 L 197.14,391.20 L 197.38,391.29 L 197.68,391.81 L 197.80,392.14 L 197.93,393.25 L 198.00,395.73 L 198.00,397.10 L 197.75,399.18 L 197.58,400.12 L 196.92,401.42 L 196.53,401.99 L 195.37,402.64 L 193.00,403.00 L 192.28,403.00 L 190.81,402.65 L 190.12,402.43 L 189.20,401.80 L 189.03,401.63 L 188.73,400.96 L 188.59,400.57 L 188.35,399.54 L 188.00,395.80 L 188.00,394.77 L 188.07,393.31 L 188.12,392.66 L 188.35,391.85 L 188.50,391.51 L 188.96,391.17 L 190.00,391.00 L 190.43,391.00 M 168.81,391.12 L 169.12,391.21 L 169.55,391.55 L 169.73,391.76 L 169.95,392.39 L 170.11,393.75 L 170.21,396.50 L 171.30,393.75 L 171.49,393.28 L 171.92,392.52 L 172.15,392.18 L 172.68,391.67 L 174.69,391.00 L 175.22,391.00 L 175.94,391.14 L 176.25,391.25 L 176.63,391.79 L 176.79,392.13 L 176.94,393.30 L 177.00,396.00 L 177.00,397.38 L 177.05,399.75 L 177.07,400.27 L 177.11,401.06 L 177.18,401.75 L 177.23,401.96 L 176.81,402.37 L 175.68,402.82 L 175.37,402.88 L 174.89,402.82 L 174.67,402.76 L 174.35,402.44 L 174.21,402.24 L 174.03,401.62 L 173.88,400.32 L 173.87,399.90 L 173.80,399.30 L 173.77,399.03 L 173.67,398.76 L 173.62,398.67 L 173.51,398.74 L 173.31,399.25 L 173.17,399.78 L 172.32,400.52 L 170.43,401.00 L 169.76,401.00 L 168.71,401.29 L 168.00,402.00 L 168.00,402.27 L 167.41,402.71 L 166.00,403.00 L 165.45,403.00 L 164.59,402.60 L 164.22,402.35 L 164.00,401.64 L 164.00,401.45 L 164.05,400.75 L 164.08,400.35 L 164.19,399.32 L 164.64,395.64 L 164.77,394.63 L 165.05,393.21 L 165.20,392.59 L 165.57,391.81 L 165.78,391.48 L 166.38,391.16 L 167.64,391.00 L 168.11,391.00 M 229.67,403.00 L 229.40,403.00 L 229.71,402.97 L 229.72,402.97 M 214.27,390.53 L 215.06,390.73 L 216.13,391.25 L 216.58,391.52 L 216.92,392.06 L 217.00,392.32 L 216.57,392.73 L 215.00,393.00 L 214.33,393.00 L 213.52,393.22 L 213.20,393.36 L 213.08,393.80 L 213.10,394.03 L 213.66,394.60 L 215.24,395.51 L 215.90,395.80 L 216.86,396.65 L 217.28,397.11 L 217.73,398.19 L 217.89,398.74 L 217.78,399.90 L 216.96,401.55 L 216.67,401.90 L 215.62,402.41 L 215.04,402.63 L 213.62,402.86 L 212.89,402.93 L 211.36,402.84 L 210.61,402.76 L 209.24,402.34 L 208.80,402.16 L 208.45,401.67 L 208.36,401.42 L 208.61,400.90 L 208.81,400.65 L 209.55,400.26 L 211.06,400.00 L 211.68,400.00 L 212.47,399.72 L 212.78,399.55 L 212.94,399.06 L 212.95,398.80 L 212.49,398.25 L 211.09,397.53 L 210.41,397.31 L 209.46,396.64 L 209.05,396.27 L 208.68,395.34 L 208.57,394.86 L 208.80,393.75 L 209.82,391.97 L 210.15,391.56 L 210.78,390.98 L 211.10,390.73 L 211.75,390.44 L 212.10,390.33 L 212.88,390.30 M 230.26,392.29 L 230.43,392.49 L 230.69,393.24 L 230.80,393.67 L 230.93,394.94 L 231.00,397.50 L 231.00,398.48 L 230.93,400.01 L 230.87,400.71 L 230.74,401.46 L 230.59,401.14 L 229.99,400.52 L 229.61,400.30 L 228.49,399.15 L 227.86,398.05 L 227.73,397.50 L 227.50,396.79 L 227.37,396.64 L 227.32,396.72 L 227.23,397.01 L 227.20,397.32 L 227.14,398.05 L 227.12,398.58 L 227.23,400.96 L 227.34,401.59 L 227.42,401.83 L 227.57,402.24 L 227.56,402.23 L 227.39,401.80 L 227.31,401.56 L 227.19,400.91 L 227.08,400.22 L 227.02,398.44 L 227.01,397.53 L 227.16,395.73 L 227.61,393.58 L 227.77,393.15 L 228.44,392.46 L 229.61,392.00 L 229.86,392.00 M 225.78,238.14 L 232.64,240.68 L 236.17,241.79 L 239.69,242.85 L 241.35,243.29 L 244.58,244.10 L 244.03,243.99 L 240.32,243.13 L 238.51,242.69 L 235.08,241.69 L 233.39,241.18 L 230.17,240.02 L 228.58,239.41 L 225.51,238.06 L 225.17,237.90 M 260.14,238.00 L 259.11,238.00 L 260.36,237.98 L 260.63,237.96 M 286.28,231.76 L 284.21,232.64 L 280.03,234.30 L 277.89,234.97 L 273.57,236.20 L 271.37,236.65 L 266.93,237.43 L 264.68,237.66 L 263.93,237.72 L 267.99,237.17 L 275.60,235.44 L 277.31,234.95 L 280.49,233.91 L 282.03,233.39 L 284.92,232.27 L 286.70,231.54 M 183.98,167.22 L 184.21,167.30 L 184.60,167.59 L 184.79,167.76 L 185.09,168.30 L 185.24,168.61 L 185.48,169.45 L 185.60,169.91 L 185.82,171.11 L 185.93,171.76 L 186.15,173.38 L 186.50,176.34 L 186.80,178.94 L 187.84,184.00 L 188.43,186.50 L 190.03,191.32 L 190.90,193.71 L 193.02,198.27 L 194.14,200.52 L 196.74,204.80 L 198.09,206.91 L 201.13,210.87 L 202.69,212.82 L 206.12,216.44 L 207.88,218.21 L 211.66,221.47 L 213.58,223.05 L 217.67,225.91 L 219.75,227.29 L 224.11,229.73 L 226.31,230.89 L 230.90,232.88 L 233.21,233.81 L 237.98,235.32 L 240.38,236.01 L 244.16,236.78 L 243.55,236.68 L 241.22,236.27 L 240.14,236.04 L 238.02,235.58 L 237.08,235.33 L 235.28,234.83 L 234.54,234.58 L 233.16,234.06 L 232.66,233.80 L 231.17,233.26 L 230.49,233.27 L 230.32,233.44 L 230.13,233.88 L 230.24,234.23 L 230.60,235.01 L 231.01,235.51 L 231.56,236.32 L 231.57,236.64 L 231.36,236.70 L 230.77,236.76 L 230.20,236.71 L 228.88,236.55 L 227.90,236.40 L 223.66,235.35 L 222.18,234.86 L 221.49,234.59 L 220.18,234.05 L 219.65,233.79 L 216.79,232.58 L 216.06,232.36 L 215.80,232.32 L 215.37,232.30 L 215.33,232.33 L 215.07,232.17 L 212.08,230.05 L 207.48,226.54 L 205.41,224.88 L 201.55,221.26 L 199.67,219.41 L 196.23,215.45 L 194.55,213.44 L 191.55,209.20 L 190.10,207.06 L 187.57,202.61 L 186.37,200.37 L 184.35,195.77 L 183.40,193.46 L 181.93,188.78 L 181.26,186.43 L 180.36,181.73 L 179.70,174.71 L 179.67,173.82 L 179.64,172.36 L 179.63,171.67 L 179.63,170.57 L 179.64,170.07 L 179.70,169.28 L 179.74,168.92 L 179.87,168.39 L 180.03,167.92 L 180.64,167.49 L 182.16,167.19 L 182.92,167.10 M 221.38,221.36 L 224.72,223.35 L 226.49,224.29 L 230.07,226.11 L 231.88,226.91 L 235.49,228.44 L 237.23,229.04 L 240.65,230.14 L 240.15,230.03 L 235.59,228.49 L 233.27,227.63 L 228.54,225.43 L 226.19,224.27 L 221.72,221.62 L 221.20,221.25 M 213.47,207.77 L 214.52,208.17 L 215.10,208.44 L 216.61,209.42 L 219.62,211.68 L 221.13,212.87 L 224.26,215.00 L 225.84,216.03 L 229.08,217.84 L 230.71,218.71 L 234.04,220.21 L 235.71,220.92 L 239.12,222.10 L 240.83,222.65 L 244.28,223.51 L 246.01,223.91 L 249.50,224.46 L 251.25,224.69 L 254.74,224.93 L 256.49,225.00 L 259.98,224.93 L 261.72,224.85 L 263.70,224.62 L 262.64,224.80 L 259.83,224.97 L 254.22,225.12 L 251.44,224.89 L 245.92,224.21 L 243.23,223.56 L 237.92,222.04 L 235.38,220.95 L 233.68,220.22 L 232.75,219.84 L 232.38,219.69 L 231.12,219.21 L 230.77,219.13 L 230.23,219.08 L 230.12,219.19 L 230.00,219.50 L 230.00,219.77 L 230.22,220.20 L 230.56,220.59 L 230.81,220.81 L 231.99,221.77 L 232.75,222.24 L 233.67,222.89 L 234.06,223.26 L 234.15,223.41 L 234.27,223.68 L 234.23,223.77 L 234.09,223.94 L 233.94,223.98 L 233.10,224.05 L 232.39,223.90 L 230.81,223.48 L 229.80,223.07 L 227.40,222.25 L 225.58,221.73 L 224.85,221.57 L 223.32,221.02 L 222.10,220.39 L 221.41,219.97 L 218.53,218.07 L 217.08,216.93 L 214.26,214.58 L 213.18,213.49 L 212.16,212.41 L 211.79,211.94 L 211.15,211.04 L 211.01,210.68 L 210.50,209.48 L 210.41,209.29 L 210.41,209.27 L 210.87,208.76 L 211.87,208.07 L 212.25,207.87 L 213.05,207.77 M 228.63,159.99 L 229.36,160.22 L 229.72,160.58 L 230.27,161.64 L 230.56,162.79 L 230.67,163.57 L 230.86,165.25 L 230.92,166.28 L 231.00,168.46 L 231.00,169.73 L 231.08,173.06 L 231.22,175.00 L 231.33,175.79 L 231.56,177.24 L 231.70,177.75 L 232.02,178.62 L 232.20,178.80 L 232.61,179.22 L 232.72,179.38 L 232.89,179.66 L 232.89,179.75 L 232.64,180.00 L 232.15,180.00 L 231.12,179.77 L 230.41,179.40 L 230.06,179.12 L 228.67,177.78 L 228.06,176.87 L 226.92,174.92 L 226.54,173.84 L 225.91,171.65 L 225.88,170.60 L 225.87,167.41 L 225.90,166.54 L 225.92,166.21 L 225.97,165.64 L 226.00,165.50 L 226.21,164.35 L 226.33,163.41 L 226.37,163.00 L 226.79,161.31 L 227.28,160.50 L 227.60,160.27 L 228.26,159.94 Z" fill="rgba(106,108,202,1)"/>
<path d="M 245.73,399.52 L 247.61,400.00 L 248.28,400.00 L 249.21,400.24 L 249.60,400.40 L 249.92,400.85 L 250.01,401.09 L 249.68,401.63 L 248.42,402.39 L 247.67,402.68 L 246.30,402.94 L 245.64,403.01 L 245.17,402.95 L 245.48,402.77 L 246.08,402.25 L 246.25,401.76 L 246.14,400.48 L 245.68,399.53 L 245.47,399.33 M 227.50,396.79 L 227.73,397.50 L 227.86,398.05 L 228.49,399.15 L 229.61,400.30 L 229.99,400.52 L 230.59,401.14 L 231.00,402.05 L 231.00,402.32 L 230.62,402.69 L 230.39,402.85 L 229.71,402.97 L 229.35,403.00 L 228.61,402.86 L 228.25,402.76 L 227.67,402.33 L 227.57,402.24 L 227.42,401.83 L 227.34,401.59 L 227.23,400.96 L 227.12,398.58 L 227.14,398.05 L 227.20,397.32 L 227.23,397.01 L 227.32,396.72 L 227.37,396.64 M 240.12,396.59 L 240.31,397.68 L 240.80,399.47 L 240.39,398.46 L 240.15,397.69 L 240.08,396.15 L 240.12,395.39 L 240.32,394.83 M 244.37,395.59 L 244.37,395.54 L 244.40,395.37 M 245.83,390.12 L 247.42,390.61 L 247.97,390.82 L 248.62,391.34 L 248.87,391.60 L 248.94,392.12 L 248.91,392.37 L 248.42,392.75 L 247.07,393.00 L 246.53,393.00 L 245.64,393.48 L 245.23,393.79 L 244.66,394.73 L 244.43,395.22 L 244.58,394.40 L 244.83,392.73 L 244.85,391.94 L 244.77,391.69 L 244.58,391.26 L 244.39,391.15 L 243.96,391.00 L 243.65,391.00 L 242.88,391.17 L 243.40,390.75 L 243.82,390.44 L 244.58,390.14 L 244.97,390.04 M 256.66,238.04 L 256.19,238.06 L 254.58,238.19 L 254.11,238.32 L 253.36,238.65 L 253.20,238.93 L 253.00,239.55 L 253.00,240.00 L 252.52,241.48 L 251.75,242.00 L 251.17,242.00 L 249.86,242.47 L 249.33,243.18 L 249.33,243.64 L 249.41,244.29 L 249.67,244.49 L 250.15,244.73 L 248.67,244.67 L 247.60,244.61 L 246.00,244.38 L 244.58,244.10 L 241.35,243.29 L 239.69,242.85 L 236.17,241.79 L 232.64,240.68 L 225.78,238.14 L 224.17,237.51 L 221.31,236.28 L 219.96,235.69 L 217.82,234.61 L 217.34,234.35 L 216.56,233.88 L 216.21,233.65 L 215.69,233.25 L 215.47,233.06 L 215.26,232.74 L 215.30,232.37 L 215.37,232.30 L 215.80,232.32 L 216.06,232.36 L 216.79,232.58 L 219.65,233.79 L 220.18,234.05 L 221.49,234.59 L 222.18,234.86 L 223.66,235.35 L 227.90,236.40 L 228.88,236.55 L 230.20,236.71 L 230.77,236.76 L 231.36,236.70 L 231.57,236.64 L 231.56,236.32 L 231.01,235.51 L 230.60,235.01 L 230.24,234.23 L 230.13,233.88 L 230.32,233.44 L 230.49,233.27 L 231.17,233.26 L 232.66,233.80 L 233.16,234.06 L 234.54,234.58 L 235.28,234.83 L 237.08,235.33 L 238.02,235.58 L 240.14,236.04 L 241.22,236.27 L 243.55,236.68 L 245.92,237.07 L 250.88,237.64 L 257.84,238.00 L 259.89,238.00 L 257.81,238.01 M 277.46,242.06 L 276.61,242.31 L 274.38,242.78 L 273.19,243.01 L 272.11,243.17 L 272.55,243.08 L 276.58,242.18 L 278.54,241.63 L 279.29,241.40 M 210.30,209.07 L 210.50,209.48 L 211.01,210.68 L 211.15,211.04 L 211.79,211.94 L 212.16,212.41 L 213.18,213.49 L 214.26,214.58 L 217.08,216.93 L 218.53,218.07 L 221.41,219.97 L 222.10,220.39 L 223.32,221.02 L 224.85,221.57 L 225.58,221.73 L 227.40,222.25 L 229.80,223.07 L 230.81,223.48 L 232.39,223.90 L 233.10,224.05 L 233.94,223.98 L 234.09,223.94 L 234.23,223.77 L 234.27,223.68 L 234.15,223.41 L 234.06,223.26 L 233.67,222.89 L 232.75,222.24 L 231.99,221.77 L 230.81,220.81 L 230.56,220.59 L 230.22,220.20 L 230.00,219.77 L 230.00,219.50 L 230.12,219.19 L 230.23,219.08 L 230.77,219.13 L 231.12,219.21 L 232.38,219.69 L 232.75,219.84 L 233.68,220.22 L 235.38,220.95 L 237.92,222.04 L 243.23,223.56 L 245.92,224.21 L 251.44,224.89 L 254.22,225.12 L 259.83,224.97 L 262.64,224.80 L 268.21,223.86 L 269.95,223.51 L 268.34,223.90 L 266.16,224.22 L 263.00,224.75 L 261.29,225.11 L 260.68,225.29 L 259.63,225.63 L 259.38,225.78 L 259.09,226.07 L 259.27,226.19 L 259.42,226.50 L 259.18,226.68 L 258.90,226.75 L 258.24,226.88 L 257.77,226.92 L 256.75,226.98 L 256.13,226.98 L 253.90,227.05 L 252.97,227.15 L 252.75,227.26 L 252.45,227.52 L 252.51,227.72 L 252.73,228.18 L 253.00,228.50 L 254.41,229.56 L 255.56,230.00 L 256.06,230.00 L 257.53,230.29 L 258.33,230.72 L 258.50,231.00 L 259.19,231.63 L 259.85,231.80 L 260.83,231.95 L 258.97,232.06 L 256.22,232.14 L 250.64,231.79 L 247.85,231.52 L 242.22,230.48 L 240.65,230.14 L 237.23,229.04 L 235.49,228.44 L 231.88,226.91 L 230.07,226.11 L 226.49,224.29 L 224.72,223.35 L 221.38,221.36 L 219.75,220.36 L 216.86,218.33 L 215.49,217.33 L 213.26,215.39 L 212.24,214.45 L 210.89,212.74 L 210.61,212.34 L 210.26,211.59 L 210.06,210.58 L 210.08,210.07 L 210.12,209.44 L 210.14,209.18 L 210.24,209.07 M 272.45,230.32 L 272.20,230.37 L 272.80,230.22 M 318.83,202.25 L 316.69,205.74 L 314.91,208.23 L 313.88,209.51 L 311.72,212.10 L 310.53,213.40 L 308.11,216.00 L 306.82,217.26 L 304.23,219.75 L 302.90,220.92 L 300.25,223.21 L 298.93,224.24 L 296.32,226.22 L 295.07,227.06 L 292.60,228.63 L 291.46,229.22 L 289.41,230.14 L 290.31,229.67 L 292.30,228.58 L 296.16,226.08 L 298.07,224.77 L 301.74,221.86 L 307.02,217.03 L 308.71,215.33 L 311.76,211.92 L 313.22,210.20 L 315.83,206.72 L 317.08,204.96 L 319.26,201.38 L 319.62,200.75 M 275.05,229.57 L 273.73,229.95 L 274.50,229.73 L 276.50,229.11 M 280.19,227.92 L 278.07,228.60 L 279.28,228.17 L 281.87,227.20 M 278.95,220.68 L 274.78,222.25 L 272.64,222.85 L 271.56,223.11 L 276.39,221.59 L 279.00,220.66 M 284.99,217.78 L 281.01,219.83 L 279.12,220.61 L 284.19,218.19 L 285.62,217.44 M 296.76,218.55 L 296.44,218.79 L 299.48,216.31 M 329.35,195.86 L 328.04,199.05 L 324.84,205.07 L 323.15,208.02 L 319.23,213.54 L 317.19,216.23 L 315.77,217.77 L 317.18,216.11 L 318.48,214.41 L 321.01,210.95 L 322.18,209.14 L 324.47,205.48 L 325.51,203.59 L 327.52,199.77 L 328.40,197.83 L 330.00,194.14 M 290.68,214.21 L 287.07,216.62 L 291.23,213.82 M 303.08,213.01 L 301.06,215.01 L 300.32,215.62 L 302.65,213.39 L 304.34,211.67 M 265.65,211.28 L 262.94,211.88 L 261.38,212.35 L 260.74,212.60 L 259.56,213.13 L 259.12,213.42 L 258.34,214.00 L 258.12,214.30 L 257.40,215.18 L 257.02,215.51 L 256.85,215.56 L 256.53,215.56 L 256.37,215.44 L 256.06,215.12 L 255.89,214.85 L 255.48,214.33 L 255.44,214.30 L 256.12,213.42 L 256.28,213.33 L 257.13,213.05 L 257.63,212.91 L 259.04,212.56 L 259.79,212.39 L 261.57,212.02 L 264.46,211.48 L 266.85,211.06 M 304.80,200.06 L 302.15,203.63 L 300.67,205.29 L 297.60,208.54 L 295.93,210.03 L 292.51,212.92 L 291.46,213.66 L 297.88,208.16 L 299.31,206.73 L 301.91,203.71 L 303.16,202.18 L 305.40,198.98 L 306.05,198.00 M 274.23,208.84 L 272.13,209.57 L 267.86,210.88 L 266.91,211.05 L 271.49,209.74 L 273.73,209.01 L 277.67,207.18 M 278.24,206.91 L 278.07,206.99 L 278.55,206.75 M 280.21,205.86 L 280.12,205.91 L 281.63,204.89 M 283.85,203.37 L 288.99,198.90 L 283.90,203.33 M 261.40,134.46 L 262.87,134.65 L 265.75,135.33 L 267.18,135.72 L 268.46,136.21 L 268.42,136.31 L 268.41,136.90 L 268.61,137.42 L 268.52,138.12 L 267.97,138.44 L 267.37,138.53 L 266.71,138.61 L 266.28,138.64 L 265.36,138.68 L 264.79,138.69 L 263.58,138.71 L 262.85,138.70 L 261.32,138.68 L 260.42,138.67 L 256.42,138.66 L 254.37,138.74 L 253.63,138.83 L 252.34,139.04 L 251.95,139.19 L 251.34,139.53 L 251.26,139.75 L 251.56,140.66 L 252.37,141.00 L 253.03,141.00 L 254.07,141.09 L 254.54,141.26 L 254.66,141.42 L 254.85,141.77 L 254.86,142.03 L 254.81,142.61 L 254.71,143.00 L 254.58,144.07 L 254.77,144.54 L 255.08,144.68 L 255.85,144.89 L 256.52,144.94 L 258.06,145.00 L 259.19,145.00 L 263.69,145.43 L 266.41,146.16 L 266.82,146.36 L 265.79,146.11 L 264.93,145.94 L 262.72,145.62 L 261.55,145.47 L 258.92,145.22 L 257.57,145.10 L 254.80,144.93 L 253.42,144.85 L 250.77,144.77 L 249.49,144.74 L 247.25,144.76 L 246.20,144.79 L 244.64,144.94 L 244.30,144.98 L 243.80,145.10 L 243.35,145.32 L 243.14,145.52 L 242.96,145.91 L 242.90,146.09 L 243.01,146.43 L 243.10,146.60 L 243.49,146.89 L 243.72,147.03 L 244.38,147.28 L 245.11,147.51 L 247.09,147.78 L 246.05,147.76 L 245.55,147.77 L 244.65,147.81 L 244.32,147.87 L 243.76,147.99 L 243.57,148.09 L 243.26,148.32 L 243.18,148.47 L 243.00,149.19 L 243.00,149.75 L 243.11,150.77 L 243.31,151.28 L 243.47,151.47 L 243.84,151.78 L 244.09,151.87 L 244.63,152.00 L 244.51,152.00 L 243.88,152.32 L 243.74,152.46 L 243.53,152.94 L 243.43,153.22 L 243.28,154.06 L 243.22,154.53 L 243.13,155.81 L 243.09,156.52 L 243.04,158.35 L 243.03,159.34 L 243.01,161.81 L 243.00,166.33 L 243.00,168.30 L 243.05,171.95 L 243.09,173.70 L 243.20,176.65 L 243.23,177.33 L 243.29,178.50 L 243.33,179.06 L 243.41,179.94 L 243.45,180.35 L 243.53,180.91 L 243.67,181.33 L 243.76,181.42 L 244.56,181.59 L 245.05,181.67 L 246.51,181.80 L 247.30,181.86 L 249.23,181.93 L 252.42,181.98 L 253.86,181.97 L 256.20,181.87 L 254.05,181.97 L 252.79,181.98 L 250.48,182.00 L 249.19,182.03 L 248.66,182.06 L 246.79,182.20 L 246.17,182.35 L 245.12,182.71 L 244.78,183.00 L 244.18,183.66 L 243.93,184.14 L 243.43,185.07 L 243.43,185.36 L 243.49,185.63 L 243.62,185.72 L 243.94,185.89 L 244.23,185.94 L 244.90,186.03 L 245.39,186.04 L 246.47,186.05 L 247.18,186.04 L 248.75,185.99 L 249.73,185.95 L 251.85,185.86 L 253.14,185.80 L 257.89,185.47 L 260.68,185.13 L 261.91,184.89 L 264.25,184.37 L 265.27,184.03 L 266.49,183.57 L 265.30,184.02 L 264.28,184.36 L 261.95,184.89 L 260.73,185.12 L 257.96,185.46 L 253.25,185.80 L 252.04,185.85 L 249.96,185.98 L 248.97,186.05 L 247.33,186.21 L 246.57,186.30 L 245.34,186.50 L 244.78,186.61 L 243.95,186.87 L 243.59,187.00 L 243.13,187.32 L 242.94,187.49 L 242.83,187.87 L 242.81,188.08 L 243.02,188.54 L 243.67,189.33 L 243.83,189.49 L 244.69,189.72 L 245.20,189.83 L 246.63,189.95 L 247.41,190.00 L 249.26,190.02 L 250.22,190.02 L 252.32,189.94 L 254.46,189.85 L 258.78,189.40 L 259.82,189.27 L 261.70,188.96 L 262.39,188.83 L 261.44,189.18 L 261.22,189.35 L 260.96,189.70 L 261.07,189.90 L 261.43,190.32 L 261.80,190.59 L 262.83,191.64 L 263.08,192.25 L 262.93,192.41 L 261.78,192.86 L 260.40,193.17 L 259.51,193.32 L 255.51,193.86 L 253.50,193.96 L 252.47,194.05 L 252.10,194.16 L 252.08,194.25 L 252.14,194.47 L 252.32,194.64 L 252.78,195.04 L 253.16,195.32 L 254.22,196.69 L 254.20,197.67 L 253.86,198.29 L 253.52,198.97 L 253.51,199.20 L 253.62,199.59 L 253.91,199.71 L 253.92,199.72 L 253.35,199.72 L 252.41,199.69 L 250.70,199.52 L 249.89,199.42 L 248.50,199.12 L 247.40,198.83 L 245.21,198.01 L 244.12,197.56 L 241.96,196.44 L 240.89,195.85 L 238.82,194.48 L 237.79,193.76 L 235.84,192.16 L 234.88,191.34 L 233.08,189.56 L 232.21,188.64 L 230.62,186.71 L 229.86,185.72 L 228.51,183.67 L 226.81,180.50 L 226.37,179.55 L 225.67,177.43 L 225.35,176.35 L 224.88,174.04 L 224.47,171.68 L 224.32,166.68 L 224.36,164.18 L 225.12,159.33 L 225.37,158.16 L 226.02,155.94 L 227.26,152.88 L 228.03,151.32 L 229.81,148.50 L 230.74,147.14 L 232.83,144.70 L 233.90,143.54 L 236.24,141.49 L 237.44,140.52 L 239.99,138.86 L 241.29,138.08 L 244.01,136.82 L 245.38,136.23 L 248.22,135.35 L 249.65,134.96 L 252.57,134.47 L 254.04,134.28 L 256.99,134.18 L 258.46,134.17 M 268.95,195.57 L 269.69,195.90 L 271.00,196.30 L 271.84,196.29 L 271.86,196.29 L 270.18,197.25 L 269.54,197.53 L 268.00,198.03 L 267.20,198.27 L 265.38,198.68 L 263.52,199.07 L 262.44,199.19 L 262.48,198.81 L 262.37,198.51 L 262.32,197.73 L 262.54,197.24 L 262.75,197.02 L 263.82,196.18 L 264.60,195.90 L 266.28,195.45 L 267.17,195.44 M 319.86,185.59 L 319.39,187.31 L 318.23,190.62 L 317.62,192.25 L 316.17,195.39 L 315.41,196.95 L 314.60,198.33 L 316.95,193.60 L 318.66,189.35 L 319.34,187.20 L 320.35,183.66 M 310.79,188.86 L 309.19,192.58 L 308.24,194.40 L 306.93,196.56 L 308.35,194.03 L 309.25,192.34 L 310.77,188.88 L 311.24,187.73 M 331.78,189.39 L 330.48,192.85 L 330.81,191.94 L 332.16,187.98 M 278.23,192.02 L 277.34,192.70 L 278.94,191.32 M 283.69,186.05 L 282.49,187.65 L 282.12,188.04 L 282.43,187.66 L 283.97,185.65 M 272.51,183.91 L 270.95,185.20 L 270.12,185.75 L 268.44,186.78 L 267.57,187.17 L 265.80,187.89 L 265.63,187.94 L 268.18,186.77 L 269.47,186.10 L 271.81,184.44 L 272.59,183.84 M 311.53,187.00 L 311.51,187.05 L 311.62,186.71 M 325.93,184.21 L 325.49,185.78 L 325.95,183.91 L 326.13,183.09 M 289.00,174.99 L 288.80,176.00 L 288.16,177.92 L 286.73,181.14 L 285.91,182.80 L 284.29,185.17 L 284.84,184.30 L 286.21,181.96 L 286.78,180.76 L 287.84,178.32 L 288.26,177.07 L 289.01,174.57 L 289.25,173.40 M 273.28,183.23 L 273.19,183.30 L 273.54,182.94 M 267.24,183.29 L 267.24,183.29 L 267.62,183.08 M 320.74,182.08 L 320.69,182.29 L 320.85,181.50 M 262.22,180.95 L 262.22,180.95 L 262.23,180.95 M 267.23,178.64 L 266.61,179.05 L 265.32,179.81 L 264.59,180.13 L 263.07,180.72 L 262.44,180.89 L 263.16,180.68 L 264.69,180.05 L 265.43,179.72 L 266.71,178.96 L 267.33,178.56 L 267.55,178.37 M 326.86,178.99 L 326.67,180.04 L 326.91,178.42 M 227.60,160.27 L 227.28,160.50 L 226.79,161.31 L 226.37,163.00 L 226.33,163.41 L 226.21,164.35 L 226.00,165.50 L 225.97,165.64 L 225.92,166.21 L 225.90,166.54 L 225.87,167.41 L 225.88,170.60 L 225.91,171.65 L 226.54,173.84 L 226.92,174.92 L 228.06,176.87 L 228.67,177.78 L 230.06,179.12 L 230.41,179.40 L 231.12,179.77 L 232.15,180.00 L 232.64,180.00 L 232.89,179.75 L 232.89,179.66 L 232.72,179.38 L 232.61,179.22 L 232.20,178.80 L 232.02,178.62 L 231.70,177.75 L 231.56,177.24 L 231.33,175.79 L 231.22,175.00 L 231.08,173.06 L 231.00,169.73 L 231.00,168.46 L 230.92,166.28 L 230.86,165.25 L 230.67,163.57 L 230.56,162.79 L 230.27,161.64 L 229.72,160.58 L 229.36,160.22 L 228.63,159.99 L 228.26,159.94 M 252.69,177.16 L 253.72,176.95 L 254.15,176.79 L 254.94,176.45 L 255.26,176.22 L 255.82,175.73 L 256.03,175.43 L 256.38,174.78 L 256.48,174.39 L 256.62,173.57 L 256.62,173.09 L 256.57,172.08 L 256.47,171.50 L 256.22,170.30 L 256.03,169.62 L 255.52,167.42 L 255.33,166.10 L 255.30,165.51 L 255.41,163.27 L 255.75,162.29 L 256.14,160.89 L 256.25,160.13 L 256.22,159.81 L 255.88,158.67 L 255.37,158.20 L 254.67,157.89 L 254.45,158.15 L 254.50,156.50 L 258.05,156.20 L 259.13,156.11 L 261.25,156.53 L 262.28,156.84 L 264.20,157.98 L 265.13,158.63 L 266.73,160.39 L 268.62,163.64 L 268.92,164.36 L 269.29,165.50 L 269.44,166.05 L 269.49,167.05 L 269.48,167.56 L 269.21,168.70 L 268.44,170.85 L 267.90,172.21 L 266.43,174.30 L 265.62,175.24 L 263.51,176.53 L 262.93,176.81 L 261.63,177.23 L 260.95,177.42 L 259.44,177.67 L 258.65,177.78 L 256.91,177.86 L 254.00,177.82 L 247.50,177.50 L 250.88,177.34 M 253.19,174.58 L 253.39,174.29 L 253.69,173.12 L 253.81,172.49 L 253.76,172.91 L 253.71,173.24 L 253.45,174.35 L 253.25,174.62 L 252.81,175.00 L 252.75,175.00 M 251.98,174.69 L 251.74,174.55 L 251.73,174.53 M 251.02,167.66 L 251.06,169.27 L 251.08,170.03 L 251.15,171.28 L 251.18,171.86 L 251.28,172.78 L 251.34,173.21 L 251.47,173.85 L 251.55,174.13 L 251.68,174.43 L 251.55,174.16 L 251.48,173.88 L 251.34,173.25 L 251.28,172.83 L 251.18,171.92 L 251.15,171.34 L 251.08,170.09 L 251.06,169.33 L 251.02,167.71 L 251.01,166.74 L 251.00,164.69 L 251.00,164.68 L 251.01,166.70 M 264.40,169.00 L 262.95,169.48 L 261.75,170.18 L 261.16,170.62 L 260.04,171.54 L 259.64,171.97 L 259.00,172.79 L 259.00,173.06 L 259.10,173.74 L 259.28,173.87 L 259.74,174.00 L 260.09,173.86 L 260.86,173.46 L 261.35,173.06 L 262.39,172.15 L 263.00,171.50 L 264.38,169.73 L 264.58,169.32 L 264.58,169.20 L 264.53,169.00 M 280.57,164.43 L 280.70,165.94 L 280.75,168.89 L 280.47,170.21 L 279.83,172.45 L 280.28,170.41 L 280.51,169.04 L 280.56,166.23 L 280.06,162.44 M 322.30,164.35 L 322.37,166.03 L 322.36,167.17 L 322.28,164.12 M 274.81,158.78 L 275.38,159.93 L 275.56,160.49 L 275.45,160.23 L 274.39,158.02 M 321.12,154.40 L 321.76,157.66 L 321.98,160.37 L 321.52,156.60 L 321.10,154.46 L 320.57,152.09 M 286.70,152.80 L 287.30,154.02 L 288.15,156.05 L 288.52,157.05 L 289.00,159.00 L 289.20,160.01 L 289.22,160.21 L 289.03,159.22 L 288.67,157.98 L 287.88,155.51 L 287.37,154.30 L 286.62,152.66 M 279.28,159.76 L 279.28,159.77 L 279.23,159.67 M 313.30,152.83 L 313.34,153.01 L 313.17,152.36 M 274.94,152.66 L 275.09,152.89 L 274.68,152.37 M 273.73,151.29 L 273.82,151.40 L 273.41,151.00 M 253.92,148.01 L 258.33,148.31 L 259.37,148.41 L 261.17,148.64 L 263.22,149.04 L 264.53,149.41 L 266.92,150.54 L 268.08,151.16 L 268.15,151.22 L 268.10,151.19 L 266.33,150.32 L 265.31,149.98 L 263.18,149.33 L 261.96,149.08 L 259.42,148.63 L 257.97,148.47 L 254.95,148.18 L 253.25,148.08 L 251.91,148.01 M 318.48,144.86 L 319.59,147.95 L 320.03,149.79 L 319.53,148.14 L 318.36,144.56 M 270.14,148.17 L 271.08,148.93 L 268.92,147.48 M 296.05,123.92 L 297.44,125.26 L 300.13,128.00 L 301.36,129.45 L 303.74,132.42 L 304.81,133.99 L 306.88,137.16 L 307.79,138.82 L 309.53,142.17 L 310.27,143.90 L 311.67,147.41 L 311.93,148.23 L 310.83,145.31 L 310.12,143.56 L 308.43,140.14 L 307.54,138.45 L 305.49,135.16 L 304.42,133.53 L 302.01,130.40 L 298.00,125.91 L 296.00,123.88 M 275.28,139.59 L 277.73,141.44 L 278.93,142.41 L 281.14,144.64 L 282.22,145.81 L 283.35,147.34 L 281.70,145.28 L 280.74,144.27 L 278.74,142.31 L 277.62,141.40 L 275.32,139.63 L 275.07,139.47 M 314.47,135.88 L 316.02,138.76 L 317.06,141.35 L 315.61,138.04 L 314.59,136.13 L 314.14,135.34 M 311.14,130.25 L 311.81,131.38 L 311.25,130.55 L 309.60,128.21 M 305.05,122.58 L 306.13,123.90 L 304.56,122.11 M 291.53,120.24 L 293.06,121.44 L 295.96,123.85 L 291.35,120.20 L 290.12,119.30 M 297.82,115.91 L 298.68,116.69 L 297.96,116.12 L 295.58,114.34 M 290.94,111.32 L 292.37,112.16 L 292.81,112.46 L 292.49,112.26 L 290.14,110.87 M 264.68,237.66 L 265.36,237.59 L 264.49,237.72 L 263.29,237.83 L 260.95,238.00 L 260.14,238.00 M 255.12,217.23 L 255.01,216.77 L 255.04,215.77 L 255.20,217.25 L 255.48,218.15 L 255.67,218.33 L 255.40,218.07 Z" fill="rgba(118,107,195,1)"/>
<path d="M 276.46,395.00 L 276.84,395.00 L 277.50,395.24 L 277.81,395.39 L 278.31,395.87 L 278.77,396.41 L 279.20,397.93 L 279.33,398.72 L 279.01,400.33 L 278.88,400.71 L 278.47,401.40 L 277.60,402.23 L 277.09,402.58 L 275.71,402.92 L 274.99,403.04 L 273.54,402.97 L 272.84,402.90 L 271.74,402.48 L 271.29,402.23 L 271.00,401.50 L 271.00,401.08 L 271.58,400.44 L 273.00,400.00 L 273.67,400.00 L 274.48,399.78 L 274.54,399.75 L 274.46,400.40 L 274.64,400.63 L 275.13,401.00 L 275.53,401.00 L 276.57,400.88 L 277.00,400.70 L 277.00,400.58 L 277.16,399.86 L 277.40,399.11 L 277.56,398.71 L 277.45,397.18 L 276.87,396.01 L 276.40,395.54 L 275.74,394.81 M 296.19,391.14 L 296.87,391.23 L 297.63,391.58 L 297.92,391.78 L 297.91,392.37 L 297.07,393.55 L 296.94,393.68 L 296.68,394.23 L 296.55,394.55 L 296.31,395.39 L 295.82,398.49 L 295.76,399.20 L 295.57,400.34 L 295.47,400.86 L 295.17,401.63 L 295.00,401.98 L 294.57,402.44 L 293.75,402.82 L 293.39,402.88 L 292.86,402.81 L 292.63,402.72 L 292.33,402.24 L 292.20,401.94 L 292.07,400.93 L 292.02,400.35 L 292.00,398.68 L 292.00,397.92 L 291.91,396.66 L 291.85,396.08 L 291.63,395.16 L 291.51,394.75 L 291.17,394.16 L 290.50,393.64 L 290.12,393.49 L 289.58,393.19 L 289.34,393.04 L 289.07,392.73 L 288.87,392.43 L 289.22,391.88 L 289.51,391.62 L 290.76,391.25 L 293.50,391.00 L 294.61,391.00 M 293.73,391.29 L 293.47,391.39 L 292.93,391.64 L 292.65,391.87 L 291.79,393.30 L 291.64,394.52 L 291.75,395.18 L 292.11,396.52 L 292.47,397.14 L 293.30,398.34 L 293.88,398.80 L 294.52,399.28 L 294.75,399.38 L 295.16,399.45 L 295.32,399.31 L 295.60,398.91 L 295.71,398.49 L 295.94,397.52 L 296.06,396.80 L 296.13,394.06 L 295.78,392.60 L 295.45,392.12 L 294.70,391.35 L 294.22,391.29 M 270.42,395.46 L 270.85,396.04 L 271.93,397.13 L 272.76,397.49 L 272.78,397.50 L 272.75,397.49 L 271.92,397.12 L 270.85,396.04 L 270.41,395.46 L 270.16,394.18 M 270.15,394.16 L 270.15,394.16 L 270.15,394.02 M 276.94,391.79 L 276.99,392.08 L 276.49,392.51 L 276.94,392.01 L 276.92,391.76 M 274.15,390.21 L 273.77,390.32 L 272.96,390.61 L 272.97,390.60 L 273.78,390.32 L 274.16,390.20 L 274.40,390.19 M 249.88,244.34 L 250.73,244.76 L 251.36,244.89 L 251.72,244.95 L 251.10,244.91 L 250.37,244.83 L 249.67,244.49 L 249.41,244.29 L 249.33,243.64 L 249.33,243.50 L 249.53,244.11 M 306.80,217.30 L 304.09,220.04 L 302.62,221.55 L 302.04,222.17 L 300.99,223.31 L 300.60,223.76 L 299.91,224.59 L 299.70,224.92 L 299.35,225.50 L 299.28,225.72 L 299.22,226.12 L 299.28,226.28 L 299.77,226.77 L 300.29,226.98 L 301.92,227.60 L 302.60,227.72 L 303.87,227.86 L 304.49,227.72 L 305.73,227.29 L 306.46,226.85 L 307.09,226.42 L 305.59,227.71 L 303.94,229.01 L 300.55,231.39 L 298.84,232.54 L 295.32,234.62 L 293.55,235.62 L 289.92,237.40 L 288.09,238.25 L 284.33,239.73 L 282.43,240.44 L 278.54,241.63 L 276.58,242.18 L 272.55,243.08 L 270.51,243.49 L 266.34,244.10 L 261.01,244.58 L 262.12,244.34 L 264.03,243.86 L 264.90,243.57 L 266.57,242.94 L 267.26,242.58 L 270.65,240.99 L 271.52,240.68 L 271.82,240.60 L 272.33,240.52 L 272.41,240.58 L 272.66,240.66 L 272.60,240.48 L 272.45,240.28 L 271.97,240.02 L 271.43,239.89 L 271.07,239.86 L 269.47,239.77 L 268.55,239.85 L 265.99,239.74 L 265.31,239.57 L 265.06,239.46 L 264.63,239.21 L 264.54,239.07 L 263.86,238.65 L 263.03,238.41 L 262.48,238.31 L 259.94,238.00 L 260.95,238.00 L 263.29,237.83 L 264.49,237.72 L 267.04,237.34 L 269.64,236.92 L 275.21,235.52 L 278.01,234.74 L 283.61,232.74 L 291.46,229.22 L 292.60,228.63 L 295.07,227.06 L 296.32,226.22 L 298.93,224.24 L 300.25,223.21 L 302.90,220.92 L 304.23,219.75 L 306.82,217.26 L 307.56,216.54 M 256.44,238.05 L 256.66,238.04 L 257.81,238.01 L 257.96,238.01 M 303.41,202.11 L 301.51,204.43 L 299.76,206.66 L 298.73,208.05 L 298.33,208.65 L 297.59,209.77 L 297.36,210.18 L 297.00,210.88 L 297.00,211.02 L 297.07,211.36 L 297.19,211.47 L 297.48,211.68 L 297.70,211.73 L 298.77,211.82 L 299.49,211.69 L 301.02,211.33 L 301.85,210.99 L 303.53,210.23 L 304.30,209.72 L 306.39,208.51 L 306.98,208.22 L 307.21,208.14 L 307.62,208.00 L 307.73,208.00 L 308.01,207.82 L 307.23,208.76 L 302.65,213.39 L 300.29,215.65 L 295.40,219.65 L 294.19,220.58 L 291.83,222.20 L 288.48,224.19 L 287.07,224.93 L 284.02,226.31 L 282.47,226.97 L 279.28,228.17 L 277.68,228.74 L 274.50,229.73 L 272.93,230.19 L 269.93,230.92 L 268.46,231.25 L 265.80,231.70 L 264.53,231.89 L 262.36,232.01 L 261.35,232.03 L 260.91,231.96 L 261.36,232.01 L 262.26,231.90 L 264.12,231.57 L 265.10,231.22 L 267.08,230.42 L 268.00,229.86 L 269.88,228.66 L 270.57,228.12 L 270.66,227.93 L 270.68,227.58 L 270.46,227.43 L 269.88,227.13 L 269.38,226.94 L 265.93,226.03 L 263.31,225.58 L 262.15,225.46 L 261.02,225.37 L 260.55,225.35 L 260.49,225.35 L 260.68,225.29 L 261.29,225.11 L 263.00,224.75 L 266.16,224.22 L 268.34,223.90 L 272.64,222.85 L 274.78,222.25 L 278.95,220.68 L 281.01,219.83 L 284.99,217.78 L 286.95,216.70 L 290.68,214.21 L 292.51,212.92 L 295.93,210.03 L 297.60,208.54 L 300.67,205.29 L 302.15,203.63 L 304.30,200.74 M 259.51,226.42 L 259.47,226.67 L 259.25,226.75 L 258.67,226.89 L 258.15,226.93 L 256.97,226.98 L 256.13,226.98 L 256.75,226.98 L 257.77,226.92 L 258.24,226.88 L 258.90,226.75 L 259.18,226.68 L 259.42,226.50 L 259.27,226.19 L 259.09,226.07 L 259.12,226.04 M 295.75,190.40 L 294.83,191.85 L 292.96,194.65 L 291.99,195.83 L 289.88,198.76 L 289.39,199.61 L 289.24,199.95 L 289.00,200.55 L 289.00,200.73 L 289.05,201.28 L 289.14,201.47 L 289.36,201.81 L 289.53,201.89 L 290.38,202.01 L 291.00,201.77 L 292.36,201.08 L 293.18,200.44 L 294.92,198.99 L 295.88,198.00 L 298.92,195.17 L 299.75,194.52 L 300.07,194.32 L 300.62,194.00 L 300.76,194.00 L 301.11,193.78 L 300.92,194.12 L 298.20,198.02 L 296.79,199.92 L 293.61,203.41 L 291.97,205.10 L 288.38,208.14 L 286.53,209.59 L 282.57,212.13 L 280.55,213.33 L 276.26,215.32 L 269.50,217.64 L 268.17,217.99 L 265.25,218.50 L 263.79,218.72 L 262.74,218.80 L 263.88,218.55 L 264.76,218.15 L 266.60,217.17 L 267.68,216.44 L 270.42,214.56 L 271.08,214.09 L 271.31,213.93 L 271.67,213.67 L 271.70,213.63 L 271.33,213.54 L 270.64,213.50 L 270.12,213.49 L 268.98,213.47 L 268.28,213.47 L 266.79,213.48 L 265.97,213.50 L 263.67,213.60 L 262.33,213.73 L 261.77,213.82 L 260.70,214.03 L 260.27,214.15 L 259.48,214.43 L 259.19,214.60 L 258.67,214.95 L 258.51,215.15 L 258.27,215.57 L 258.25,215.81 L 258.28,216.31 L 258.40,216.58 L 258.71,217.15 L 258.96,217.46 L 259.93,218.41 L 260.49,218.64 L 261.46,218.90 L 261.00,218.93 L 259.67,219.00 L 257.54,218.89 L 257.08,218.84 L 256.36,218.68 L 256.04,218.59 L 255.67,218.33 L 255.48,218.15 L 255.20,217.25 L 255.02,215.58 L 255.02,215.20 L 255.07,214.68 L 255.10,214.46 L 255.22,214.26 L 255.29,214.21 L 255.48,214.33 L 255.89,214.85 L 256.06,215.12 L 256.37,215.44 L 256.53,215.56 L 256.85,215.56 L 257.02,215.51 L 257.40,215.18 L 258.12,214.30 L 258.34,214.00 L 259.12,213.42 L 259.56,213.13 L 260.74,212.60 L 261.38,212.35 L 262.94,211.88 L 265.65,211.28 L 267.86,210.88 L 272.13,209.57 L 274.23,208.84 L 278.24,206.91 L 280.21,205.86 L 283.90,203.33 L 288.99,198.90 L 290.33,197.56 L 292.68,194.70 L 293.80,193.25 L 295.74,190.22 L 296.62,188.75 M 308.53,215.56 L 308.30,215.79 L 308.77,215.29 M 321.01,210.95 L 320.92,211.08 L 321.21,210.65 M 332.16,187.98 L 330.81,191.94 L 330.10,193.91 L 328.40,197.83 L 327.52,199.77 L 325.51,203.59 L 324.47,205.48 L 322.18,209.14 L 322.07,209.31 L 322.86,208.02 L 324.98,204.41 L 325.96,202.56 L 327.85,198.83 L 328.69,196.95 L 330.30,193.21 L 330.97,191.38 L 332.22,187.74 M 313.85,199.84 L 313.28,200.85 L 311.80,203.03 L 311.31,203.72 L 311.45,203.51 L 311.93,202.77 L 313.87,199.67 L 314.42,198.69 M 324.93,188.08 L 324.29,190.06 L 322.90,193.98 L 322.05,195.87 L 320.27,199.61 L 319.66,200.66 L 320.30,199.45 L 322.61,194.27 L 323.66,191.72 L 325.23,186.72 L 325.54,185.61 M 260.28,199.93 L 261.41,199.80 L 261.77,199.67 L 262.36,199.39 L 262.40,199.32 L 262.35,199.44 L 261.83,199.70 L 261.49,199.82 L 260.38,199.94 L 257.92,200.00 L 257.84,200.00 M 253.52,198.97 L 253.52,198.97 L 253.52,198.97 M 308.10,194.68 L 306.60,197.18 L 305.71,198.56 L 308.23,194.42 M 269.17,136.16 L 269.59,136.26 L 270.99,136.98 L 271.40,137.20 L 272.36,137.77 L 274.05,138.82 L 275.32,139.63 L 277.62,141.40 L 278.74,142.31 L 280.74,144.27 L 281.70,145.28 L 283.40,147.41 L 284.22,148.49 L 285.62,150.76 L 286.28,151.91 L 287.37,154.30 L 287.88,155.51 L 288.67,157.98 L 289.03,159.22 L 289.51,161.76 L 289.72,163.03 L 289.89,165.59 L 289.94,166.88 L 289.81,169.45 L 289.71,170.74 L 289.27,173.29 L 289.01,174.57 L 288.26,177.07 L 287.84,178.32 L 286.78,180.76 L 286.21,181.96 L 284.84,184.30 L 284.12,185.45 L 282.43,187.66 L 281.55,188.75 L 279.55,190.80 L 276.19,193.69 L 275.30,194.36 L 273.94,195.29 L 273.31,195.70 L 272.31,196.13 L 271.84,196.29 L 271.00,196.30 L 269.69,195.90 L 268.95,195.57 L 267.17,195.44 L 266.28,195.45 L 265.89,195.56 L 267.84,194.72 L 269.31,193.88 L 269.93,193.43 L 271.06,192.51 L 271.43,192.08 L 272.00,191.26 L 272.00,190.94 L 271.64,190.66 L 271.08,190.57 L 270.69,190.56 L 268.83,190.62 L 267.74,190.76 L 265.55,191.11 L 264.66,191.35 L 263.84,191.60 L 263.54,191.73 L 263.04,192.00 L 263.00,192.06 L 262.83,191.64 L 261.80,190.59 L 261.43,190.32 L 261.07,189.90 L 260.96,189.70 L 261.22,189.35 L 261.44,189.18 L 262.44,188.81 L 264.90,188.12 L 265.80,187.89 L 267.57,187.17 L 268.44,186.78 L 270.12,185.75 L 270.95,185.20 L 272.51,183.91 L 273.28,183.23 L 274.70,181.69 L 275.39,180.90 L 276.63,179.16 L 277.23,178.27 L 278.27,176.37 L 278.76,175.40 L 279.56,173.37 L 280.47,170.21 L 280.75,168.89 L 280.70,165.94 L 280.57,164.43 L 279.77,161.32 L 279.28,159.76 L 277.80,156.76 L 274.94,152.66 L 273.73,151.29 L 271.34,149.15 L 270.14,148.17 L 267.67,146.77 L 266.41,146.16 L 263.69,145.43 L 260.74,145.15 L 264.88,145.18 L 266.52,145.16 L 267.23,145.14 L 268.57,145.10 L 269.06,145.07 L 272.33,145.43 L 274.25,146.23 L 275.06,146.90 L 276.30,147.90 L 276.80,148.22 L 277.70,148.76 L 278.03,148.86 L 278.60,148.94 L 278.76,148.81 L 279.00,148.44 L 279.00,148.08 L 278.61,147.26 L 278.01,146.50 L 277.57,146.05 L 275.52,144.07 L 274.26,143.04 L 271.67,141.01 L 270.50,140.24 L 269.38,139.54 L 268.91,139.30 L 268.04,138.90 L 267.74,138.85 L 266.10,138.65 L 266.28,138.64 L 266.71,138.61 L 267.37,138.53 L 267.97,138.44 L 268.52,138.12 L 268.61,137.42 L 268.41,136.90 L 268.42,136.31 L 268.51,136.10 M 254.68,193.91 L 253.50,193.96 L 254.68,193.91 M 257.96,193.57 L 256.89,193.69 L 256.55,193.72 L 259.04,193.38 M 318.66,189.35 L 318.63,189.43 L 318.67,189.32 M 301.34,175.70 L 301.08,177.28 L 300.92,177.96 L 299.52,182.47 L 298.21,185.66 L 297.42,187.25 L 296.72,188.57 L 298.20,185.50 L 298.92,183.90 L 300.06,180.61 L 300.58,178.95 L 301.33,175.59 L 301.44,174.99 M 311.62,186.82 L 311.35,187.45 L 311.53,187.00 L 312.04,185.39 M 319.34,187.20 L 319.26,187.45 L 319.50,186.62 M 249.23,182.07 L 247.12,182.31 L 246.41,182.48 L 245.19,182.85 L 244.80,183.12 L 244.16,183.70 L 243.95,184.10 L 243.55,184.89 L 243.56,185.15 L 243.74,185.59 L 244.15,185.72 L 244.63,185.83 L 244.97,185.87 L 245.72,185.93 L 246.21,185.95 L 247.28,185.98 L 247.94,185.98 L 248.86,185.99 L 248.75,185.99 L 247.18,186.04 L 246.47,186.05 L 245.39,186.04 L 244.90,186.03 L 244.23,185.94 L 243.94,185.89 L 243.62,185.72 L 243.49,185.63 L 243.43,185.36 L 243.43,185.07 L 243.93,184.14 L 244.18,183.66 L 244.78,183.00 L 245.12,182.71 L 246.17,182.35 L 246.79,182.20 L 248.66,182.06 L 249.19,182.03 L 249.77,182.02 M 322.26,163.10 L 322.36,167.49 L 322.36,169.68 L 322.03,174.09 L 321.80,176.29 L 321.02,180.67 L 320.58,182.86 L 319.89,185.26 L 320.26,183.61 L 321.03,179.92 L 321.32,178.01 L 321.83,174.16 L 321.99,172.22 L 322.24,168.34 L 322.27,166.43 L 322.24,162.94 M 270.48,175.13 L 270.05,176.41 L 270.04,176.75 L 270.23,177.41 L 270.57,177.63 L 271.37,178.00 L 271.89,178.00 L 272.77,177.72 L 273.37,177.26 L 273.66,176.92 L 274.68,175.48 L 274.01,176.78 L 273.49,177.69 L 272.35,179.26 L 271.76,180.00 L 270.41,181.26 L 269.70,181.86 L 268.08,182.84 L 267.22,183.30 L 265.27,184.03 L 264.25,184.37 L 263.77,184.48 L 264.01,184.35 L 264.29,184.11 L 265.14,183.05 L 265.28,182.33 L 265.44,181.15 L 265.42,180.64 L 265.33,180.51 L 265.11,180.34 L 264.91,180.36 L 264.45,180.47 L 264.12,180.62 L 262.80,180.94 L 261.41,181.15 L 262.22,180.95 L 263.07,180.72 L 264.59,180.13 L 265.32,179.81 L 266.61,179.05 L 267.23,178.64 L 268.32,177.70 L 268.85,177.20 L 269.76,176.06 L 270.94,174.11 L 271.35,173.32 M 307.48,178.54 L 306.87,180.94 L 305.96,183.43 L 307.13,179.75 L 307.54,178.16 M 326.41,181.84 L 326.10,183.22 L 326.69,179.93 M 313.93,178.64 L 313.38,180.77 L 314.06,177.49 L 314.22,176.63 M 326.91,178.48 L 327.66,170.50 L 327.06,177.44 M 247.54,177.07 L 247.84,177.39 L 248.03,177.47 L 247.50,177.50 L 247.51,177.02 M 256.03,175.43 L 255.82,175.73 L 255.26,176.22 L 254.94,176.45 L 254.15,176.79 L 253.72,176.95 L 253.38,177.02 L 253.89,176.80 L 255.40,176.03 L 255.89,175.54 L 256.17,175.16 M 314.90,161.84 L 315.02,164.65 L 315.03,170.27 L 314.73,173.07 L 314.52,174.52 L 314.82,171.73 L 314.97,169.81 L 315.00,165.98 L 314.97,164.07 L 314.62,160.29 L 314.46,158.91 M 272.90,166.04 L 272.90,167.12 L 272.79,169.25 L 272.56,170.24 L 271.97,172.18 L 271.59,172.83 L 271.64,172.74 L 272.45,170.00 L 272.76,168.64 L 272.82,166.01 L 272.79,165.38 M 308.71,170.89 L 308.62,171.45 L 308.82,167.38 M 276.56,170.33 L 276.53,170.43 L 276.77,169.04 M 326.62,152.25 L 327.52,157.79 L 327.69,160.79 L 327.81,163.84 L 327.80,165.45 L 327.75,168.74 L 327.75,168.74 L 327.80,165.46 L 327.81,163.84 L 327.69,160.80 L 327.52,157.80 L 326.63,152.26 L 326.29,150.59 M 284.15,159.46 L 284.13,159.57 L 284.10,159.87 L 284.13,160.13 L 284.22,160.72 L 284.30,161.14 L 284.50,162.05 L 284.64,162.63 L 284.95,163.88 L 285.14,164.64 L 285.52,166.06 L 285.70,166.58 L 286.05,167.49 L 286.21,167.75 L 286.53,168.15 L 286.68,168.16 L 286.98,168.06 L 287.12,167.83 L 287.81,166.31 L 287.96,165.31 L 287.87,164.80 L 287.58,163.74 L 287.27,163.16 L 286.54,161.96 L 286.00,161.27 L 284.67,159.70 L 284.39,159.46 L 284.30,159.44 M 308.87,165.67 L 308.84,166.81 L 308.75,164.75 L 308.67,163.42 M 268.95,151.65 L 270.43,152.78 L 271.14,153.37 L 272.37,154.78 L 272.96,155.52 L 274.02,157.25 L 275.45,160.23 L 275.94,161.41 L 276.46,163.32 L 276.39,163.15 L 275.91,162.22 L 275.57,161.77 L 274.83,160.89 L 274.35,160.45 L 273.13,159.38 L 272.43,158.83 L 272.14,158.63 L 271.60,158.30 L 271.39,158.21 L 271.01,158.10 L 270.88,158.12 L 270.67,158.22 L 270.63,158.35 L 270.59,158.66 L 270.64,158.89 L 270.78,159.42 L 270.80,159.46 L 270.49,158.93 L 269.79,157.89 L 267.97,156.09 L 266.99,155.25 L 264.66,153.91 L 263.44,153.30 L 261.84,152.84 L 263.18,152.97 L 263.82,153.04 L 265.00,153.15 L 265.40,153.20 L 267.56,153.09 L 268.11,152.93 L 268.30,152.82 L 268.63,152.57 L 268.68,152.42 L 268.64,151.67 L 268.43,151.37 M 264.37,115.57 L 265.52,115.68 L 268.12,116.17 L 269.46,116.46 L 272.32,117.28 L 273.77,117.73 L 276.73,118.85 L 278.21,119.44 L 281.11,120.83 L 285.24,123.17 L 287.45,124.58 L 291.47,127.97 L 293.42,129.74 L 296.88,133.77 L 298.54,135.85 L 301.38,140.38 L 302.72,142.69 L 304.89,147.59 L 305.89,150.07 L 307.34,155.21 L 307.97,157.80 L 308.16,159.28 L 308.09,158.96 L 307.71,157.45 L 307.48,156.87 L 306.99,155.84 L 306.70,155.55 L 305.49,154.70 L 304.81,154.53 L 304.64,154.69 L 304.04,154.65 L 303.61,154.14 L 303.44,153.71 L 302.63,152.74 L 301.89,152.49 L 301.54,152.62 L 300.97,153.05 L 300.75,153.50 L 300.72,153.83 L 300.70,154.56 L 300.76,155.05 L 300.94,156.13 L 301.10,156.81 L 301.47,158.94 L 301.60,160.02 L 301.40,158.63 L 300.62,155.32 L 300.18,153.68 L 299.04,150.47 L 298.42,148.88 L 296.91,145.81 L 296.11,144.30 L 294.25,141.40 L 293.27,139.98 L 291.06,137.29 L 289.91,135.97 L 287.34,133.53 L 286.02,132.34 L 283.11,130.17 L 278.38,127.28 L 277.54,126.83 L 275.53,125.91 L 274.48,125.45 L 272.24,124.57 L 271.12,124.14 L 268.94,123.41 L 266.01,122.58 L 265.13,122.37 L 263.63,121.99 L 263.53,121.97 L 264.79,121.95 L 265.98,121.88 L 269.69,121.90 L 270.65,121.99 L 270.98,122.06 L 271.55,122.22 L 271.64,122.31 L 272.37,122.75 L 272.92,122.86 L 274.10,123.01 L 274.71,122.98 L 275.89,122.85 L 276.31,122.70 L 277.00,122.33 L 277.00,122.06 L 276.51,121.46 L 275.74,120.87 L 275.18,120.52 L 273.94,119.77 L 273.20,119.36 L 271.64,118.54 L 270.79,118.13 L 268.37,117.06 L 266.95,116.52 L 266.33,116.34 L 265.14,116.04 L 264.64,115.98 L 263.68,115.91 L 263.29,115.97 L 262.55,116.15 L 262.26,116.33 L 261.74,116.75 L 261.55,117.06 L 261.23,117.72 L 261.14,118.15 L 261.00,119.06 L 261.00,119.61 L 261.11,121.02 L 261.24,121.29 L 261.19,121.27 L 260.30,120.92 L 259.88,120.74 L 259.25,120.36 L 258.68,119.98 L 258.19,119.08 L 258.19,117.36 L 258.30,116.83 L 259.17,116.11 L 259.70,115.81 L 261.31,115.54 L 262.19,115.45 M 282.03,153.35 L 282.00,153.63 L 282.01,154.31 L 282.13,154.82 L 282.44,155.96 L 282.72,156.67 L 283.03,157.44 L 283.13,157.66 L 283.32,157.99 L 283.39,157.99 L 283.52,157.88 L 283.59,157.65 L 283.72,157.09 L 283.81,156.64 L 283.76,155.01 L 283.39,153.99 L 283.09,153.69 L 282.33,153.21 M 313.54,153.47 L 314.06,156.25 L 314.32,157.94 L 313.70,154.68 L 313.30,152.83 L 312.41,149.77 M 247.05,153.18 L 247.20,153.56 L 247.49,154.38 L 247.59,154.92 L 247.76,156.08 L 247.80,156.80 L 247.81,156.88 L 247.75,156.13 L 247.56,154.92 L 247.46,154.36 L 247.17,153.52 L 247.02,153.15 M 252.91,152.00 L 251.00,152.00 L 251.00,151.82 M 244.06,151.86 L 243.84,151.78 L 243.47,151.47 L 243.31,151.28 L 243.11,150.77 L 243.00,149.75 L 243.46,151.46 M 326.07,149.50 L 326.07,149.51 L 325.72,148.41 M 247.37,147.79 L 248.09,147.81 L 249.90,147.90 L 253.25,148.08 L 254.95,148.18 L 257.97,148.47 L 259.42,148.63 L 260.13,148.76 L 260.07,148.75 L 258.01,148.49 L 256.87,148.38 L 254.53,148.18 L 253.25,148.11 L 249.90,147.91 L 248.09,147.82 L 247.37,147.80 L 246.05,147.77 L 245.55,147.78 L 244.64,147.82 L 244.32,147.87 L 243.75,147.99 L 243.76,147.99 L 244.32,147.87 L 244.65,147.81 L 245.55,147.77 L 246.05,147.76 M 311.87,147.99 L 312.05,148.59 L 311.84,147.93 M 255.88,144.90 L 255.85,144.89 L 255.25,144.72 M 254.82,144.56 L 255.17,144.70 L 255.08,144.68 L 254.77,144.54 L 254.58,144.07 L 254.71,143.00 L 254.59,144.08 M 252.37,141.00 L 252.37,141.00 L 251.56,140.66 L 251.56,140.66 L 251.56,140.66 M 267.11,102.82 L 268.47,102.99 L 271.47,103.60 L 273.00,103.95 L 276.27,104.90 L 277.93,105.41 L 281.36,106.69 L 286.52,108.95 L 288.59,109.95 L 292.49,112.26 L 294.40,113.45 L 297.96,116.12 L 299.70,117.49 L 302.92,120.49 L 304.49,122.02 L 307.36,125.32 L 308.75,126.99 L 311.25,130.55 L 312.46,132.35 L 312.88,133.11 L 312.43,132.39 L 312.13,132.03 L 311.58,131.46 L 311.41,131.45 L 309.39,131.08 L 308.16,130.60 L 307.66,130.28 L 306.74,129.60 L 306.45,129.22 L 306.00,128.42 L 306.00,128.02 L 305.55,126.72 L 304.82,126.37 L 304.25,126.46 L 302.67,126.39 L 301.66,126.08 L 301.34,125.82 L 300.29,125.48 L 299.67,125.79 L 299.43,126.20 L 299.13,126.91 L 299.24,127.00 L 299.45,126.81 L 299.95,126.80 L 300.44,127.05 L 300.74,127.27 L 302.07,128.41 L 302.77,129.18 L 304.15,130.79 L 304.65,131.55 L 305.11,132.29 L 305.26,132.61 L 305.49,133.20 L 305.50,133.42 L 305.74,134.27 L 306.10,135.20 L 306.37,135.80 L 307.62,138.48 L 308.41,139.99 L 308.45,140.10 L 307.79,138.82 L 306.88,137.16 L 304.81,133.99 L 303.74,132.42 L 301.36,129.45 L 300.13,128.00 L 297.44,125.26 L 296.05,123.92 L 293.06,121.44 L 291.53,120.24 L 288.24,118.05 L 283.00,115.12 L 280.31,113.79 L 274.89,111.74 L 273.57,111.28 L 271.04,110.57 L 267.50,109.82 L 266.58,109.67 L 264.97,109.38 L 264.21,109.24 L 262.90,108.94 L 261.66,108.65 L 259.98,108.00 L 259.25,107.66 L 258.45,106.85 L 258.00,105.35 L 258.00,104.74 L 258.66,103.83 L 259.09,103.42 L 260.53,102.91 L 261.33,102.70 L 263.41,102.58 L 264.51,102.57 M 253.84,138.86 L 253.26,138.97 L 252.21,139.19 L 251.87,139.33 L 251.32,139.60 L 251.34,139.53 L 251.95,139.19 L 252.34,139.04 L 253.63,138.83 L 254.37,138.74 L 255.07,138.72 M 315.61,138.04 L 316.11,139.19 L 315.83,138.61 L 315.02,136.94 M 329.06,136.88 L 329.29,137.54 L 327.69,133.92 M 324.18,127.21 L 326.00,130.29 L 326.64,131.67 L 325.32,129.26 L 323.37,125.94 M 305.92,115.56 L 309.78,119.43 L 311.53,121.54 L 314.93,125.88 L 316.44,128.21 L 318.08,130.91 L 316.36,128.11 L 314.80,125.74 L 311.26,121.31 L 309.43,119.16 L 305.41,115.18 L 304.93,114.73 M 320.35,121.21 L 320.95,122.16 L 320.20,121.12 L 318.61,119.03 M 313.58,113.10 L 313.91,113.48 L 313.16,112.70 M 264.50,89.07 L 265.22,89.13 L 266.89,89.34 L 267.76,89.47 L 269.72,89.84 L 273.00,90.55 L 276.73,91.42 L 283.81,93.80 L 287.28,95.10 L 293.80,98.28 L 296.98,99.97 L 302.89,103.93 L 305.77,105.99 L 311.03,110.67 L 311.24,110.87 L 310.39,110.15 L 309.78,109.81 L 308.57,109.27 L 307.89,109.15 L 306.43,109.00 L 305.49,109.00 L 302.18,108.62 L 301.27,108.37 L 300.93,108.22 L 300.33,107.90 L 300.19,107.72 L 298.65,106.76 L 297.19,106.29 L 296.46,106.23 L 295.28,106.26 L 295.08,106.52 L 295.31,106.81 L 295.59,107.14 L 295.83,107.35 L 296.35,107.81 L 296.71,108.09 L 297.49,108.71 L 297.98,109.08 L 299.03,109.86 L 299.66,110.33 L 300.45,110.99 L 298.90,109.78 L 296.63,108.11 L 291.83,105.18 L 289.40,103.79 L 284.31,101.47 L 281.74,100.39 L 276.43,98.71 L 269.74,97.28 L 270.75,97.42 L 271.98,97.46 L 273.17,97.49 L 273.69,97.47 L 274.66,97.42 L 275.00,97.35 L 277.28,97.03 L 278.77,96.89 L 279.25,96.88 L 280.69,96.66 L 281.01,96.31 L 280.87,96.08 L 280.39,95.56 L 279.87,95.27 L 278.63,94.66 L 277.75,94.35 L 273.06,92.71 L 270.55,91.84 L 269.57,91.51 L 267.75,90.92 L 267.06,90.71 L 265.80,90.36 L 265.34,90.27 L 264.51,90.14 L 264.20,90.15 L 263.66,90.21 L 263.45,90.31 L 262.72,90.85 L 262.27,91.30 L 261.37,92.28 L 261.08,92.77 L 261.07,93.00 L 261.17,93.45 L 261.37,93.71 L 261.86,94.29 L 262.25,94.68 L 263.24,95.39 L 264.15,95.86 L 264.69,96.08 L 266.48,96.69 L 265.32,96.49 L 264.44,96.33 L 262.94,95.99 L 262.24,95.81 L 261.09,95.43 L 260.55,95.23 L 259.73,94.79 L 259.36,94.57 L 258.83,94.06 L 258.60,93.80 L 258.35,93.21 L 258.48,91.05 L 258.59,90.73 L 258.96,90.21 L 259.17,89.96 L 259.77,89.59 L 260.11,89.42 L 260.96,89.19 L 261.42,89.10 L 262.53,89.02 L 263.12,89.00 M 264.46,102.88 L 263.63,103.27 L 263.14,103.61 L 261.58,104.95 L 261.10,105.73 L 261.14,106.09 L 261.43,106.82 L 261.86,107.20 L 262.92,107.98 L 263.75,108.43 L 265.35,109.19 L 266.15,109.44 L 267.74,109.84 L 268.45,109.90 L 269.81,109.93 L 270.33,109.79 L 271.24,109.43 L 271.45,109.09 L 272.58,108.53 L 273.82,108.38 L 274.50,108.45 L 276.27,108.54 L 277.00,108.47 L 277.00,108.38 L 276.54,108.01 L 275.81,107.56 L 275.28,107.26 L 274.12,106.62 L 273.42,106.25 L 271.95,105.48 L 271.14,105.07 L 269.34,104.17 L 268.33,103.69 L 267.90,103.51 L 266.41,102.91 L 265.86,102.81 L 264.89,102.74 M 253.04,239.43 L 253.00,239.56 L 253.00,239.55 Z" fill="rgba(134,108,190,1)"/>
<path d="M 163.56,375.39 L 164.00,376.33 L 164.00,376.67 L 164.21,377.35 L 164.35,377.70 L 164.81,378.38 L 165.32,379.05 L 166.96,380.29 L 167.87,380.87 L 170.09,381.80 L 173.79,382.66 L 174.61,382.76 L 176.01,383.03 L 176.67,383.17 L 177.72,383.51 L 178.21,383.69 L 178.91,384.06 L 179.21,384.25 L 179.53,384.63 L 179.63,384.81 L 179.55,385.15 L 179.45,385.31 L 178.94,385.57 L 178.63,385.69 L 177.68,385.85 L 175.72,385.92 L 174.56,385.90 L 172.30,385.72 L 171.78,385.67 L 170.92,385.55 L 170.52,385.48 L 170.00,385.35 L 169.02,385.02 L 167.34,384.29 L 166.54,383.91 L 165.22,383.04 L 164.60,382.59 L 163.59,381.57 L 162.41,379.84 L 161.96,378.96 L 161.40,377.60 L 161.18,376.98 L 161.07,376.10 L 161.08,375.72 L 161.44,375.26 L 162.50,375.00 L 162.91,375.00 M 251.63,318.23 L 251.74,318.37 L 251.90,318.94 L 252.00,320.26 L 252.00,320.67 L 251.86,321.71 L 251.77,322.28 L 251.47,323.60 L 251.13,324.98 L 250.02,328.33 L 249.41,330.08 L 247.87,333.85 L 245.25,339.51 L 243.99,342.00 L 240.97,346.86 L 239.38,349.27 L 235.76,353.92 L 233.88,356.20 L 229.76,360.55 L 227.64,362.68 L 223.11,366.66 L 220.80,368.59 L 215.95,372.11 L 213.49,373.81 L 208.43,376.80 L 205.87,378.22 L 200.68,380.59 L 192.85,383.38 L 191.33,383.81 L 188.85,384.41 L 187.70,384.67 L 185.89,384.91 L 185.06,384.99 L 183.86,384.88 L 183.33,384.78 L 182.67,384.33 L 182.34,384.00 L 182.05,383.41 L 181.96,383.13 L 182.14,382.67 L 182.28,382.46 L 182.89,382.18 L 184.25,381.99 L 184.56,381.99 L 185.60,381.85 L 186.17,381.75 L 187.60,381.45 L 192.50,380.16 L 195.66,379.20 L 201.78,376.65 L 204.81,375.28 L 210.61,371.96 L 213.47,370.22 L 218.87,366.21 L 221.52,364.13 L 226.45,359.51 L 228.84,357.14 L 233.22,351.98 L 235.33,349.35 L 239.07,343.73 L 240.86,340.87 L 243.89,334.88 L 247.56,325.54 L 247.84,324.65 L 248.40,323.09 L 248.68,322.35 L 249.21,321.10 L 249.47,320.52 L 249.96,319.59 L 250.20,319.17 L 250.63,318.59 L 250.84,318.35 L 251.19,318.13 L 251.36,318.07 M 206.72,311.31 L 206.81,311.43 L 206.84,311.82 L 206.84,312.04 L 206.67,312.65 L 206.56,313.00 L 206.18,313.90 L 205.96,314.39 L 205.34,315.63 L 205.00,316.30 L 204.13,317.92 L 202.52,320.85 L 201.31,323.04 L 199.10,327.11 L 198.04,329.09 L 196.15,332.70 L 195.24,334.44 L 193.68,337.54 L 192.94,339.02 L 191.74,341.57 L 191.18,342.78 L 190.33,344.75 L 189.96,345.67 L 189.51,347.02 L 189.33,347.61 L 189.28,348.31 L 189.67,348.57 L 190.64,348.19 L 193.02,347.57 L 194.23,347.29 L 196.67,346.91 L 197.84,346.76 L 199.76,346.71 L 200.18,346.71 L 200.83,346.80 L 201.43,347.05 L 201.80,347.41 L 201.97,347.99 L 201.96,348.13 L 201.75,348.39 L 201.61,348.52 L 201.14,348.78 L 200.87,348.91 L 200.09,349.18 L 199.66,349.32 L 198.56,349.61 L 197.96,349.76 L 196.49,350.10 L 193.84,350.66 L 192.83,350.87 L 190.98,351.26 L 190.10,351.45 L 188.62,351.78 L 187.94,351.93 L 187.00,352.16 L 186.36,352.34 L 186.36,352.35 L 186.23,352.58 L 186.16,352.73 L 185.91,353.20 L 185.64,353.74 L 184.78,355.44 L 184.30,356.38 L 183.13,358.71 L 181.14,362.67 L 180.50,363.96 L 179.39,366.14 L 178.86,367.17 L 177.94,368.88 L 177.51,369.68 L 176.77,370.94 L 176.42,371.52 L 175.82,372.38 L 175.54,372.77 L 175.07,373.26 L 174.85,373.47 L 174.46,373.63 L 174.28,373.67 L 173.97,373.54 L 173.81,373.44 L 173.54,373.06 L 173.45,372.93 L 173.63,372.04 L 173.76,371.51 L 174.31,369.98 L 174.63,369.15 L 175.49,367.18 L 177.03,363.94 L 177.59,362.82 L 178.57,360.73 L 179.03,359.72 L 179.75,358.01 L 180.06,357.22 L 180.43,356.07 L 180.52,355.19 L 180.27,354.93 L 179.30,355.01 L 178.75,355.14 L 177.32,355.86 L 176.57,356.28 L 174.86,357.49 L 173.99,358.15 L 172.17,359.69 L 171.27,360.49 L 169.53,362.22 L 168.68,363.09 L 167.18,364.84 L 166.47,365.70 L 165.39,367.32 L 164.43,369.44 L 164.25,370.14 L 163.56,371.25 L 162.39,372.00 L 161.87,372.00 L 161.29,371.51 L 161.08,371.19 L 161.06,370.18 L 161.11,369.62 L 161.56,368.22 L 161.84,367.48 L 162.70,365.84 L 163.17,365.00 L 164.34,363.25 L 164.96,362.37 L 166.38,360.65 L 167.11,359.81 L 168.69,358.27 L 171.16,356.31 L 172.35,355.51 L 175.50,353.70 L 176.29,353.27 L 177.81,352.47 L 179.84,351.51 L 180.84,351.07 L 182.36,350.19 L 183.07,349.69 L 184.35,348.23 L 184.68,347.79 L 185.38,346.71 L 185.74,346.12 L 186.55,344.67 L 186.98,343.89 L 187.95,341.99 L 189.68,338.56 L 190.76,336.39 L 192.79,332.39 L 193.78,330.45 L 195.62,326.93 L 196.52,325.23 L 198.16,322.21 L 198.95,320.77 L 200.38,318.27 L 201.07,317.09 L 202.26,315.14 L 202.83,314.24 L 203.79,312.87 L 204.23,312.25 L 204.93,311.47 L 205.68,311.00 L 206.19,311.00 M 260.35,358.95 L 260.77,359.37 L 260.90,360.04 L 259.99,361.03 L 259.51,361.33 L 258.59,361.71 L 258.14,361.86 L 257.32,361.94 L 256.93,361.95 L 256.27,361.72 L 255.97,361.57 L 255.53,361.05 L 255.41,360.86 L 255.41,360.46 L 255.44,360.26 L 255.69,359.88 L 255.99,359.50 L 257.07,358.91 L 257.65,358.66 L 258.89,358.49 M 318.88,358.83 L 319.50,360.00 L 319.50,360.41 L 318.81,361.16 L 317.16,361.83 L 316.71,361.90 L 316.05,361.90 L 315.75,361.89 L 315.39,361.71 L 315.23,361.60 L 315.11,361.20 L 315.08,360.97 L 315.17,360.33 L 315.28,359.78 L 316.03,359.05 L 316.45,358.74 L 317.50,358.53 L 318.01,358.49 M 356.64,306.15 L 356.79,306.25 L 356.94,306.61 L 356.98,306.81 L 356.91,307.39 L 356.84,307.70 L 356.54,308.51 L 356.37,308.94 L 355.85,309.98 L 355.56,310.53 L 354.80,311.82 L 354.40,312.50 L 353.41,314.05 L 351.66,316.67 L 348.86,320.78 L 343.41,329.51 L 342.09,331.67 L 339.63,335.87 L 338.43,337.94 L 336.28,341.82 L 335.26,343.71 L 333.53,347.07 L 332.73,348.67 L 331.53,351.33 L 331.27,351.94 L 330.86,353.00 L 330.68,353.50 L 330.44,354.31 L 330.34,354.69 L 330.28,355.24 L 330.41,355.74 L 330.49,355.83 L 331.03,355.63 L 331.34,355.47 L 332.25,354.85 L 332.73,354.49 L 333.89,353.53 L 335.77,351.81 L 337.71,349.94 L 341.29,346.81 L 343.02,345.35 L 346.12,343.10 L 346.86,342.59 L 348.23,341.76 L 348.90,341.38 L 350.12,340.79 L 350.70,340.53 L 351.75,340.20 L 353.11,340.00 L 354.09,340.00 L 355.46,340.44 L 356.05,340.74 L 356.64,341.84 L 356.74,342.16 L 356.81,342.94 L 356.82,343.36 L 356.70,344.34 L 356.62,344.85 L 356.32,346.04 L 355.67,348.06 L 355.21,349.35 L 354.49,352.00 L 354.34,352.62 L 354.13,353.68 L 354.00,354.86 L 354.00,355.31 L 354.11,355.93 L 354.19,356.20 L 354.57,356.48 L 354.80,356.58 L 355.55,356.59 L 357.25,356.34 L 357.86,356.22 L 359.26,355.87 L 359.99,355.67 L 361.58,355.16 L 363.21,354.61 L 366.84,353.15 L 368.69,352.37 L 372.50,350.55 L 378.00,347.58 L 378.78,347.12 L 380.14,346.37 L 380.79,346.02 L 381.90,345.48 L 382.42,345.23 L 383.27,344.89 L 383.66,344.75 L 384.26,344.63 L 384.53,344.59 L 384.87,344.67 L 385.01,344.74 L 385.11,345.03 L 385.12,345.20 L 384.96,345.70 L 384.42,346.69 L 384.24,346.98 L 383.17,347.84 L 382.54,348.30 L 380.73,349.42 L 379.75,350.00 L 377.42,351.28 L 376.21,351.93 L 373.57,353.26 L 370.90,354.58 L 365.56,356.92 L 364.30,357.44 L 362.04,358.28 L 359.28,359.11 L 358.25,359.35 L 356.65,359.64 L 355.92,359.76 L 354.81,359.81 L 354.30,359.80 L 353.52,359.60 L 352.53,359.03 L 352.06,358.64 L 351.47,357.31 L 351.23,356.57 L 351.11,354.66 L 351.10,353.65 L 351.45,351.33 L 352.50,347.54 L 352.89,346.45 L 353.38,344.63 L 353.48,344.24 L 353.57,343.66 L 353.53,343.20 L 353.40,343.06 L 352.99,342.97 L 352.76,342.96 L 352.15,343.10 L 351.83,343.20 L 351.03,343.59 L 350.61,343.81 L 349.61,344.43 L 349.09,344.78 L 347.89,345.64 L 347.27,346.11 L 345.87,347.22 L 345.15,347.80 L 343.54,349.16 L 340.90,351.47 L 339.84,352.42 L 337.98,354.04 L 337.08,354.80 L 335.53,356.07 L 334.79,356.66 L 333.52,357.60 L 332.91,358.04 L 331.89,358.66 L 331.40,358.94 L 330.60,359.27 L 330.22,359.40 L 329.60,359.46 L 329.31,359.45 L 328.85,359.25 L 328.63,359.12 L 328.30,358.67 L 327.97,358.14 L 327.77,356.42 L 327.74,355.47 L 328.11,353.11 L 328.35,351.88 L 329.23,349.13 L 331.08,344.85 L 331.87,343.29 L 333.89,339.59 L 334.96,337.67 L 337.40,333.50 L 339.90,329.27 L 345.28,320.73 L 346.59,318.69 L 349.04,314.99 L 350.23,313.23 L 352.29,310.31 L 352.78,309.64 L 353.63,308.51 L 354.04,307.98 L 354.72,307.16 L 355.04,306.78 L 355.54,306.30 L 356.03,306.00 L 356.29,306.00 M 313.86,344.66 L 314.07,344.92 L 314.13,345.08 L 313.99,345.61 L 313.42,346.69 L 313.29,346.90 L 312.31,347.64 L 311.72,348.06 L 309.99,349.13 L 309.06,349.69 L 306.82,350.96 L 305.66,351.60 L 303.13,352.95 L 300.58,354.30 L 295.60,356.71 L 294.44,357.25 L 292.44,358.12 L 290.16,358.96 L 289.42,359.17 L 287.59,359.25 L 286.69,359.23 L 285.18,358.87 L 284.77,358.72 L 284.17,358.42 L 283.90,358.26 L 283.58,357.96 L 283.45,357.81 L 283.39,357.51 L 283.40,357.37 L 283.60,357.09 L 283.87,356.81 L 285.18,356.32 L 288.23,355.74 L 288.87,355.66 L 290.72,355.12 L 291.72,354.79 L 294.16,353.80 L 295.43,353.25 L 298.28,351.89 L 302.82,349.51 L 304.05,348.82 L 306.21,347.67 L 307.23,347.13 L 308.96,346.27 L 309.77,345.88 L 311.10,345.30 L 311.71,345.05 L 312.65,344.76 L 313.07,344.65 L 313.63,344.63 M 282.67,341.33 L 285.68,342.20 L 286.70,342.57 L 287.99,343.37 L 288.52,343.79 L 288.84,344.78 L 288.87,345.30 L 288.22,346.56 L 286.17,348.85 L 285.39,349.58 L 283.99,351.16 L 283.68,351.54 L 283.20,352.21 L 282.74,353.00 L 282.55,353.51 L 282.28,353.81 L 282.08,353.20 L 282.07,353.00 L 281.79,352.86 L 281.61,352.84 L 281.02,353.04 L 280.69,353.18 L 279.82,353.70 L 278.25,354.83 L 277.27,355.59 L 275.52,356.74 L 274.67,357.25 L 273.12,357.91 L 272.37,358.18 L 270.93,358.39 L 270.21,358.45 L 268.80,358.24 L 268.11,358.09 L 267.18,357.38 L 266.79,356.97 L 266.41,355.82 L 266.29,355.20 L 266.41,353.75 L 266.53,352.99 L 267.10,351.36 L 267.43,350.53 L 268.40,348.83 L 268.92,347.99 L 270.23,346.37 L 270.92,345.59 L 272.53,344.17 L 275.20,342.40 L 276.03,341.97 L 277.62,341.43 L 278.42,341.20 L 280.05,341.07 L 280.88,341.05 M 280.42,344.10 L 279.74,344.25 L 278.24,344.86 L 277.47,345.21 L 275.91,346.16 L 275.14,346.66 L 273.69,347.84 L 272.99,348.45 L 271.80,349.75 L 271.25,350.41 L 270.49,351.73 L 270.00,353.62 L 270.00,354.35 L 270.20,355.28 L 270.35,355.66 L 270.92,355.87 L 271.27,355.89 L 272.34,355.38 L 272.94,355.04 L 274.62,353.83 L 275.91,352.86 L 278.24,350.91 L 279.35,349.95 L 281.15,348.20 L 281.95,347.38 L 282.98,346.06 L 283.18,345.77 L 283.39,345.32 L 283.40,344.84 L 283.14,344.42 L 282.22,344.05 L 281.71,343.93 M 130.91,341.51 L 131.58,342.75 L 131.73,343.23 L 132.35,344.78 L 133.47,347.19 L 133.76,347.77 L 134.13,348.63 L 134.27,349.02 L 134.34,349.61 L 134.34,349.89 L 134.10,350.36 L 133.42,351.07 L 133.13,351.31 L 132.65,351.51 L 132.42,351.55 L 131.98,351.32 L 131.77,351.14 L 131.31,350.40 L 131.07,349.96 L 130.50,348.65 L 130.07,347.61 L 129.48,345.70 L 129.24,344.79 L 129.06,343.27 L 129.01,342.57 L 129.23,341.61 L 130.03,341.00 L 130.32,341.00 M 218.80,284.02 L 224.15,284.43 L 226.74,284.71 L 231.38,285.67 L 233.61,286.21 L 237.55,287.72 L 239.44,288.55 L 242.68,290.61 L 244.21,291.71 L 246.76,294.32 L 247.95,295.70 L 249.80,298.87 L 250.65,300.53 L 251.82,304.26 L 252.80,310.49 L 252.86,311.31 L 252.95,312.67 L 252.99,313.31 L 253.04,314.32 L 253.05,314.79 L 253.05,315.49 L 253.04,315.81 L 252.97,316.24 L 252.89,316.61 L 252.51,316.68 L 251.57,316.06 L 250.97,315.56 L 250.36,314.22 L 250.28,311.57 L 250.40,310.73 L 250.37,308.98 L 249.96,307.01 L 249.86,306.81 L 249.53,306.09 L 249.35,305.69 L 248.91,304.68 L 247.43,301.19 L 246.88,299.88 L 245.34,297.53 L 244.50,296.40 L 242.40,294.41 L 241.29,293.47 L 238.68,291.85 L 237.32,291.08 L 234.26,289.83 L 232.68,289.24 L 229.23,288.34 L 227.45,287.94 L 223.65,287.39 L 221.71,287.16 L 217.61,286.97 L 215.53,286.92 L 211.19,287.07 L 209.00,287.20 L 204.47,287.70 L 202.18,287.99 L 197.52,288.84 L 195.18,289.31 L 190.43,290.50 L 188.05,291.13 L 183.27,292.66 L 180.88,293.46 L 176.13,295.32 L 173.76,296.30 L 169.08,298.49 L 166.75,299.63 L 162.20,302.15 L 155.57,306.30 L 154.04,307.34 L 151.03,309.67 L 149.55,310.87 L 146.71,313.45 L 145.32,314.76 L 142.72,317.49 L 141.46,318.86 L 139.18,321.62 L 138.09,323.00 L 136.22,325.70 L 135.34,327.03 L 133.96,329.57 L 133.33,330.81 L 132.51,333.09 L 132.00,336.09 L 132.00,336.88 L 131.54,338.21 L 130.36,339.41 L 130.00,339.55 L 129.53,339.59 L 129.32,339.55 L 129.12,339.13 L 129.05,338.85 L 129.08,337.81 L 129.12,337.21 L 129.36,335.42 L 129.58,333.81 L 130.64,330.46 L 131.27,328.77 L 133.11,325.29 L 134.11,323.54 L 136.64,320.02 L 137.99,318.26 L 141.14,314.77 L 142.78,313.04 L 146.48,309.65 L 148.39,307.98 L 152.56,304.78 L 154.70,303.22 L 159.27,300.28 L 166.50,296.26 L 168.40,295.31 L 172.35,293.54 L 174.35,292.69 L 178.45,291.13 L 182.58,289.62 L 191.08,287.27 L 195.33,286.21 L 203.76,284.85 L 205.84,284.57 L 209.92,284.22 L 215.86,284.01 Z" fill="rgba(11,11,11,1)"/>
<path d="M 244.39,391.15 L 244.58,391.26 L 244.77,391.69 L 244.85,391.94 L 244.83,392.73 L 244.58,394.40 L 244.37,395.54 L 244.44,397.29 L 245.30,399.16 L 245.68,399.53 L 246.14,400.48 L 246.25,401.76 L 246.08,402.25 L 245.48,402.77 L 245.14,402.96 L 244.30,402.91 L 243.86,402.82 L 242.92,402.23 L 242.45,401.87 L 241.56,400.78 L 240.91,399.85 L 240.31,397.68 L 240.12,396.59 L 240.35,394.50 L 240.46,394.00 L 240.81,393.11 L 241.00,392.69 L 241.52,392.01 L 241.80,391.69 L 242.48,391.27 L 243.65,391.00 L 243.96,391.00 M 276.27,390.87 L 276.51,391.11 L 276.80,391.50 L 276.91,391.69 L 276.94,392.01 L 276.08,392.95 L 275.79,393.13 L 275.43,393.46 L 275.29,393.62 L 275.26,393.98 L 275.28,394.16 L 275.57,394.63 L 276.40,395.54 L 276.87,396.01 L 277.45,397.18 L 277.56,398.71 L 277.40,399.11 L 277.16,399.86 L 277.00,400.58 L 277.00,400.70 L 276.57,400.88 L 275.53,401.00 L 275.13,401.00 L 274.64,400.63 L 274.46,400.40 L 274.55,399.74 L 274.68,399.40 L 274.22,398.56 L 272.76,397.49 L 271.93,397.13 L 270.85,396.04 L 270.42,395.46 L 270.15,394.16 L 270.12,393.51 L 270.68,392.29 L 272.46,390.84 L 272.96,390.61 L 273.77,390.32 L 274.15,390.21 L 274.77,390.16 M 294.70,391.35 L 295.45,392.12 L 295.78,392.60 L 296.13,394.06 L 296.06,396.80 L 295.94,397.52 L 295.71,398.49 L 295.60,398.91 L 295.32,399.31 L 295.16,399.45 L 294.75,399.38 L 294.52,399.28 L 293.88,398.80 L 293.30,398.34 L 292.47,397.14 L 292.11,396.52 L 291.75,395.18 L 291.64,394.52 L 291.79,393.30 L 292.65,391.87 L 292.93,391.64 L 293.47,391.39 L 293.73,391.29 L 294.22,391.29 M 262.48,238.31 L 263.03,238.41 L 263.86,238.65 L 264.54,239.07 L 264.63,239.21 L 265.06,239.46 L 265.31,239.57 L 265.99,239.74 L 268.55,239.85 L 269.47,239.77 L 271.07,239.86 L 271.43,239.89 L 271.97,240.02 L 272.45,240.28 L 272.60,240.48 L 272.66,240.66 L 272.41,240.58 L 272.33,240.52 L 271.82,240.60 L 271.52,240.68 L 270.65,240.99 L 267.26,242.58 L 266.57,242.94 L 264.90,243.57 L 264.03,243.86 L 262.12,244.34 L 260.18,244.77 L 256.22,245.14 L 255.27,245.19 L 253.55,245.15 L 252.72,245.11 L 251.36,244.89 L 250.73,244.76 L 249.88,244.34 L 249.53,244.11 L 249.33,243.50 L 249.33,243.09 L 249.87,242.44 L 251.17,242.00 L 251.75,242.00 L 252.52,241.48 L 253.00,240.00 L 253.00,239.56 L 253.18,238.95 L 253.32,238.68 L 253.93,238.34 L 254.31,238.20 L 255.58,238.07 L 258.44,238.00 L 259.94,238.00 M 260.55,225.35 L 261.02,225.37 L 262.15,225.46 L 263.31,225.58 L 265.93,226.03 L 269.38,226.94 L 269.88,227.13 L 270.46,227.43 L 270.68,227.58 L 270.66,227.93 L 270.57,228.12 L 269.88,228.66 L 268.00,229.86 L 267.08,230.42 L 265.10,231.22 L 264.12,231.57 L 262.26,231.90 L 261.36,232.01 L 259.90,231.85 L 259.25,231.70 L 258.50,231.00 L 258.33,230.72 L 257.53,230.29 L 256.06,230.00 L 255.56,230.00 L 254.41,229.56 L 253.00,228.50 L 252.73,228.18 L 252.51,227.72 L 252.45,227.52 L 252.75,227.26 L 252.97,227.15 L 253.90,227.05 L 256.13,226.98 L 256.97,226.98 L 258.15,226.93 L 258.67,226.89 L 259.25,226.75 L 259.47,226.67 L 259.51,226.42 L 259.00,225.91 L 258.79,225.77 L 258.81,225.56 L 258.88,225.47 L 259.38,225.38 L 259.68,225.34 M 270.12,213.49 L 270.64,213.50 L 271.33,213.54 L 271.70,213.63 L 271.67,213.67 L 271.31,213.93 L 271.08,214.09 L 270.42,214.56 L 267.68,216.44 L 266.60,217.17 L 264.76,218.15 L 263.88,218.55 L 262.39,218.88 L 261.69,218.96 L 260.49,218.64 L 259.93,218.41 L 258.96,217.46 L 258.71,217.15 L 258.40,216.58 L 258.28,216.31 L 258.25,215.81 L 258.27,215.57 L 258.51,215.15 L 258.67,214.95 L 259.19,214.60 L 259.48,214.43 L 260.27,214.15 L 260.70,214.03 L 261.77,213.82 L 262.33,213.73 L 263.67,213.60 L 265.97,213.50 L 266.79,213.48 L 268.28,213.47 L 268.98,213.47 M 271.08,190.57 L 271.64,190.66 L 272.00,190.94 L 272.00,191.26 L 271.43,192.08 L 271.06,192.51 L 269.93,193.43 L 269.31,193.88 L 267.84,194.72 L 265.50,195.73 L 264.58,196.03 L 263.35,196.89 L 263.10,197.12 L 262.79,197.61 L 262.64,198.36 L 262.67,198.69 L 262.49,199.17 L 262.36,199.39 L 261.77,199.67 L 261.41,199.80 L 260.28,199.93 L 257.84,200.00 L 256.75,200.00 L 255.26,199.95 L 254.61,199.90 L 253.89,199.71 L 253.62,199.59 L 253.51,199.20 L 253.52,198.96 L 253.86,198.29 L 254.20,197.67 L 254.22,196.69 L 253.16,195.32 L 252.78,195.04 L 252.32,194.64 L 252.14,194.47 L 252.08,194.25 L 252.10,194.16 L 252.47,194.05 L 253.50,193.96 L 254.68,193.91 L 256.89,193.69 L 257.96,193.57 L 259.80,193.25 L 260.66,193.09 L 261.92,192.72 L 262.95,192.14 L 263.04,192.00 L 263.54,191.73 L 263.84,191.60 L 264.66,191.35 L 265.55,191.11 L 267.74,190.76 L 268.83,190.62 L 270.69,190.56 M 265.33,180.51 L 265.42,180.64 L 265.44,181.15 L 265.28,182.33 L 265.14,183.05 L 264.29,184.11 L 264.01,184.35 L 263.26,184.75 L 262.85,184.93 L 261.80,185.23 L 261.23,185.37 L 259.83,185.58 L 259.08,185.68 L 257.28,185.81 L 256.33,185.87 L 254.10,185.94 L 250.21,185.99 L 249.36,185.99 L 247.94,185.98 L 247.28,185.98 L 246.21,185.95 L 245.72,185.93 L 244.97,185.87 L 244.63,185.83 L 244.15,185.72 L 243.74,185.59 L 243.56,185.15 L 243.55,184.89 L 243.95,184.10 L 244.16,183.70 L 244.80,183.12 L 245.19,182.85 L 246.41,182.48 L 247.12,182.31 L 249.23,182.07 L 249.83,182.01 L 251.24,181.91 L 253.73,181.78 L 254.94,181.72 L 257.26,181.55 L 258.39,181.47 L 260.40,181.26 L 261.34,181.16 L 262.80,180.94 L 264.12,180.62 L 264.45,180.47 L 264.91,180.36 L 265.11,180.34 M 271.39,158.21 L 271.60,158.30 L 272.14,158.63 L 272.43,158.83 L 273.13,159.38 L 274.35,160.45 L 274.83,160.89 L 275.57,161.77 L 275.91,162.22 L 276.39,163.15 L 276.60,163.63 L 276.85,164.68 L 277.00,166.43 L 277.00,167.73 L 276.52,170.43 L 276.23,171.76 L 275.31,174.17 L 274.81,175.29 L 273.66,176.92 L 273.37,177.26 L 272.77,177.72 L 271.89,178.00 L 271.37,178.00 L 270.57,177.63 L 270.23,177.41 L 270.04,176.75 L 270.05,176.41 L 270.48,175.13 L 271.50,173.00 L 271.97,172.18 L 272.56,170.24 L 272.79,169.25 L 272.90,167.12 L 272.90,166.04 L 272.54,163.92 L 271.47,160.95 L 271.24,160.50 L 270.92,159.76 L 270.78,159.42 L 270.64,158.89 L 270.59,158.66 L 270.63,158.35 L 270.67,158.22 L 270.88,158.12 L 271.01,158.10 M 247.37,147.80 L 248.09,147.82 L 249.90,147.91 L 253.25,148.11 L 254.53,148.18 L 256.87,148.38 L 258.01,148.49 L 260.07,148.75 L 261.06,148.89 L 262.80,149.20 L 263.64,149.36 L 265.06,149.72 L 265.73,149.91 L 266.80,150.32 L 267.29,150.52 L 268.00,150.97 L 268.31,151.19 L 268.64,151.67 L 268.68,152.42 L 268.63,152.57 L 268.30,152.82 L 268.11,152.93 L 267.56,153.09 L 265.40,153.20 L 265.00,153.15 L 263.82,153.04 L 263.18,152.97 L 261.66,152.82 L 256.75,152.36 L 251.00,151.82 L 251.00,164.62 L 251.01,166.68 L 251.02,167.65 L 251.06,169.29 L 251.08,170.06 L 251.15,171.31 L 251.18,171.90 L 251.28,172.82 L 251.34,173.24 L 251.48,173.87 L 251.55,174.16 L 251.74,174.54 L 252.50,175.00 L 252.81,175.00 L 253.25,174.62 L 253.45,174.35 L 253.71,173.24 L 253.76,172.91 L 253.85,172.06 L 253.89,171.60 L 253.94,170.48 L 253.96,169.89 L 253.99,168.46 L 254.00,165.96 L 254.00,165.01 L 254.01,163.40 L 254.02,162.64 L 254.05,161.39 L 254.07,160.81 L 254.13,159.88 L 254.16,159.46 L 254.25,158.83 L 254.35,158.27 L 254.67,157.89 L 255.37,158.20 L 255.88,158.67 L 256.22,159.81 L 256.25,160.13 L 256.14,160.89 L 255.75,162.29 L 255.41,163.27 L 255.30,165.51 L 255.33,166.10 L 255.52,167.42 L 256.03,169.62 L 256.30,170.56 L 256.62,171.97 L 256.75,172.61 L 256.80,173.55 L 256.79,173.98 L 256.56,174.65 L 255.89,175.54 L 255.40,176.03 L 253.89,176.80 L 253.08,177.14 L 251.32,177.57 L 250.45,177.73 L 248.95,177.70 L 248.61,177.67 L 248.07,177.49 L 247.84,177.39 L 247.54,177.07 L 247.45,176.91 L 247.33,175.86 L 247.28,175.22 L 247.25,173.39 L 247.25,172.40 L 247.32,170.03 L 247.54,166.13 L 247.64,164.75 L 247.77,162.35 L 247.82,161.21 L 247.86,159.26 L 247.87,158.34 L 247.80,156.80 L 247.76,156.08 L 247.59,154.92 L 247.49,154.38 L 247.20,153.56 L 247.05,153.18 L 246.64,152.65 L 246.42,152.42 L 245.89,152.15 L 244.93,152.00 L 244.26,152.00 L 243.46,151.46 L 243.00,149.75 L 243.00,149.19 L 243.17,148.47 L 243.26,148.32 L 243.57,148.09 L 243.75,147.99 L 244.32,147.87 L 244.64,147.82 L 245.55,147.78 L 246.05,147.77 M 264.58,169.20 L 264.58,169.32 L 264.38,169.73 L 263.00,171.50 L 262.39,172.15 L 261.35,173.06 L 260.86,173.46 L 260.09,173.86 L 259.74,174.00 L 259.28,173.87 L 259.10,173.74 L 259.00,173.06 L 259.00,172.79 L 259.64,171.97 L 260.04,171.54 L 261.16,170.62 L 261.75,170.18 L 262.95,169.48 L 264.40,169.00 L 264.53,169.00 M 284.39,159.46 L 284.67,159.70 L 286.00,161.27 L 286.54,161.96 L 287.27,163.16 L 287.58,163.74 L 287.87,164.80 L 287.96,165.31 L 287.81,166.31 L 287.12,167.83 L 286.98,168.06 L 286.68,168.16 L 286.53,168.15 L 286.21,167.75 L 286.05,167.49 L 285.70,166.58 L 285.52,166.06 L 285.14,164.64 L 284.95,163.88 L 284.64,162.63 L 284.50,162.05 L 284.30,161.14 L 284.22,160.72 L 284.13,160.13 L 284.10,159.87 L 284.13,159.57 L 284.15,159.46 L 284.30,159.44 M 283.09,153.69 L 283.39,153.99 L 283.76,155.01 L 283.81,156.64 L 283.72,157.09 L 283.59,157.65 L 283.52,157.88 L 283.39,157.99 L 283.32,157.99 L 283.13,157.66 L 283.03,157.44 L 282.72,156.67 L 282.44,155.96 L 282.13,154.82 L 282.01,154.31 L 282.00,153.63 L 282.03,153.35 L 282.33,153.21 M 262.98,138.44 L 263.87,138.46 L 265.53,138.58 L 267.74,138.85 L 268.04,138.90 L 268.91,139.30 L 269.38,139.54 L 270.50,140.24 L 271.67,141.01 L 274.26,143.04 L 275.52,144.07 L 277.57,146.05 L 278.01,146.50 L 278.61,147.26 L 279.00,148.08 L 279.00,148.44 L 278.76,148.81 L 278.60,148.94 L 278.03,148.86 L 277.70,148.76 L 276.80,148.22 L 276.30,147.90 L 275.06,146.90 L 274.25,146.23 L 272.33,145.43 L 269.06,145.07 L 268.57,145.10 L 267.23,145.14 L 266.52,145.16 L 264.88,145.18 L 259.84,145.14 L 259.20,145.12 L 258.13,145.09 L 257.63,145.06 L 256.81,145.01 L 256.05,144.94 L 255.17,144.70 L 254.82,144.56 L 254.59,144.08 L 254.71,143.00 L 254.81,142.61 L 254.86,142.03 L 254.85,141.77 L 254.66,141.42 L 254.54,141.26 L 254.07,141.09 L 253.03,141.00 L 252.37,141.00 L 251.56,140.66 L 251.26,139.75 L 251.31,139.60 L 251.87,139.33 L 252.21,139.19 L 253.26,138.97 L 253.84,138.86 L 255.26,138.69 L 256.00,138.61 L 257.67,138.50 L 259.37,138.41 M 264.64,115.98 L 265.14,116.04 L 266.33,116.34 L 266.95,116.52 L 268.37,117.06 L 270.79,118.13 L 271.64,118.54 L 273.20,119.36 L 273.94,119.77 L 275.18,120.52 L 275.74,120.87 L 276.51,121.46 L 277.00,122.06 L 277.00,122.33 L 276.31,122.70 L 275.89,122.85 L 274.71,122.98 L 274.10,123.01 L 272.92,122.86 L 272.37,122.75 L 271.64,122.31 L 271.55,122.22 L 270.98,122.06 L 270.65,121.99 L 269.69,121.90 L 265.98,121.88 L 264.79,121.95 L 263.20,121.97 L 262.51,121.96 L 261.71,121.75 L 261.39,121.60 L 261.11,121.02 L 261.00,119.61 L 261.00,119.06 L 261.14,118.15 L 261.23,117.72 L 261.55,117.06 L 261.74,116.75 L 262.26,116.33 L 262.55,116.15 L 263.29,115.97 L 263.68,115.91 M 265.86,102.81 L 266.41,102.91 L 267.90,103.51 L 268.33,103.69 L 269.34,104.17 L 271.14,105.07 L 271.95,105.48 L 273.42,106.25 L 274.12,106.62 L 275.28,107.26 L 275.81,107.56 L 276.54,108.01 L 277.00,108.38 L 277.00,108.47 L 276.27,108.54 L 274.50,108.45 L 273.82,108.38 L 272.58,108.53 L 271.45,109.09 L 271.24,109.43 L 270.33,109.79 L 269.81,109.93 L 268.45,109.90 L 267.74,109.84 L 266.15,109.44 L 265.35,109.19 L 263.75,108.43 L 262.92,107.98 L 261.86,107.20 L 261.43,106.82 L 261.14,106.09 L 261.10,105.73 L 261.58,104.95 L 263.14,103.61 L 263.63,103.27 L 264.46,102.88 L 264.89,102.74 M 265.34,90.27 L 265.80,90.36 L 267.06,90.71 L 267.75,90.92 L 269.57,91.51 L 270.55,91.84 L 273.06,92.71 L 277.75,94.35 L 278.63,94.66 L 279.87,95.27 L 280.39,95.56 L 280.87,96.08 L 281.01,96.31 L 280.69,96.66 L 279.25,96.88 L 278.77,96.89 L 277.28,97.03 L 275.00,97.35 L 274.66,97.42 L 273.69,97.47 L 273.17,97.49 L 271.98,97.46 L 270.75,97.42 L 268.21,97.08 L 267.03,96.88 L 264.69,96.08 L 264.15,95.86 L 263.24,95.39 L 262.25,94.68 L 261.86,94.29 L 261.37,93.71 L 261.17,93.45 L 261.07,93.00 L 261.08,92.77 L 261.37,92.28 L 262.27,91.30 L 262.72,90.85 L 263.45,90.31 L 263.66,90.21 L 264.20,90.15 L 264.51,90.14 Z" fill="rgba(133,113,198,1)"/>
<path d="M 308.93,400.31 L 308.55,399.33 L 308.21,397.29 L 308.10,396.28 L 308.24,394.43 L 308.36,393.56 L 308.94,392.23 L 310.25,391.18 L 310.61,391.12 L 311.14,391.19 L 311.37,391.28 L 311.67,391.77 L 311.80,392.08 L 311.93,393.12 L 312.00,395.43 L 312.00,396.28 L 312.08,397.58 L 312.13,398.16 L 312.33,398.99 L 312.45,399.35 L 312.80,399.76 L 313.50,400.00 L 313.78,400.00 L 314.20,399.77 L 314.40,399.60 L 314.67,399.00 L 314.78,398.65 L 314.92,397.61 L 315.00,395.50 L 315.00,394.52 L 315.07,393.14 L 315.13,392.54 L 315.37,391.78 L 315.52,391.46 L 316.01,391.15 L 317.13,391.00 L 317.62,391.00 L 318.27,391.14 L 318.55,391.25 L 318.85,391.79 L 318.96,392.14 L 318.97,393.33 L 318.76,396.11 L 318.63,397.48 L 318.21,399.50 L 317.95,400.40 L 317.17,401.60 L 316.72,402.12 L 315.42,402.67 L 312.73,402.98 L 312.20,402.99 L 311.35,402.86 L 310.96,402.77 L 310.33,402.41 L 310.03,402.21 L 309.55,401.59 L 309.32,401.24 M 329.41,401.61 L 329.33,401.42 L 329.22,400.73 L 329.18,400.34 L 329.12,399.35 L 329.19,395.86 L 329.27,394.77 L 329.43,393.34 L 329.55,392.72 L 329.99,392.01 L 330.28,391.72 L 331.29,391.44 L 333.75,391.19 L 334.67,391.13 L 336.01,391.12 L 336.61,391.14 L 337.45,391.37 L 337.83,391.52 L 338.39,392.08 L 339.12,393.37 L 339.52,394.24 L 339.80,396.03 L 339.85,396.92 L 339.50,398.58 L 339.25,399.37 L 338.34,400.68 L 336.41,402.04 L 335.51,402.38 L 333.89,402.77 L 333.11,402.92 L 331.79,402.94 L 331.18,402.91 L 330.26,402.55 L 329.85,402.33 M 335.82,396.67 L 335.87,396.20 L 335.87,395.46 L 335.85,395.12 L 335.69,394.63 L 335.59,394.41 L 335.26,394.15 L 334.57,394.00 L 334.30,394.00 L 333.86,394.18 L 333.67,394.30 L 333.38,394.74 L 333.25,394.99 L 333.09,395.70 L 333.00,397.08 L 333.00,397.56 L 333.10,398.32 L 333.17,398.67 L 333.38,399.18 L 333.60,399.63 L 334.24,399.77 L 334.56,399.73 L 335.18,398.92 L 335.47,398.40 M 349.00,397.00 L 349.00,396.33 L 349.01,395.21 L 349.02,394.68 L 349.06,393.81 L 349.11,393.00 L 349.33,392.00 L 349.47,391.58 L 349.94,391.19 L 351.00,391.00 L 351.44,391.00 L 352.06,391.19 L 352.33,391.33 L 352.67,392.00 L 352.81,392.42 L 352.94,393.81 L 352.96,394.22 L 352.99,395.21 L 353.00,397.00 L 353.00,397.67 L 352.99,398.79 L 352.98,399.32 L 352.94,400.19 L 352.89,401.00 L 352.67,402.00 L 352.53,402.42 L 352.06,402.81 L 351.00,403.00 L 350.56,403.00 L 349.94,402.81 L 349.67,402.67 L 349.33,402.00 L 349.19,401.58 L 349.06,400.19 L 349.04,399.78 L 349.01,398.79 L 349.00,398.26 M 364.22,401.75 L 363.61,401.01 L 362.96,398.99 L 362.73,397.94 L 362.77,395.71 L 362.88,394.62 L 363.57,392.74 L 363.78,392.32 L 364.32,391.63 L 365.28,390.92 L 366.00,390.59 L 367.39,390.36 L 368.07,390.30 L 369.35,390.55 L 369.96,390.72 L 371.06,391.37 L 371.57,391.73 L 372.42,392.70 L 372.81,393.21 L 373.35,394.40 L 373.58,395.02 L 373.75,396.36 L 373.78,397.04 L 373.52,398.45 L 372.57,400.54 L 372.12,401.22 L 370.77,402.18 L 370.04,402.59 L 368.40,402.98 L 367.58,403.10 L 366.03,402.86 L 365.30,402.66 M 369.50,396.50 L 369.50,395.70 L 369.18,394.49 L 368.99,393.96 L 368.42,393.39 L 368.12,393.19 L 367.47,393.37 L 366.60,394.60 L 366.38,395.16 L 366.30,396.42 L 366.31,397.04 L 366.60,398.19 L 366.78,398.72 L 367.33,399.44 L 368.33,399.72 L 368.50,399.67 L 368.79,399.35 L 368.93,399.16 L 369.16,398.62 L 369.37,398.03 M 300.29,226.98 L 299.77,226.77 L 299.28,226.28 L 299.22,226.12 L 299.28,225.72 L 299.35,225.50 L 299.70,224.92 L 299.91,224.59 L 300.60,223.76 L 300.99,223.31 L 302.04,222.17 L 302.62,221.55 L 304.09,220.04 L 306.80,217.30 L 308.53,215.56 L 311.62,212.08 L 313.11,210.34 L 315.75,206.82 L 317.01,205.05 L 319.22,201.44 L 320.27,199.61 L 322.05,195.87 L 322.90,193.98 L 324.29,190.06 L 324.93,188.08 L 325.95,183.94 L 326.41,181.84 L 327.06,177.44 L 327.66,170.50 L 327.75,168.74 L 327.80,165.45 L 327.81,163.84 L 327.69,160.79 L 327.52,157.79 L 326.62,152.25 L 326.07,149.50 L 324.31,144.08 L 323.81,142.70 L 322.64,139.89 L 320.59,135.50 L 319.34,132.97 L 316.44,128.21 L 314.93,125.88 L 311.53,121.54 L 309.78,119.43 L 305.92,115.56 L 299.66,110.33 L 299.03,109.86 L 297.98,109.08 L 297.49,108.71 L 296.71,108.09 L 296.35,107.81 L 295.83,107.35 L 295.59,107.14 L 295.31,106.81 L 295.08,106.52 L 295.28,106.26 L 296.46,106.23 L 297.19,106.29 L 298.65,106.76 L 300.19,107.72 L 300.33,107.90 L 300.93,108.22 L 301.27,108.37 L 302.18,108.62 L 305.49,109.00 L 306.43,109.00 L 307.89,109.15 L 308.57,109.27 L 309.78,109.81 L 310.39,110.15 L 311.74,111.29 L 312.10,111.62 L 312.91,112.44 L 314.32,113.91 L 316.39,116.13 L 320.20,121.12 L 322.05,123.69 L 325.32,129.26 L 326.89,132.11 L 329.54,138.11 L 332.71,147.40 L 333.01,148.47 L 333.48,151.14 L 333.71,152.56 L 334.04,155.78 L 334.18,157.45 L 334.37,161.03 L 334.44,162.84 L 334.47,166.58 L 334.47,168.45 L 334.36,172.15 L 334.28,173.97 L 334.02,177.43 L 333.87,179.12 L 333.47,182.15 L 332.69,186.00 L 332.22,187.74 L 330.97,191.38 L 330.30,193.21 L 328.69,196.95 L 327.85,198.83 L 325.96,202.56 L 324.98,204.41 L 322.86,208.02 L 321.78,209.79 L 319.52,213.16 L 318.37,214.80 L 316.02,217.82 L 314.84,219.27 L 312.48,221.82 L 309.00,225.00 L 308.00,225.79 L 306.46,226.85 L 305.73,227.29 L 304.49,227.72 L 303.87,227.86 L 302.60,227.72 L 301.92,227.60 M 297.00,211.02 L 297.00,210.88 L 297.36,210.18 L 297.59,209.77 L 298.33,208.65 L 298.73,208.05 L 299.76,206.66 L 301.51,204.43 L 303.41,202.11 L 306.60,197.18 L 308.10,194.68 L 310.51,189.46 L 311.62,186.82 L 313.23,181.38 L 313.93,178.64 L 314.73,173.07 L 315.03,170.27 L 315.02,164.65 L 314.90,161.84 L 314.06,156.25 L 313.54,153.47 L 311.87,147.99 L 308.41,139.99 L 307.62,138.48 L 306.37,135.80 L 306.10,135.20 L 305.74,134.27 L 305.50,133.42 L 305.49,133.20 L 305.26,132.61 L 305.11,132.29 L 304.65,131.55 L 304.15,130.79 L 302.77,129.18 L 302.07,128.41 L 300.74,127.27 L 300.44,127.05 L 299.95,126.80 L 299.45,126.81 L 299.24,127.00 L 299.13,126.91 L 299.43,126.20 L 299.67,125.79 L 300.29,125.48 L 301.34,125.82 L 301.66,126.08 L 302.67,126.39 L 304.25,126.46 L 304.82,126.37 L 305.55,126.72 L 306.00,128.02 L 306.00,128.42 L 306.45,129.22 L 306.74,129.60 L 307.66,130.28 L 308.16,130.60 L 309.39,131.08 L 311.41,131.45 L 311.58,131.46 L 312.13,132.03 L 312.43,132.39 L 313.17,133.56 L 313.56,134.20 L 314.44,135.82 L 314.89,136.67 L 315.83,138.61 L 316.78,140.59 L 318.57,144.88 L 318.99,145.93 L 319.71,147.93 L 320.56,150.64 L 320.97,152.15 L 321.56,155.47 L 321.82,157.17 L 322.13,160.79 L 322.24,162.62 L 322.27,166.43 L 322.24,168.34 L 321.99,172.22 L 321.83,174.16 L 321.32,178.01 L 321.03,179.92 L 320.26,183.61 L 319.85,185.43 L 318.84,188.87 L 317.06,193.61 L 316.47,194.92 L 314.77,198.07 L 313.87,199.67 L 311.93,202.77 L 311.45,203.51 L 310.54,204.83 L 310.10,205.46 L 309.32,206.49 L 308.94,206.96 L 308.35,207.60 L 307.73,208.00 L 307.62,208.00 L 307.21,208.14 L 306.98,208.22 L 306.39,208.51 L 304.30,209.72 L 303.53,210.23 L 301.85,210.99 L 301.02,211.33 L 299.49,211.69 L 298.77,211.82 L 297.70,211.73 L 297.48,211.68 L 297.19,211.47 L 297.07,211.36 M 289.00,200.73 L 289.00,200.55 L 289.24,199.95 L 289.39,199.61 L 289.88,198.76 L 291.99,195.83 L 292.96,194.65 L 294.83,191.85 L 295.75,190.40 L 297.42,187.25 L 298.21,185.66 L 299.52,182.47 L 300.92,177.96 L 301.08,177.28 L 301.34,175.70 L 301.46,174.88 L 301.64,173.07 L 301.81,171.23 L 301.92,167.23 L 301.93,165.24 L 301.74,161.47 L 301.67,160.57 L 301.47,158.94 L 301.10,156.81 L 300.94,156.13 L 300.76,155.05 L 300.70,154.56 L 300.72,153.83 L 300.75,153.50 L 300.97,153.05 L 301.54,152.62 L 301.89,152.49 L 302.63,152.74 L 303.44,153.71 L 303.61,154.14 L 304.04,154.65 L 304.64,154.69 L 304.81,154.53 L 305.49,154.70 L 306.70,155.55 L 306.99,155.84 L 307.48,156.87 L 307.71,157.45 L 308.09,158.96 L 308.26,159.77 L 308.52,161.65 L 308.63,162.62 L 308.75,164.75 L 308.84,166.92 L 308.62,171.50 L 308.53,172.63 L 308.24,174.79 L 307.63,177.79 L 307.13,179.75 L 305.90,183.63 L 305.26,185.52 L 303.94,188.84 L 303.61,189.61 L 302.98,190.94 L 302.67,191.57 L 302.11,192.57 L 301.83,193.02 L 301.35,193.63 L 300.76,194.00 L 300.62,194.00 L 300.07,194.32 L 299.75,194.52 L 298.92,195.17 L 295.88,198.00 L 294.92,198.99 L 293.18,200.44 L 292.36,201.08 L 291.00,201.77 L 290.38,202.01 L 289.53,201.89 L 289.36,201.81 L 289.14,201.47 L 289.05,201.28 Z" fill="rgba(148,110,185,1)"/>
</g>
</svg>